<?xml version="1.0" encoding="UTF-8" standalone="no"?>
<svg
   width="547"
   height="126"
   viewBox="0 0 547 126"
   fill="none"
   version="1.1"
   id="svg76"
   sodipodi:docname="NYC PARK FINDER LOGO.svg"
   inkscape:version="1.3.2 (091e20e, 2023-11-25)"
   xmlns:inkscape="http://www.inkscape.org/namespaces/inkscape"
   xmlns:sodipodi="http://sodipodi.sourceforge.net/DTD/sodipodi-0.dtd"
   xmlns="http://www.w3.org/2000/svg"
   xmlns:svg="http://www.w3.org/2000/svg">
  <sodipodi:namedview
     id="namedview76"
     pagecolor="#ffffff"
     bordercolor="#111111"
     borderopacity="1"
     inkscape:showpageshadow="0"
     inkscape:pageopacity="0"
     inkscape:pagecheckerboard="1"
     inkscape:deskcolor="#d1d1d1"
     inkscape:zoom="0.96156207"
     inkscape:cx="274.55326"
     inkscape:cy="84.757919"
     inkscape:window-width="1312"
     inkscape:window-height="668"
     inkscape:window-x="0"
     inkscape:window-y="25"
     inkscape:window-maximized="0"
     inkscape:current-layer="svg76" />
  <path
     d="M329.507 106.855C337.026 98.9636 334.033 89.4611 323.577 85.9978C309.149 81.2191 299.025 88.0957 284.484 82.4824C283.794 82.2162 282.817 82.6759 282.828 83.2678C283.082 96.0008 284.582 108.028 299.722 113.724C309.226 117.3 322.486 114.223 329.507 106.855Z"
     fill="#A2A2A2"
     id="path1" />
  <g
     filter="url(#filter0_i_0_1)"
     id="g3">
    <path
       d="M329.751 105.945C336.943 97.3767 333.681 86.6782 323.224 82.4829C308.796 76.6942 298.995 84.0478 284.428 77.3241C283.737 77.0052 282.785 77.4873 282.815 78.1483C283.469 92.3652 285.333 105.833 300.495 112.669C310.013 116.96 323.037 113.946 329.751 105.945Z"
       fill="#69B565"
       id="path2" />
    <path
       d="M296.173 92.4503C295.835 92.0211 296.428 91.4763 296.878 91.7999C300.112 94.1247 303.453 96.1556 306.996 97.7627C311.431 99.8049 316.149 101.163 321.001 101.889C325.854 102.618 330.835 102.728 335.849 102.349C338.031 102.19 340.215 101.935 342.409 101.611C343.782 101.409 344.253 103.251 342.939 103.696C340.765 104.434 338.526 105.022 336.251 105.462C331.017 106.463 325.556 106.645 320.24 105.837C314.93 105.041 309.776 103.241 305.315 100.499C301.766 98.3226 298.643 95.5919 296.173 92.4503Z"
       fill="#009455"
       id="path3" />
  </g>
  <mask
     id="path-4-inside-1_0_1"
     fill="white">
    <path
       d="M507.272 0.225269C507.088 0.516682 506.699 0.737221 506.123 0.876543C505.997 0.906356 505.866 0.957373 505.839 0.985302C505.739 1.07233 505.726 1.03662 505.744 0.753056C505.768 0.441183 505.707 0.294681 505.512 0.188481C505.401 0.129832 505.392 0.129681 505.319 0.199421C505.206 0.307503 505.012 0.396487 504.534 0.551659C504.111 0.690004 503.871 0.834992 503.869 0.952057C503.869 0.980434 503.841 1.00127 503.81 1.00074C503.685 0.998621 503.332 1.21622 503.172 1.39095C502.747 1.86992 502.795 2.47396 503.298 2.91891L503.479 3.08164L503.46 3.45035L503.44 3.81551L503.06 3.7949C502.849 3.78425 502.604 3.75526 502.51 3.72885C502.359 3.68371 502.341 3.68695 502.295 3.75005C502.226 3.8447 501.965 3.92191 501.791 3.89413C501.666 3.87427 501.639 3.88446 501.57 3.97911C501.51 4.05617 501.461 4.08372 501.367 4.08213L501.241 4.08356L501.37 4.16025C501.534 4.26237 501.616 4.43054 501.612 4.65403C501.61 4.81012 501.586 4.8594 501.454 4.98492C501.058 5.35083 501.111 5.71721 501.59 5.95595C501.83 6.07706 502.374 6.2069 502.875 6.25795C503.188 6.28809 503.205 6.31319 503.036 6.50198C502.863 6.69418 502.878 6.88254 503.068 7.03121C503.2 7.13637 503.222 7.1722 503.241 7.39963L503.268 7.65201L503.129 7.67452C503.052 7.68389 502.926 7.7385 502.853 7.79406C502.749 7.87743 502.721 7.92669 502.719 8.05084C502.718 8.13595 502.752 8.25011 502.8 8.31479C502.879 8.42257 502.879 8.42611 502.797 8.50991C502.551 8.75414 502.601 8.97144 502.939 9.10841C503.045 9.1528 503.161 9.18669 503.197 9.18729C503.233 9.19143 503.197 9.21215 503.12 9.23566C502.945 9.29303 502.831 9.41529 502.828 9.54304C502.826 9.66719 503.051 9.87678 503.252 9.94049C503.336 9.96319 503.403 10.0034 503.407 10.0247C503.407 10.0425 503.428 10.3444 503.45 10.689C503.486 11.1899 503.479 11.3318 503.438 11.3808C503.406 11.4122 503.377 11.5146 503.376 11.6068C503.374 11.7097 503.346 11.7873 503.305 11.815C503.206 11.8772 503.218 11.9554 503.366 12.1921C503.453 12.3284 503.513 12.5033 503.541 12.6883C503.578 12.9125 503.608 12.9911 503.692 13.0528C503.771 13.1109 503.797 13.1681 503.795 13.2781C503.789 13.6506 504.232 13.9349 504.593 13.7884C504.692 13.7474 504.68 13.6869 504.801 14.7322C505.079 17.0895 505.488 18.5832 506.155 19.6767C506.316 19.9385 506.42 20.1958 506.581 20.713C506.7 21.0911 506.823 21.4764 506.862 21.5658L506.922 21.7265L506.71 22.0778C506.434 22.5273 505.996 23.5241 505.811 24.1349C505.418 25.427 505.413 26.4772 505.797 26.8634C506.025 27.0944 506.132 27.1387 506.495 27.1484C506.741 27.1561 506.844 27.1756 506.901 27.2192C506.941 27.2518 507.034 27.2923 507.106 27.3042C507.213 27.3237 507.235 27.3419 507.212 27.4018C507.033 27.8778 507.065 28.1445 507.334 28.3832C507.475 28.5169 507.604 28.5652 508.041 28.6613C508.072 28.6689 508.101 28.8114 508.121 29.0069C508.15 29.3764 508.277 30.0811 508.469 30.9395C508.581 31.4418 508.588 31.5306 508.541 31.6966C508.412 32.1557 508.651 32.5749 509.211 32.886L509.503 33.0506L509.505 33.2386C509.502 33.4089 509.479 33.4511 509.255 33.6957C508.228 34.8316 507.337 36.4311 507.029 37.6928C506.923 38.1452 506.904 39 506.996 39.3813C507.138 39.9727 507.461 40.4891 507.947 40.9018L508.207 41.1263L508.07 41.5639C507.654 42.8699 507.558 43.7376 507.599 45.8496C507.619 46.8116 507.635 46.8722 507.924 47.278C508.104 47.5188 508.4 48.2619 508.479 48.6606C508.504 48.7711 508.526 49.3143 508.525 49.8714C508.529 50.4286 508.55 51.05 508.574 51.2561C508.597 51.4624 508.62 51.9631 508.622 52.3747C508.625 53.2548 508.786 54.3043 509.07 55.2923C509.108 55.4343 509.151 55.7903 509.163 56.1098C509.179 56.5217 509.223 56.8345 509.319 57.2477C509.39 57.5611 509.528 58.1529 509.619 58.566C509.931 59.969 510.234 60.8829 510.515 61.239C510.637 61.4007 510.641 61.4217 510.635 61.8227C510.594 63.944 510.053 66.0248 509.169 67.4435C509.031 67.6649 508.912 67.8507 508.902 67.8578C508.893 67.8648 508.62 67.8955 508.297 67.9293C507.009 68.0567 506.316 68.2682 506.136 68.5917C506.099 68.6551 505.999 68.717 505.851 68.7714C505.724 68.8157 505.548 68.9083 505.458 68.978L505.294 69.1062L504.554 69.1578C503.169 69.2515 502.365 69.3551 502.131 69.461L501.995 69.5262L501.979 70.491L501.963 71.4592L501.264 71.7314C500.881 71.8812 500.565 72.014 500.565 72.0251C500.563 72.1527 500.897 72.7544 501.148 73.0569L501.306 73.2474L501.29 74.1416L501.275 75.0352L501.089 75.1708C500.826 75.3685 500.684 75.5716 500.649 75.802L500.619 75.9965L516.656 76.2671C532.094 76.5276 532.689 76.5344 532.69 76.4736C532.691 76.4383 532.661 76.3775 532.625 76.3377C532.573 76.2838 532.567 76.1025 532.575 75.3541L532.59 74.4422L532.773 74.2365C532.955 74.0335 533.337 73.4438 533.384 73.2993C533.403 73.2322 533.355 73.2027 532.954 73.0611C532.709 72.9752 532.389 72.8566 532.251 72.7974L531.993 72.6936L532.009 71.7536L532.025 70.8135L531.798 70.7208C531.526 70.6029 530.038 70.1839 529.395 70.0383C529.012 69.9533 528.909 69.9163 528.826 69.8298C528.768 69.7719 528.626 69.6844 528.506 69.6366C528.137 69.4812 527.931 69.2081 527.569 68.3893C527.172 67.5059 526.694 66.1139 526.775 66.0766C526.992 65.977 526.968 64.9656 526.708 63.1304L526.64 62.6497L526.805 62.4431C527.057 62.1319 527.091 61.9623 527.044 61.2837C527.018 60.9639 526.991 60.4524 526.983 60.1435C526.96 59.6144 526.965 59.5791 527.052 59.506C527.102 59.4643 527.17 59.3942 527.198 59.3521C527.262 59.2538 527.271 58.7363 527.212 58.4867C527.187 58.3796 527.172 57.9573 527.17 57.5418L527.174 56.79L527.345 56.7321C527.439 56.7022 527.534 56.6574 527.557 56.6368C527.58 56.6123 527.559 56.2358 527.506 55.6918C527.395 54.558 527.392 54.4764 527.51 54.3967C527.559 54.3621 527.587 54.3235 527.578 54.3092C527.534 54.2481 527.404 52.9507 527.418 52.6742C527.425 52.5075 527.399 52.2054 527.362 51.999C527.321 51.7925 527.1 50.2949 526.872 48.673C526.355 45.0306 526.299 44.6358 526.313 44.636C526.411 44.6377 526.891 44.8445 527.26 45.0424C527.815 45.3391 527.908 45.3726 528.217 45.3778C528.813 45.3879 529.309 45.1905 529.728 44.7752C529.887 44.6147 530.014 44.5211 530.068 44.522C530.202 44.5243 530.469 44.3691 530.633 44.1944C530.82 43.9918 531.055 43.6054 531.204 43.246C531.438 42.6821 531.711 41.6152 531.718 41.2391C531.719 41.1291 531.771 40.9988 531.881 40.8232C532.07 40.5141 532.162 40.104 532.133 39.6884C532.119 39.4681 532.134 39.3761 532.204 39.2353C532.25 39.1403 532.326 38.9109 532.364 38.7342C532.456 38.317 532.569 36.6724 532.514 36.5154C532.463 36.3549 532.309 36.1606 532.084 35.9617L531.89 35.7916L532.399 35.0657C532.679 34.6694 532.909 34.3362 532.909 34.3256C532.909 34.3149 532.865 34.2787 532.816 34.2459L532.719 34.184L532.993 33.887L533.271 33.5936L533.156 33.4852C532.883 33.218 531.463 31.9202 531.326 31.8078C531.211 31.7172 531.046 31.6541 530.716 31.5634C530.404 31.4765 530.261 31.4492 530.248 31.4774C530.238 31.5021 530.196 31.6149 530.154 31.7313C530.041 32.0487 530.055 32.0348 529.93 31.9936C529.818 31.9598 529.809 31.9739 529.4 32.5915C529.115 33.0196 528.964 33.2122 528.929 33.1974C528.898 33.1827 528.778 33.1026 528.654 33.0189C528.535 32.9353 528.242 32.7564 528.011 32.6248L527.585 32.3834L527.514 32.1339C527.374 31.6347 526.961 30.8826 526.267 29.856C526.079 29.5796 525.874 29.2497 525.809 29.1244C525.635 28.7843 525.42 28.5217 525.093 28.2678C524.934 28.1444 524.762 27.9747 524.71 27.8887C524.592 27.6951 524.402 27.5854 524.076 27.5303C523.937 27.5066 523.785 27.4757 523.741 27.4678C523.634 27.4412 523.534 27.2657 523.536 27.1166C523.538 27.0102 523.512 26.9743 523.365 26.8866C523.268 26.8282 523.045 26.7429 522.863 26.6972C522.684 26.6516 522.51 26.6026 522.475 26.5878C522.439 26.573 522.225 26.2571 521.998 25.8878L521.584 25.2172L521.671 25.137C521.843 24.9838 521.962 24.8368 521.964 24.7694C521.964 24.7304 521.908 24.6052 521.834 24.4905C521.747 24.3506 521.704 24.2257 521.706 24.1192C521.707 24.0306 521.684 23.8421 521.65 23.696C521.6 23.4717 521.601 23.4078 521.658 23.242C521.752 22.9739 521.744 22.9347 521.573 22.7224C521.458 22.5821 521.42 22.4999 521.421 22.3899C521.423 22.3083 521.385 22.1373 521.338 22.0123C521.291 21.8909 521.253 21.7838 521.253 21.7767C521.253 21.7696 521.324 21.7779 521.418 21.7937L521.579 21.8213L521.549 21.4517C521.535 21.2492 521.526 20.9936 521.532 20.8801C521.538 20.7702 521.515 20.564 521.477 20.4215C521.444 20.2789 521.423 20.158 521.432 20.151C521.437 20.144 522.428 20.0401 523.626 19.9219C524.824 19.8002 525.798 19.696 525.789 19.6852C525.776 19.6743 521.847 19.4838 521.135 19.4612C521.019 19.4592 520.974 19.4229 520.825 19.2359C520.729 19.1136 520.646 19.0022 520.637 18.9879C520.633 18.9772 521.373 18.6348 522.284 18.2279C524.103 17.4176 524.252 17.3457 523.901 17.4426C523.779 17.4796 522.844 17.7122 521.823 17.9647L519.97 18.4195L519.602 18.1933C519.403 18.0693 519.172 17.9377 519.092 17.9079C519.012 17.8747 518.945 17.8416 518.946 17.8274C518.946 17.8168 519.238 17.2327 519.595 16.529C519.951 15.8253 520.239 15.2446 520.234 15.2375C520.226 15.2338 519.792 15.6949 519.263 16.2644C518.739 16.8339 518.25 17.3579 518.182 17.4278L518.059 17.5569L517.845 17.5037C517.725 17.4732 517.434 17.4257 517.202 17.397L516.782 17.3473L515.643 15.7952C515.017 14.9401 514.501 14.2465 514.496 14.2535C514.487 14.2605 514.771 14.9501 515.128 15.7936C515.482 16.6334 515.774 17.3232 515.774 17.3303C515.774 17.3374 515.707 17.3505 515.63 17.3634C515.361 17.4014 515.037 17.4847 514.771 17.5831L514.514 17.6816L512.611 16.9008C510.614 16.0793 510.067 15.8608 510.066 15.882C510.066 15.8891 510.891 16.3785 511.898 16.9669C512.9 17.5551 513.751 18.0555 513.787 18.081C513.84 18.1209 513.83 18.1491 513.73 18.2787C513.67 18.3629 513.587 18.4963 513.559 18.5775C513.526 18.6621 513.48 18.7287 513.462 18.7284C513.44 18.728 512.624 18.7711 511.647 18.822C510.67 18.8729 509.854 18.9053 509.832 18.8943C509.81 18.8832 509.793 18.8013 509.795 18.7126C509.799 18.4608 509.679 17.8378 509.564 17.5058C509.509 17.3417 509.246 16.7269 508.983 16.1405C508.067 14.1166 507.573 12.8983 507.259 11.8817C507.114 11.4038 507.086 11.2507 507.062 10.7606C507.045 10.4481 507.006 10.1103 506.972 10.0139C506.81 9.53924 506.504 9.06571 506.051 8.58257C505.902 8.42746 505.752 8.26522 505.712 8.22201C505.655 8.15713 505.652 8.07902 505.69 7.66808L505.739 7.18981L505.893 7.07889C506.092 6.93679 506.123 6.74919 505.969 6.57274C505.929 6.5224 505.881 6.44707 505.864 6.40772C505.838 6.33635 505.856 6.32953 506.116 6.31265C506.906 6.25857 507.549 6.07071 507.728 5.84661C507.901 5.63309 507.839 5.33751 507.566 5.05968C507.456 4.94782 507.43 4.88706 507.433 4.74871C507.436 4.52877 507.496 4.41978 507.673 4.29147L507.818 4.19101L507.697 4.18897C507.603 4.18738 507.555 4.15817 507.498 4.07915C507.432 3.98223 507.405 3.97114 507.28 3.98676C507.105 4.00864 506.846 3.92267 506.781 3.82221C506.737 3.7576 506.719 3.75375 506.584 3.79405C506.508 3.82115 506.266 3.849 506.05 3.85601L505.656 3.8742L505.663 3.48043L505.669 3.08666L505.823 2.98281C506.063 2.82363 506.26 2.56437 506.309 2.34518C506.367 2.08713 506.445 1.9749 506.832 1.60174C507.301 1.1519 507.356 1.08541 507.404 0.894606C507.428 0.802751 507.47 0.679269 507.498 0.626509C507.526 0.570203 507.549 0.488992 507.55 0.442875C507.552 0.350642 507.426 0.103678 507.377 0.102847C507.363 0.10262 507.313 0.158548 507.272 0.225269ZM511.801 19.2504C512.454 19.2898 513.089 19.336 513.21 19.3487L513.433 19.3702L513.501 19.6091C513.539 19.741 513.564 19.855 513.555 19.8619C513.546 19.8689 512.958 19.9654 512.248 20.0741L510.955 20.2758L510.823 20.1458C510.598 19.9185 510.355 19.7441 510.23 19.7206C510.096 19.6971 509.947 19.4888 509.893 19.2537L509.864 19.1184L510.24 19.1495C510.445 19.1637 511.148 19.211 511.801 19.2504ZM513.71 20.7446C513.717 20.8583 513.705 21.0603 513.68 21.1983C513.66 21.3399 513.656 21.5953 513.679 21.8015C513.71 22.0965 513.736 22.168 513.815 22.219C513.944 22.3063 514.127 22.3058 514.277 22.2161C514.385 22.1505 514.394 22.1507 514.393 22.211C514.391 22.3529 513.41 23.6918 513.311 23.6937C513.208 23.6919 512.73 23.3681 512.377 23.057C511.931 22.6697 511.77 22.4222 511.809 22.1993C511.834 22.0684 511.817 22.0078 511.704 21.832C511.625 21.71 511.552 21.542 511.54 21.4283C511.524 21.318 511.443 21.0967 511.356 20.9355C511.273 20.7744 511.204 20.6384 511.209 20.6385C511.227 20.6317 513.284 20.5458 513.49 20.5421L513.696 20.5421L513.71 20.7446Z"
       id="path4" />
  </mask>
  <g
     filter="url(#filter1_i_0_1)"
     id="g5">
    <path
       d="M507.272 0.225269C507.088 0.516682 506.699 0.737221 506.123 0.876543C505.997 0.906356 505.866 0.957373 505.839 0.985302C505.739 1.07233 505.726 1.03662 505.744 0.753056C505.768 0.441183 505.707 0.294681 505.512 0.188481C505.401 0.129832 505.392 0.129681 505.319 0.199421C505.206 0.307503 505.012 0.396487 504.534 0.551659C504.111 0.690004 503.871 0.834992 503.869 0.952057C503.869 0.980434 503.841 1.00127 503.81 1.00074C503.685 0.998621 503.332 1.21622 503.172 1.39095C502.747 1.86992 502.795 2.47396 503.298 2.91891L503.479 3.08164L503.46 3.45035L503.44 3.81551L503.06 3.7949C502.849 3.78425 502.604 3.75526 502.51 3.72885C502.359 3.68371 502.341 3.68695 502.295 3.75005C502.226 3.8447 501.965 3.92191 501.791 3.89413C501.666 3.87427 501.639 3.88446 501.57 3.97911C501.51 4.05617 501.461 4.08372 501.367 4.08213L501.241 4.08356L501.37 4.16025C501.534 4.26237 501.616 4.43054 501.612 4.65403C501.61 4.81012 501.586 4.8594 501.454 4.98492C501.058 5.35083 501.111 5.71721 501.59 5.95595C501.83 6.07706 502.374 6.2069 502.875 6.25795C503.188 6.28809 503.205 6.31319 503.036 6.50198C502.863 6.69418 502.878 6.88254 503.068 7.03121C503.2 7.13637 503.222 7.1722 503.241 7.39963L503.268 7.65201L503.129 7.67452C503.052 7.68389 502.926 7.7385 502.853 7.79406C502.749 7.87743 502.721 7.92669 502.719 8.05084C502.718 8.13595 502.752 8.25011 502.8 8.31479C502.879 8.42257 502.879 8.42611 502.797 8.50991C502.551 8.75414 502.601 8.97144 502.939 9.10841C503.045 9.1528 503.161 9.18669 503.197 9.18729C503.233 9.19143 503.197 9.21215 503.12 9.23566C502.945 9.29303 502.831 9.41529 502.828 9.54304C502.826 9.66719 503.051 9.87678 503.252 9.94049C503.336 9.96319 503.403 10.0034 503.407 10.0247C503.407 10.0425 503.428 10.3444 503.45 10.689C503.486 11.1899 503.479 11.3318 503.438 11.3808C503.406 11.4122 503.377 11.5146 503.376 11.6068C503.374 11.7097 503.346 11.7873 503.305 11.815C503.206 11.8772 503.218 11.9554 503.366 12.1921C503.453 12.3284 503.513 12.5033 503.541 12.6883C503.578 12.9125 503.608 12.9911 503.692 13.0528C503.771 13.1109 503.797 13.1681 503.795 13.2781C503.789 13.6506 504.232 13.9349 504.593 13.7884C504.692 13.7474 504.68 13.6869 504.801 14.7322C505.079 17.0895 505.488 18.5832 506.155 19.6767C506.316 19.9385 506.42 20.1958 506.581 20.713C506.7 21.0911 506.823 21.4764 506.862 21.5658L506.922 21.7265L506.71 22.0778C506.434 22.5273 505.996 23.5241 505.811 24.1349C505.418 25.427 505.413 26.4772 505.797 26.8634C506.025 27.0944 506.132 27.1387 506.495 27.1484C506.741 27.1561 506.844 27.1756 506.901 27.2192C506.941 27.2518 507.034 27.2923 507.106 27.3042C507.213 27.3237 507.235 27.3419 507.212 27.4018C507.033 27.8778 507.065 28.1445 507.334 28.3832C507.475 28.5169 507.604 28.5652 508.041 28.6613C508.072 28.6689 508.101 28.8114 508.121 29.0069C508.15 29.3764 508.277 30.0811 508.469 30.9395C508.581 31.4418 508.588 31.5306 508.541 31.6966C508.412 32.1557 508.651 32.5749 509.211 32.886L509.503 33.0506L509.505 33.2386C509.502 33.4089 509.479 33.4511 509.255 33.6957C508.228 34.8316 507.337 36.4311 507.029 37.6928C506.923 38.1452 506.904 39 506.996 39.3813C507.138 39.9727 507.461 40.4891 507.947 40.9018L508.207 41.1263L508.07 41.5639C507.654 42.8699 507.558 43.7376 507.599 45.8496C507.619 46.8116 507.635 46.8722 507.924 47.278C508.104 47.5188 508.4 48.2619 508.479 48.6606C508.504 48.7711 508.526 49.3143 508.525 49.8714C508.529 50.4286 508.55 51.05 508.574 51.2561C508.597 51.4624 508.62 51.9631 508.622 52.3747C508.625 53.2548 508.786 54.3043 509.07 55.2923C509.108 55.4343 509.151 55.7903 509.163 56.1098C509.179 56.5217 509.223 56.8345 509.319 57.2477C509.39 57.5611 509.528 58.1529 509.619 58.566C509.931 59.969 510.234 60.8829 510.515 61.239C510.637 61.4007 510.641 61.4217 510.635 61.8227C510.594 63.944 510.053 66.0248 509.169 67.4435C509.031 67.6649 508.912 67.8507 508.902 67.8578C508.893 67.8648 508.62 67.8955 508.297 67.9293C507.009 68.0567 506.316 68.2682 506.136 68.5917C506.099 68.6551 505.999 68.717 505.851 68.7714C505.724 68.8157 505.548 68.9083 505.458 68.978L505.294 69.1062L504.554 69.1578C503.169 69.2515 502.365 69.3551 502.131 69.461L501.995 69.5262L501.979 70.491L501.963 71.4592L501.264 71.7314C500.881 71.8812 500.565 72.014 500.565 72.0251C500.563 72.1527 500.897 72.7544 501.148 73.0569L501.306 73.2474L501.29 74.1416L501.275 75.0352L501.089 75.1708C500.826 75.3685 500.684 75.5716 500.649 75.802L500.619 75.9965L516.656 76.2671C532.094 76.5276 532.689 76.5344 532.69 76.4736C532.691 76.4383 532.661 76.3775 532.625 76.3377C532.573 76.2838 532.567 76.1025 532.575 75.3541L532.59 74.4422L532.773 74.2365C532.955 74.0335 533.337 73.4438 533.384 73.2993C533.403 73.2322 533.355 73.2027 532.954 73.0611C532.709 72.9752 532.389 72.8566 532.251 72.7974L531.993 72.6936L532.009 71.7536L532.025 70.8135L531.798 70.7208C531.526 70.6029 530.038 70.1839 529.395 70.0383C529.012 69.9533 528.909 69.9163 528.826 69.8298C528.768 69.7719 528.626 69.6844 528.506 69.6366C528.137 69.4812 527.931 69.2081 527.569 68.3893C527.172 67.5059 526.694 66.1139 526.775 66.0766C526.992 65.977 526.968 64.9656 526.708 63.1304L526.64 62.6497L526.805 62.4431C527.057 62.1319 527.091 61.9623 527.044 61.2837C527.018 60.9639 526.991 60.4524 526.983 60.1435C526.96 59.6144 526.965 59.5791 527.052 59.506C527.102 59.4643 527.17 59.3942 527.198 59.3521C527.262 59.2538 527.271 58.7363 527.212 58.4867C527.187 58.3796 527.172 57.9573 527.17 57.5418L527.174 56.79L527.345 56.7321C527.439 56.7022 527.534 56.6574 527.557 56.6368C527.58 56.6123 527.559 56.2358 527.506 55.6918C527.395 54.558 527.392 54.4764 527.51 54.3967C527.559 54.3621 527.587 54.3235 527.578 54.3092C527.534 54.2481 527.404 52.9507 527.418 52.6742C527.425 52.5075 527.399 52.2054 527.362 51.999C527.321 51.7925 527.1 50.2949 526.872 48.673C526.355 45.0306 526.299 44.6358 526.313 44.636C526.411 44.6377 526.891 44.8445 527.26 45.0424C527.815 45.3391 527.908 45.3726 528.217 45.3778C528.813 45.3879 529.309 45.1905 529.728 44.7752C529.887 44.6147 530.014 44.5211 530.068 44.522C530.202 44.5243 530.469 44.3691 530.633 44.1944C530.82 43.9918 531.055 43.6054 531.204 43.246C531.438 42.6821 531.711 41.6152 531.718 41.2391C531.719 41.1291 531.771 40.9988 531.881 40.8232C532.07 40.5141 532.162 40.104 532.133 39.6884C532.119 39.4681 532.134 39.3761 532.204 39.2353C532.25 39.1403 532.326 38.9109 532.364 38.7342C532.456 38.317 532.569 36.6724 532.514 36.5154C532.463 36.3549 532.309 36.1606 532.084 35.9617L531.89 35.7916L532.399 35.0657C532.679 34.6694 532.909 34.3362 532.909 34.3256C532.909 34.3149 532.865 34.2787 532.816 34.2459L532.719 34.184L532.993 33.887L533.271 33.5936L533.156 33.4852C532.883 33.218 531.463 31.9202 531.326 31.8078C531.211 31.7172 531.046 31.6541 530.716 31.5634C530.404 31.4765 530.261 31.4492 530.248 31.4774C530.238 31.5021 530.196 31.6149 530.154 31.7313C530.041 32.0487 530.055 32.0348 529.93 31.9936C529.818 31.9598 529.809 31.9739 529.4 32.5915C529.115 33.0196 528.964 33.2122 528.929 33.1974C528.898 33.1827 528.778 33.1026 528.654 33.0189C528.535 32.9353 528.242 32.7564 528.011 32.6248L527.585 32.3834L527.514 32.1339C527.374 31.6347 526.961 30.8826 526.267 29.856C526.079 29.5796 525.874 29.2497 525.809 29.1244C525.635 28.7843 525.42 28.5217 525.093 28.2678C524.934 28.1444 524.762 27.9747 524.71 27.8887C524.592 27.6951 524.402 27.5854 524.076 27.5303C523.937 27.5066 523.785 27.4757 523.741 27.4678C523.634 27.4412 523.534 27.2657 523.536 27.1166C523.538 27.0102 523.512 26.9743 523.365 26.8866C523.268 26.8282 523.045 26.7429 522.863 26.6972C522.684 26.6516 522.51 26.6026 522.475 26.5878C522.439 26.573 522.225 26.2571 521.998 25.8878L521.584 25.2172L521.671 25.137C521.843 24.9838 521.962 24.8368 521.964 24.7694C521.964 24.7304 521.908 24.6052 521.834 24.4905C521.747 24.3506 521.704 24.2257 521.706 24.1192C521.707 24.0306 521.684 23.8421 521.65 23.696C521.6 23.4717 521.601 23.4078 521.658 23.242C521.752 22.9739 521.744 22.9347 521.573 22.7224C521.458 22.5821 521.42 22.4999 521.421 22.3899C521.423 22.3083 521.385 22.1373 521.338 22.0123C521.291 21.8909 521.253 21.7838 521.253 21.7767C521.253 21.7696 521.324 21.7779 521.418 21.7937L521.579 21.8213L521.549 21.4517C521.535 21.2492 521.526 20.9936 521.532 20.8801C521.538 20.7702 521.515 20.564 521.477 20.4215C521.444 20.2789 521.423 20.158 521.432 20.151C521.437 20.144 522.428 20.0401 523.626 19.9219C524.824 19.8002 525.798 19.696 525.789 19.6852C525.776 19.6743 521.847 19.4838 521.135 19.4612C521.019 19.4592 520.974 19.4229 520.825 19.2359C520.729 19.1136 520.646 19.0022 520.637 18.9879C520.633 18.9772 521.373 18.6348 522.284 18.2279C524.103 17.4176 524.252 17.3457 523.901 17.4426C523.779 17.4796 522.844 17.7122 521.823 17.9647L519.97 18.4195L519.602 18.1933C519.403 18.0693 519.172 17.9377 519.092 17.9079C519.012 17.8747 518.945 17.8416 518.946 17.8274C518.946 17.8168 519.238 17.2327 519.595 16.529C519.951 15.8253 520.239 15.2446 520.234 15.2375C520.226 15.2338 519.792 15.6949 519.263 16.2644C518.739 16.8339 518.25 17.3579 518.182 17.4278L518.059 17.5569L517.845 17.5037C517.725 17.4732 517.434 17.4257 517.202 17.397L516.782 17.3473L515.643 15.7952C515.017 14.9401 514.501 14.2465 514.496 14.2535C514.487 14.2605 514.771 14.9501 515.128 15.7936C515.482 16.6334 515.774 17.3232 515.774 17.3303C515.774 17.3374 515.707 17.3505 515.63 17.3634C515.361 17.4014 515.037 17.4847 514.771 17.5831L514.514 17.6816L512.611 16.9008C510.614 16.0793 510.067 15.8608 510.066 15.882C510.066 15.8891 510.891 16.3785 511.898 16.9669C512.9 17.5551 513.751 18.0555 513.787 18.081C513.84 18.1209 513.83 18.1491 513.73 18.2787C513.67 18.3629 513.587 18.4963 513.559 18.5775C513.526 18.6621 513.48 18.7287 513.462 18.7284C513.44 18.728 512.624 18.7711 511.647 18.822C510.67 18.8729 509.854 18.9053 509.832 18.8943C509.81 18.8832 509.793 18.8013 509.795 18.7126C509.799 18.4608 509.679 17.8378 509.564 17.5058C509.509 17.3417 509.246 16.7269 508.983 16.1405C508.067 14.1166 507.573 12.8983 507.259 11.8817C507.114 11.4038 507.086 11.2507 507.062 10.7606C507.045 10.4481 507.006 10.1103 506.972 10.0139C506.81 9.53924 506.504 9.06571 506.051 8.58257C505.902 8.42746 505.752 8.26522 505.712 8.22201C505.655 8.15713 505.652 8.07902 505.69 7.66808L505.739 7.18981L505.893 7.07889C506.092 6.93679 506.123 6.74919 505.969 6.57274C505.929 6.5224 505.881 6.44707 505.864 6.40772C505.838 6.33635 505.856 6.32953 506.116 6.31265C506.906 6.25857 507.549 6.07071 507.728 5.84661C507.901 5.63309 507.839 5.33751 507.566 5.05968C507.456 4.94782 507.43 4.88706 507.433 4.74871C507.436 4.52877 507.496 4.41978 507.673 4.29147L507.818 4.19101L507.697 4.18897C507.603 4.18738 507.555 4.15817 507.498 4.07915C507.432 3.98223 507.405 3.97114 507.28 3.98676C507.105 4.00864 506.846 3.92267 506.781 3.82221C506.737 3.7576 506.719 3.75375 506.584 3.79405C506.508 3.82115 506.266 3.849 506.05 3.85601L505.656 3.8742L505.663 3.48043L505.669 3.08666L505.823 2.98281C506.063 2.82363 506.26 2.56437 506.309 2.34518C506.367 2.08713 506.445 1.9749 506.832 1.60174C507.301 1.1519 507.356 1.08541 507.404 0.894606C507.428 0.802751 507.47 0.679269 507.498 0.626509C507.526 0.570203 507.549 0.488992 507.55 0.442875C507.552 0.350642 507.426 0.103678 507.377 0.102847C507.363 0.10262 507.313 0.158548 507.272 0.225269ZM511.801 19.2504C512.454 19.2898 513.089 19.336 513.21 19.3487L513.433 19.3702L513.501 19.6091C513.539 19.741 513.564 19.855 513.555 19.8619C513.546 19.8689 512.958 19.9654 512.248 20.0741L510.955 20.2758L510.823 20.1458C510.598 19.9185 510.355 19.7441 510.23 19.7206C510.096 19.6971 509.947 19.4888 509.893 19.2537L509.864 19.1184L510.24 19.1495C510.445 19.1637 511.148 19.211 511.801 19.2504ZM513.71 20.7446C513.717 20.8583 513.705 21.0603 513.68 21.1983C513.66 21.3399 513.656 21.5953 513.679 21.8015C513.71 22.0965 513.736 22.168 513.815 22.219C513.944 22.3063 514.127 22.3058 514.277 22.2161C514.385 22.1505 514.394 22.1507 514.393 22.211C514.391 22.3529 513.41 23.6918 513.311 23.6937C513.208 23.6919 512.73 23.3681 512.377 23.057C511.931 22.6697 511.77 22.4222 511.809 22.1993C511.834 22.0684 511.817 22.0078 511.704 21.832C511.625 21.71 511.552 21.542 511.54 21.4283C511.524 21.318 511.443 21.0967 511.356 20.9355C511.273 20.7744 511.204 20.6384 511.209 20.6385C511.227 20.6317 513.284 20.5458 513.49 20.5421L513.696 20.5421L513.71 20.7446Z"
       fill="url(#paint0_linear_0_1)"
       id="path5" />
  </g>
  <path
     d="M507.272 0.225269C507.088 0.516682 506.699 0.737221 506.123 0.876543C505.997 0.906356 505.866 0.957373 505.839 0.985302C505.739 1.07233 505.726 1.03662 505.744 0.753056C505.768 0.441183 505.707 0.294681 505.512 0.188481C505.401 0.129832 505.392 0.129681 505.319 0.199421C505.206 0.307503 505.012 0.396487 504.534 0.551659C504.111 0.690004 503.871 0.834992 503.869 0.952057C503.869 0.980434 503.841 1.00127 503.81 1.00074C503.685 0.998621 503.332 1.21622 503.172 1.39095C502.747 1.86992 502.795 2.47396 503.298 2.91891L503.479 3.08164L503.46 3.45035L503.44 3.81551L503.06 3.7949C502.849 3.78425 502.604 3.75526 502.51 3.72885C502.359 3.68371 502.341 3.68695 502.295 3.75005C502.226 3.8447 501.965 3.92191 501.791 3.89413C501.666 3.87427 501.639 3.88446 501.57 3.97911C501.51 4.05617 501.461 4.08372 501.367 4.08213L501.241 4.08356L501.37 4.16025C501.534 4.26237 501.616 4.43054 501.612 4.65403C501.61 4.81012 501.586 4.8594 501.454 4.98492C501.058 5.35083 501.111 5.71721 501.59 5.95595C501.83 6.07706 502.374 6.2069 502.875 6.25795C503.188 6.28809 503.205 6.31319 503.036 6.50198C502.863 6.69418 502.878 6.88254 503.068 7.03121C503.2 7.13637 503.222 7.1722 503.241 7.39963L503.268 7.65201L503.129 7.67452C503.052 7.68389 502.926 7.7385 502.853 7.79406C502.749 7.87743 502.721 7.92669 502.719 8.05084C502.718 8.13595 502.752 8.25011 502.8 8.31479C502.879 8.42257 502.879 8.42611 502.797 8.50991C502.551 8.75414 502.601 8.97144 502.939 9.10841C503.045 9.1528 503.161 9.18669 503.197 9.18729C503.233 9.19143 503.197 9.21215 503.12 9.23566C502.945 9.29303 502.831 9.41529 502.828 9.54304C502.826 9.66719 503.051 9.87678 503.252 9.94049C503.336 9.96319 503.403 10.0034 503.407 10.0247C503.407 10.0425 503.428 10.3444 503.45 10.689C503.486 11.1899 503.479 11.3318 503.438 11.3808C503.406 11.4122 503.377 11.5146 503.376 11.6068C503.374 11.7097 503.346 11.7873 503.305 11.815C503.206 11.8772 503.218 11.9554 503.366 12.1921C503.453 12.3284 503.513 12.5033 503.541 12.6883C503.578 12.9125 503.608 12.9911 503.692 13.0528C503.771 13.1109 503.797 13.1681 503.795 13.2781C503.789 13.6506 504.232 13.9349 504.593 13.7884C504.692 13.7474 504.68 13.6869 504.801 14.7322C505.079 17.0895 505.488 18.5832 506.155 19.6767C506.316 19.9385 506.42 20.1958 506.581 20.713C506.7 21.0911 506.823 21.4764 506.862 21.5658L506.922 21.7265L506.71 22.0778C506.434 22.5273 505.996 23.5241 505.811 24.1349C505.418 25.427 505.413 26.4772 505.797 26.8634C506.025 27.0944 506.132 27.1387 506.495 27.1484C506.741 27.1561 506.844 27.1756 506.901 27.2192C506.941 27.2518 507.034 27.2923 507.106 27.3042C507.213 27.3237 507.235 27.3419 507.212 27.4018C507.033 27.8778 507.065 28.1445 507.334 28.3832C507.475 28.5169 507.604 28.5652 508.041 28.6613C508.072 28.6689 508.101 28.8114 508.121 29.0069C508.15 29.3764 508.277 30.0811 508.469 30.9395C508.581 31.4418 508.588 31.5306 508.541 31.6966C508.412 32.1557 508.651 32.5749 509.211 32.886L509.503 33.0506L509.505 33.2386C509.502 33.4089 509.479 33.4511 509.255 33.6957C508.228 34.8316 507.337 36.4311 507.029 37.6928C506.923 38.1452 506.904 39 506.996 39.3813C507.138 39.9727 507.461 40.4891 507.947 40.9018L508.207 41.1263L508.07 41.5639C507.654 42.8699 507.558 43.7376 507.599 45.8496C507.619 46.8116 507.635 46.8722 507.924 47.278C508.104 47.5188 508.4 48.2619 508.479 48.6606C508.504 48.7711 508.526 49.3143 508.525 49.8714C508.529 50.4286 508.55 51.05 508.574 51.2561C508.597 51.4624 508.62 51.9631 508.622 52.3747C508.625 53.2548 508.786 54.3043 509.07 55.2923C509.108 55.4343 509.151 55.7903 509.163 56.1098C509.179 56.5217 509.223 56.8345 509.319 57.2477C509.39 57.5611 509.528 58.1529 509.619 58.566C509.931 59.969 510.234 60.8829 510.515 61.239C510.637 61.4007 510.641 61.4217 510.635 61.8227C510.594 63.944 510.053 66.0248 509.169 67.4435C509.031 67.6649 508.912 67.8507 508.902 67.8578C508.893 67.8648 508.62 67.8955 508.297 67.9293C507.009 68.0567 506.316 68.2682 506.136 68.5917C506.099 68.6551 505.999 68.717 505.851 68.7714C505.724 68.8157 505.548 68.9083 505.458 68.978L505.294 69.1062L504.554 69.1578C503.169 69.2515 502.365 69.3551 502.131 69.461L501.995 69.5262L501.979 70.491L501.963 71.4592L501.264 71.7314C500.881 71.8812 500.565 72.014 500.565 72.0251C500.563 72.1527 500.897 72.7544 501.148 73.0569L501.306 73.2474L501.29 74.1416L501.275 75.0352L501.089 75.1708C500.826 75.3685 500.684 75.5716 500.649 75.802L500.619 75.9965L516.656 76.2671C532.094 76.5276 532.689 76.5344 532.69 76.4736C532.691 76.4383 532.661 76.3775 532.625 76.3377C532.573 76.2838 532.567 76.1025 532.575 75.3541L532.59 74.4422L532.773 74.2365C532.955 74.0335 533.337 73.4438 533.384 73.2993C533.403 73.2322 533.355 73.2027 532.954 73.0611C532.709 72.9752 532.389 72.8566 532.251 72.7974L531.993 72.6936L532.009 71.7536L532.025 70.8135L531.798 70.7208C531.526 70.6029 530.038 70.1839 529.395 70.0383C529.012 69.9533 528.909 69.9163 528.826 69.8298C528.768 69.7719 528.626 69.6844 528.506 69.6366C528.137 69.4812 527.931 69.2081 527.569 68.3893C527.172 67.5059 526.694 66.1139 526.775 66.0766C526.992 65.977 526.968 64.9656 526.708 63.1304L526.64 62.6497L526.805 62.4431C527.057 62.1319 527.091 61.9623 527.044 61.2837C527.018 60.9639 526.991 60.4524 526.983 60.1435C526.96 59.6144 526.965 59.5791 527.052 59.506C527.102 59.4643 527.17 59.3942 527.198 59.3521C527.262 59.2538 527.271 58.7363 527.212 58.4867C527.187 58.3796 527.172 57.9573 527.17 57.5418L527.174 56.79L527.345 56.7321C527.439 56.7022 527.534 56.6574 527.557 56.6368C527.58 56.6123 527.559 56.2358 527.506 55.6918C527.395 54.558 527.392 54.4764 527.51 54.3967C527.559 54.3621 527.587 54.3235 527.578 54.3092C527.534 54.2481 527.404 52.9507 527.418 52.6742C527.425 52.5075 527.399 52.2054 527.362 51.999C527.321 51.7925 527.1 50.2949 526.872 48.673C526.355 45.0306 526.299 44.6358 526.313 44.636C526.411 44.6377 526.891 44.8445 527.26 45.0424C527.815 45.3391 527.908 45.3726 528.217 45.3778C528.813 45.3879 529.309 45.1905 529.728 44.7752C529.887 44.6147 530.014 44.5211 530.068 44.522C530.202 44.5243 530.469 44.3691 530.633 44.1944C530.82 43.9918 531.055 43.6054 531.204 43.246C531.438 42.6821 531.711 41.6152 531.718 41.2391C531.719 41.1291 531.771 40.9988 531.881 40.8232C532.07 40.5141 532.162 40.104 532.133 39.6884C532.119 39.4681 532.134 39.3761 532.204 39.2353C532.25 39.1403 532.326 38.9109 532.364 38.7342C532.456 38.317 532.569 36.6724 532.514 36.5154C532.463 36.3549 532.309 36.1606 532.084 35.9617L531.89 35.7916L532.399 35.0657C532.679 34.6694 532.909 34.3362 532.909 34.3256C532.909 34.3149 532.865 34.2787 532.816 34.2459L532.719 34.184L532.993 33.887L533.271 33.5936L533.156 33.4852C532.883 33.218 531.463 31.9202 531.326 31.8078C531.211 31.7172 531.046 31.6541 530.716 31.5634C530.404 31.4765 530.261 31.4492 530.248 31.4774C530.238 31.5021 530.196 31.6149 530.154 31.7313C530.041 32.0487 530.055 32.0348 529.93 31.9936C529.818 31.9598 529.809 31.9739 529.4 32.5915C529.115 33.0196 528.964 33.2122 528.929 33.1974C528.898 33.1827 528.778 33.1026 528.654 33.0189C528.535 32.9353 528.242 32.7564 528.011 32.6248L527.585 32.3834L527.514 32.1339C527.374 31.6347 526.961 30.8826 526.267 29.856C526.079 29.5796 525.874 29.2497 525.809 29.1244C525.635 28.7843 525.42 28.5217 525.093 28.2678C524.934 28.1444 524.762 27.9747 524.71 27.8887C524.592 27.6951 524.402 27.5854 524.076 27.5303C523.937 27.5066 523.785 27.4757 523.741 27.4678C523.634 27.4412 523.534 27.2657 523.536 27.1166C523.538 27.0102 523.512 26.9743 523.365 26.8866C523.268 26.8282 523.045 26.7429 522.863 26.6972C522.684 26.6516 522.51 26.6026 522.475 26.5878C522.439 26.573 522.225 26.2571 521.998 25.8878L521.584 25.2172L521.671 25.137C521.843 24.9838 521.962 24.8368 521.964 24.7694C521.964 24.7304 521.908 24.6052 521.834 24.4905C521.747 24.3506 521.704 24.2257 521.706 24.1192C521.707 24.0306 521.684 23.8421 521.65 23.696C521.6 23.4717 521.601 23.4078 521.658 23.242C521.752 22.9739 521.744 22.9347 521.573 22.7224C521.458 22.5821 521.42 22.4999 521.421 22.3899C521.423 22.3083 521.385 22.1373 521.338 22.0123C521.291 21.8909 521.253 21.7838 521.253 21.7767C521.253 21.7696 521.324 21.7779 521.418 21.7937L521.579 21.8213L521.549 21.4517C521.535 21.2492 521.526 20.9936 521.532 20.8801C521.538 20.7702 521.515 20.564 521.477 20.4215C521.444 20.2789 521.423 20.158 521.432 20.151C521.437 20.144 522.428 20.0401 523.626 19.9219C524.824 19.8002 525.798 19.696 525.789 19.6852C525.776 19.6743 521.847 19.4838 521.135 19.4612C521.019 19.4592 520.974 19.4229 520.825 19.2359C520.729 19.1136 520.646 19.0022 520.637 18.9879C520.633 18.9772 521.373 18.6348 522.284 18.2279C524.103 17.4176 524.252 17.3457 523.901 17.4426C523.779 17.4796 522.844 17.7122 521.823 17.9647L519.97 18.4195L519.602 18.1933C519.403 18.0693 519.172 17.9377 519.092 17.9079C519.012 17.8747 518.945 17.8416 518.946 17.8274C518.946 17.8168 519.238 17.2327 519.595 16.529C519.951 15.8253 520.239 15.2446 520.234 15.2375C520.226 15.2338 519.792 15.6949 519.263 16.2644C518.739 16.8339 518.25 17.3579 518.182 17.4278L518.059 17.5569L517.845 17.5037C517.725 17.4732 517.434 17.4257 517.202 17.397L516.782 17.3473L515.643 15.7952C515.017 14.9401 514.501 14.2465 514.496 14.2535C514.487 14.2605 514.771 14.9501 515.128 15.7936C515.482 16.6334 515.774 17.3232 515.774 17.3303C515.774 17.3374 515.707 17.3505 515.63 17.3634C515.361 17.4014 515.037 17.4847 514.771 17.5831L514.514 17.6816L512.611 16.9008C510.614 16.0793 510.067 15.8608 510.066 15.882C510.066 15.8891 510.891 16.3785 511.898 16.9669C512.9 17.5551 513.751 18.0555 513.787 18.081C513.84 18.1209 513.83 18.1491 513.73 18.2787C513.67 18.3629 513.587 18.4963 513.559 18.5775C513.526 18.6621 513.48 18.7287 513.462 18.7284C513.44 18.728 512.624 18.7711 511.647 18.822C510.67 18.8729 509.854 18.9053 509.832 18.8943C509.81 18.8832 509.793 18.8013 509.795 18.7126C509.799 18.4608 509.679 17.8378 509.564 17.5058C509.509 17.3417 509.246 16.7269 508.983 16.1405C508.067 14.1166 507.573 12.8983 507.259 11.8817C507.114 11.4038 507.086 11.2507 507.062 10.7606C507.045 10.4481 507.006 10.1103 506.972 10.0139C506.81 9.53924 506.504 9.06571 506.051 8.58257C505.902 8.42746 505.752 8.26522 505.712 8.22201C505.655 8.15713 505.652 8.07902 505.69 7.66808L505.739 7.18981L505.893 7.07889C506.092 6.93679 506.123 6.74919 505.969 6.57274C505.929 6.5224 505.881 6.44707 505.864 6.40772C505.838 6.33635 505.856 6.32953 506.116 6.31265C506.906 6.25857 507.549 6.07071 507.728 5.84661C507.901 5.63309 507.839 5.33751 507.566 5.05968C507.456 4.94782 507.43 4.88706 507.433 4.74871C507.436 4.52877 507.496 4.41978 507.673 4.29147L507.818 4.19101L507.697 4.18897C507.603 4.18738 507.555 4.15817 507.498 4.07915C507.432 3.98223 507.405 3.97114 507.28 3.98676C507.105 4.00864 506.846 3.92267 506.781 3.82221C506.737 3.7576 506.719 3.75375 506.584 3.79405C506.508 3.82115 506.266 3.849 506.05 3.85601L505.656 3.8742L505.663 3.48043L505.669 3.08666L505.823 2.98281C506.063 2.82363 506.26 2.56437 506.309 2.34518C506.367 2.08713 506.445 1.9749 506.832 1.60174C507.301 1.1519 507.356 1.08541 507.404 0.894606C507.428 0.802751 507.47 0.679269 507.498 0.626509C507.526 0.570203 507.549 0.488992 507.55 0.442875C507.552 0.350642 507.426 0.103678 507.377 0.102847C507.363 0.10262 507.313 0.158548 507.272 0.225269ZM511.801 19.2504C512.454 19.2898 513.089 19.336 513.21 19.3487L513.433 19.3702L513.501 19.6091C513.539 19.741 513.564 19.855 513.555 19.8619C513.546 19.8689 512.958 19.9654 512.248 20.0741L510.955 20.2758L510.823 20.1458C510.598 19.9185 510.355 19.7441 510.23 19.7206C510.096 19.6971 509.947 19.4888 509.893 19.2537L509.864 19.1184L510.24 19.1495C510.445 19.1637 511.148 19.211 511.801 19.2504ZM513.71 20.7446C513.717 20.8583 513.705 21.0603 513.68 21.1983C513.66 21.3399 513.656 21.5953 513.679 21.8015C513.71 22.0965 513.736 22.168 513.815 22.219C513.944 22.3063 514.127 22.3058 514.277 22.2161C514.385 22.1505 514.394 22.1507 514.393 22.211C514.391 22.3529 513.41 23.6918 513.311 23.6937C513.208 23.6919 512.73 23.3681 512.377 23.057C511.931 22.6697 511.77 22.4222 511.809 22.1993C511.834 22.0684 511.817 22.0078 511.704 21.832C511.625 21.71 511.552 21.542 511.54 21.4283C511.524 21.318 511.443 21.0967 511.356 20.9355C511.273 20.7744 511.204 20.6384 511.209 20.6385C511.227 20.6317 513.284 20.5458 513.49 20.5421L513.696 20.5421L513.71 20.7446Z"
     stroke="black"
     stroke-opacity="0.3"
     stroke-width="2.2"
     mask="url(#path-4-inside-1_0_1)"
     id="path6" />
  <g
     filter="url(#filter2_d_0_1)"
     id="g7">
    <path
       d="M273 112.051C268.51 113.811 263.293 115.075 257.347 115.845C251.401 116.615 245.88 117 240.784 117C224.281 117 211.358 113.096 202.015 105.287C192.672 97.479 188 85.4915 188 69.3248C188 52.8282 192.914 40.5108 202.743 32.3724C212.572 24.1242 226.405 20 244.242 20C252.736 20 261.594 21.0448 270.816 23.1343C270.816 25.3339 270.573 28.6332 270.088 33.0323C269.602 37.3214 269.117 40.3458 268.632 42.1054H257.165C248.792 42.1054 242.179 42.2704 237.325 42.6003C232.593 42.8203 229.742 43.3152 228.771 44.085C226.951 45.6247 225.555 48.7591 224.585 53.4881C223.614 58.1071 223.128 62.5612 223.128 66.8503C223.128 74.3288 224.16 80.1026 226.223 84.1718C228.286 88.1309 230.894 90.7704 234.049 92.0901C237.083 93.4099 242.119 94.0697 249.156 94.0697C254.738 94.0697 262.019 93.6298 270.998 92.75L273 112.051Z"
       fill="url(#paint1_linear_0_1)"
       id="path7" />
  </g>
  <g
     filter="url(#filter3_d_0_1)"
     id="g8">
    <path
       d="M163.38 85.02V115.05H133.68V85.35L102 21H132.195L144.735 51.525C146.055 54.605 147.265 57.85 148.365 61.26H148.695C149.905 57.52 151.115 54.165 152.325 51.195L164.7 21H194.73L163.38 85.02Z"
       fill="url(#paint2_linear_0_1)"
       id="path8" />
  </g>
  <g
     filter="url(#filter4_d_0_1)"
     id="g9">
    <path
       d="M32.7819 77.0702V115H5V21H33.1146L58.2348 58.9298C62.0055 64.5368 64.8891 69.2643 66.8854 73.1123H67.3845V57.2807V21H95V115H66.719L40.9335 75.4211L33.4473 64.207H32.9482L32.7819 77.0702Z"
       fill="url(#paint3_linear_0_1)"
       id="path9" />
  </g>
  <g
     filter="url(#filter5_d_0_1)"
     id="g10">
    <path
       fill-rule="evenodd"
       clip-rule="evenodd"
       d="M273 112.681L272.275 112.969C267.745 114.771 262.507 116.056 256.573 116.835C250.672 117.611 245.18 118 240.099 118C223.649 118 210.622 114.047 201.16 106.023C191.652 97.9586 187 85.6551 187 69.3248C187 52.6564 191.896 40.0267 201.878 31.6371C211.823 23.1684 225.75 19 243.506 19C251.975 19 260.792 20.0571 269.955 22.1642L270.779 22.3535V23.1342C270.779 25.3855 270.535 28.7254 270.056 33.1316L270.056 33.1342C269.577 37.424 269.093 40.5119 268.594 42.3478L268.388 43.1051H256.24C248.001 43.1051 241.516 43.27 236.772 43.5972L236.76 43.5981L236.747 43.5987C234.438 43.7076 232.626 43.8832 231.291 44.1183C229.914 44.3609 229.236 44.6373 228.988 44.8288C227.479 46.1358 226.155 48.9754 225.205 53.6709L225.204 53.6751C224.259 58.2383 223.789 62.6296 223.789 66.8503C223.789 74.2657 224.8 79.8708 226.736 83.7494C228.701 87.5759 231.119 89.9939 233.918 91.1825L233.926 91.1856L233.933 91.1889C236.687 92.4048 241.437 93.07 248.349 93.07C253.794 93.07 260.925 92.6341 269.754 91.7561L270.85 91.6471L273 112.681ZM225.751 84.1718C223.718 80.1027 222.702 74.3288 222.702 66.8503C222.702 62.5612 223.18 58.1071 224.137 53.488C225.093 48.759 226.468 45.6246 228.262 44.0849C229.218 43.3151 232.028 42.8202 236.691 42.6002C241.474 42.2703 247.99 42.1053 256.24 42.1053H267.539C268.018 40.3457 268.496 37.3213 268.974 33.0322C269.453 28.633 269.692 25.3337 269.692 23.1342C260.605 21.0446 251.876 19.9998 243.506 19.9998C225.93 19.9998 212.299 24.124 202.614 32.3723C192.929 40.5107 188.087 52.8282 188.087 69.3248C188.087 85.4916 192.69 97.4791 201.897 105.288C211.104 113.096 223.838 117 240.099 117C245.121 117 250.561 116.615 256.42 115.845C262.278 115.076 267.42 113.811 271.844 112.051L269.871 92.7501C269.871 92.7501 269.871 92.7501 269.871 92.7501C269.508 92.7862 269.147 92.8216 268.79 92.8562C260.437 93.6653 253.623 94.0698 248.349 94.0698C241.414 94.0698 236.452 93.41 233.463 92.0902C230.354 90.7705 227.783 88.131 225.751 84.1718Z"
       fill="url(#paint4_linear_0_1)"
       fill-opacity="0.7"
       shape-rendering="crispEdges"
       id="path10" />
  </g>
  <g
     filter="url(#filter6_d_0_1)"
     id="g11">
    <path
       fill-rule="evenodd"
       clip-rule="evenodd"
       d="M162.987 85.02L194.337 21H164.307L151.932 51.195C150.842 53.8694 149.753 56.8561 148.663 60.1548C148.556 60.4806 148.448 60.8093 148.34 61.1411C148.328 61.1807 148.315 61.2203 148.302 61.26H147.972C147.959 61.2202 147.946 61.1805 147.933 61.1408C147.827 60.8109 147.719 60.4827 147.61 60.1559C146.608 57.1478 145.519 54.2708 144.342 51.525L131.802 21H101.607L133.287 85.35V115.05H162.987V85.02ZM132.287 85.5828V116.05H163.987V85.2517L195.94 20H163.636L151.007 50.8158L151.006 50.8177C150.047 53.172 149.089 55.7616 148.133 58.5857C147.243 56.0069 146.287 53.5243 145.264 51.1381C145.263 51.1358 145.262 51.1334 145.261 51.1311L132.472 20H100L132.287 85.5828Z"
       fill="url(#paint5_linear_0_1)"
       fill-opacity="0.7"
       shape-rendering="crispEdges"
       id="path11" />
  </g>
  <g
     filter="url(#filter7_d_0_1)"
     id="g12">
    <path
       fill-rule="evenodd"
       clip-rule="evenodd"
       d="M32.555 78.1L32.72 65.23H33.215L40.64 76.45L66.215 116.05H94.265V22H66.875V74.14H66.38C66.2176 73.8242 66.0493 73.5025 65.875 73.1748C63.9249 69.5081 61.2332 65.0998 57.8 59.95L32.885 22H5V116.05H32.555V78.1ZM58.632 59.3953L33.4247 21H4V117.05H33.555V78.1L33.6877 67.7563L39.8 76.9925L39.8061 77.0019L65.6704 117.05H95.265V21H65.875V71.0849C64.0034 67.7261 61.5882 63.8297 58.6345 59.3989C58.6337 59.3977 58.6329 59.3965 58.632 59.3953Z"
       fill="url(#paint6_linear_0_1)"
       fill-opacity="0.7"
       shape-rendering="crispEdges"
       id="path12" />
  </g>
  <g
     filter="url(#filter8_d_0_1)"
     id="g13">
    <path
       d="M488.905 70H471.473L461.651 51.8171C461.474 51.5325 461.002 50.7358 460.235 49.4268C459.527 48.1179 458.731 46.8658 457.846 45.6707V70H441.918V21.3414H457.846V43.4512C458.849 42.3699 459.704 41.2032 460.412 39.9512C461.179 38.6423 461.621 37.874 461.739 37.6463L471.207 21.3414H488.02L477.933 37.6463C477.756 37.874 477.372 38.4715 476.782 39.439C476.192 40.4065 475.543 41.3171 474.835 42.1707C474.187 42.9675 473.479 43.7073 472.712 44.3902C473.774 45.3577 474.629 46.3252 475.278 47.2927C475.986 48.2032 476.782 49.4268 477.667 50.9634L488.905 70Z"
       fill="#586359"
       id="path13" />
  </g>
  <g
     filter="url(#filter9_d_0_1)"
     id="g14">
    <path
       d="M436.425 70H419.701L416.692 57.7073C416.574 57.2521 416.367 56.4838 416.073 55.4025C415.837 54.2642 415.542 53.439 415.188 52.9268C414.834 52.3577 414.332 51.9878 413.683 51.8171C412.032 51.874 409.613 51.9025 406.427 51.9025V70H390.5V21.7683C397.638 21.2561 404.304 21 410.498 21C416.102 21 420.644 21.4553 424.125 22.3659C427.605 23.2195 430.201 24.7276 431.912 26.8902C433.682 28.9959 434.567 31.8984 434.567 35.5976C434.567 39.0691 433.741 41.8008 432.089 43.7927C430.437 45.7277 427.782 46.8943 424.125 47.2927V47.8049C426.19 47.9756 427.9 48.6301 429.257 49.7683C430.673 50.8496 431.617 52.2439 432.089 53.9512L436.425 70ZM406.427 42.2561C406.958 42.313 407.991 42.3415 409.524 42.3415C414.067 42.3415 416.721 41.9716 417.488 41.2317C418.196 40.5488 418.55 38.9553 418.55 36.4512C418.55 34.1179 417.901 32.5244 416.603 31.6707C415.365 30.8171 413.3 30.3902 410.409 30.3902C409.76 30.3902 408.433 30.4472 406.427 30.561V42.2561Z"
       fill="#586359"
       id="path14" />
  </g>
  <g
     filter="url(#filter10_d_0_1)"
     id="g15">
    <path
       d="M367.074 59.3293H352.385L349.731 70H333.449L349.731 21.3414H370.525L386.099 70H369.729L367.074 59.3293ZM359.641 31.8414L354.421 49.8536H364.951L359.995 31.8414H359.641Z"
       fill="#586359"
       id="path15" />
  </g>
  <g
     filter="url(#filter11_d_0_1)"
     id="g16">
    <path
       d="M310.352 21.0853C315.131 21.0853 319.172 21.5122 322.475 22.3658C325.779 23.2195 328.404 24.8699 330.351 27.317C332.356 29.7073 333.359 33.1504 333.359 37.6463C333.359 39.6382 333.035 41.687 332.386 43.7927C331.796 45.8414 331.029 47.6341 330.085 49.1707C329.2 50.7073 328.404 51.7032 327.696 52.1585C326.87 52.7276 325.041 53.1829 322.21 53.5244C319.378 53.8089 316.045 53.9512 312.21 53.9512C310.854 53.9512 308.759 53.8943 305.928 53.7805V70H290V21.3414C296.194 21.1707 302.978 21.0853 310.352 21.0853ZM316.989 43.0244C317.579 42.2845 317.874 40.8048 317.874 38.5853C317.874 35.6829 317.225 33.6341 315.927 32.439C314.688 31.2439 312.505 30.6463 309.379 30.6463C308.317 30.6463 307.167 30.7317 305.928 30.9024V43.878C306.518 43.9349 307.668 43.9634 309.379 43.9634C313.921 43.9634 316.458 43.6504 316.989 43.0244Z"
       fill="#586359"
       id="path16" />
  </g>
  <g
     filter="url(#filter12_d_0_1)"
     id="g17">
    <path
       fill-rule="evenodd"
       clip-rule="evenodd"
       d="M489 71H470.269L460.741 52.5491C460.555 52.2351 460.108 51.4445 459.408 50.1943L459.4 50.1798L459.392 50.1651C459.261 49.9128 459.128 49.6628 458.991 49.415V71H442V21H458.991V40.868C459.194 40.5456 459.386 40.2166 459.567 39.8812L459.571 39.8746L459.575 39.8681C460.306 38.5629 460.706 37.8339 460.803 37.638L460.814 37.6172L470.039 21H488.206L477.776 38.6341L477.745 38.6759C477.618 38.8463 477.287 39.3806 476.72 40.3528C476.141 41.346 475.503 42.2826 474.806 43.162C474.376 43.7151 473.918 44.2421 473.435 44.7428C474.151 45.4961 474.761 46.2592 475.26 47.0333C475.959 47.9775 476.727 49.2171 477.565 50.7377C477.565 50.739 477.566 50.7403 477.567 50.7417L489 71ZM474.454 47.6006C473.991 46.8787 473.417 46.1567 472.732 45.4348C472.51 45.202 472.278 44.9692 472.033 44.7364C472.274 44.512 472.509 44.2813 472.738 44.0444C473.196 43.57 473.629 43.0705 474.037 42.5461C474.705 41.7037 475.317 40.8051 475.874 39.8503C476.43 38.8956 476.792 38.3059 476.959 38.0813L486.476 21.9911H470.614L461.682 38.0813C461.571 38.3059 461.153 39.0641 460.43 40.3558C460.006 41.1395 459.526 41.8894 458.991 42.6053C458.682 43.018 458.355 43.4195 458.009 43.8097V21.9911H442.982V70.0089H458.009V46C458.35 46.4822 458.677 46.9738 458.991 47.4748C459.444 48.1991 459.868 48.9431 460.263 49.7066C460.986 50.9983 461.431 51.7846 461.598 52.0654L470.865 70.0089H487.31L476.708 51.223C475.874 49.7066 475.122 48.4992 474.454 47.6006Z"
       fill="#265526"
       fill-opacity="0.9"
       shape-rendering="crispEdges"
       id="path17" />
  </g>
  <g
     filter="url(#filter13_d_0_1)"
     id="g18">
    <path
       fill-rule="evenodd"
       clip-rule="evenodd"
       d="M436 71H418.01L414.968 57.9488C414.967 57.9467 414.967 57.9445 414.966 57.9424C414.855 57.493 414.661 56.7322 414.381 55.6563L414.374 55.6272L414.368 55.5977C414.15 54.4948 413.899 53.8273 413.672 53.4826L413.659 53.4627L413.647 53.4422C413.463 53.1317 413.233 52.9365 412.931 52.8254C411.53 52.8728 409.601 52.899 407.148 52.9044V71H390V20.8401L390.918 20.7709C397.735 20.2573 404.106 20 410.032 20C415.409 20 419.828 20.4572 423.258 21.3986C426.719 22.2912 429.403 23.8941 431.2 26.2723C433.066 28.6109 433.939 31.7601 433.939 35.5992C433.939 39.2164 433.12 42.1959 431.363 44.4202L431.359 44.4258L431.354 44.4313C430.141 45.9233 428.464 46.9718 426.382 47.6229C427.163 47.9718 427.879 48.428 428.526 48.9947C430.034 50.2101 431.045 51.7858 431.547 53.6911L431.548 53.6965L436 71ZM427.893 49.7676C426.968 48.9522 425.869 48.3852 424.598 48.0664C424.112 47.9445 423.601 47.859 423.064 47.8096C423.045 47.8079 423.026 47.8062 423.007 47.8045V47.2924C423.021 47.2907 423.036 47.289 423.05 47.2873C423.596 47.2237 424.119 47.1411 424.618 47.0396C427.28 46.4976 429.27 45.4155 430.589 43.793C432.162 41.8014 432.948 39.0702 432.948 35.5992C432.948 31.9007 432.106 28.9987 430.421 26.8934C428.792 24.7311 426.32 23.2233 423.007 22.3698C419.693 21.4593 415.368 21.0041 410.032 21.0041C404.134 21.0041 397.787 21.2602 390.991 21.7723V69.9959H406.156V51.9014C409.189 51.9014 411.492 51.8729 413.065 51.816C413.683 51.9867 414.16 52.3566 414.497 52.9256C414.834 53.4377 415.115 54.2627 415.34 55.4008C415.621 56.4819 415.817 57.25 415.929 57.7053L418.794 69.9959H434.717L430.589 53.9498C430.14 52.2428 429.241 50.8487 427.893 49.7676ZM415.278 32.4965L415.269 32.4902C414.352 31.8266 412.652 31.3969 409.948 31.3969C409.465 31.3969 408.537 31.4344 407.148 31.512V41.3121C407.64 41.3288 408.289 41.3379 409.105 41.3379C411.248 41.3379 412.907 41.2458 414.103 41.0708C414.701 40.9832 415.157 40.8786 415.487 40.7661C415.834 40.648 415.962 40.548 415.987 40.5224C416.125 40.3827 416.324 40.0383 416.477 39.315C416.625 38.6139 416.708 37.6672 416.708 36.4527C416.708 34.2649 416.128 33.084 415.287 32.5027L415.278 32.4965ZM406.156 42.2566V30.5636C408.066 30.4498 409.33 30.3928 409.948 30.3928C412.7 30.3928 414.666 30.8195 415.845 31.6731C417.081 32.5266 417.699 34.1198 417.699 36.4527C417.699 38.9564 417.362 40.5496 416.688 41.2324C415.958 41.9721 413.43 42.342 409.105 42.342C407.645 42.342 406.662 42.3135 406.156 42.2566Z"
       fill="#265526"
       fill-opacity="0.9"
       shape-rendering="crispEdges"
       id="path18" />
  </g>
  <g
     filter="url(#filter14_d_0_1)"
     id="g19">
    <path
       fill-rule="evenodd"
       clip-rule="evenodd"
       d="M369.017 70.0089L366.482 59.4787H352.452L349.917 70.0089H334.366L349.917 21.9911H369.778L384.652 70.0089H369.017ZM353.236 60.4698L350.7 71H333L349.193 21H370.511L386 71H368.233L365.698 60.4698H353.236ZM354.396 50.1278H364.453L359.72 32.3528H359.382L354.396 50.1278ZM359.531 35.5041L355.706 49.1368H363.161L359.531 35.5041Z"
       fill="#265526"
       fill-opacity="0.9"
       shape-rendering="crispEdges"
       id="path19" />
  </g>
  <g
     filter="url(#filter15_d_0_1)"
     id="g20">
    <path
       fill-rule="evenodd"
       clip-rule="evenodd"
       d="M321.577 54.4931L321.566 54.4941C318.844 54.7837 315.654 54.927 312.002 54.927C310.869 54.927 309.214 54.8835 307.042 54.7974V71H290V20.2848L290.957 20.2569C296.829 20.0856 303.258 20 310.244 20C314.82 20 318.736 20.432 321.97 21.3167C325.286 22.2235 327.959 23.9909 329.942 26.6243C332.029 29.263 333 32.9678 333 37.5918C333 39.6904 332.677 41.836 332.041 44.0255C331.465 46.1382 330.712 48.0112 329.771 49.6342C328.932 51.1752 328.089 52.3538 327.214 52.9546C326.674 53.3439 325.91 53.6343 325.018 53.8692C324.097 54.1119 322.949 54.3179 321.587 54.4918L321.577 54.4931ZM328.917 49.1335C329.81 47.5946 330.536 45.7992 331.094 43.7474C331.708 41.6385 332.015 39.5866 332.015 37.5918C332.015 33.089 331.066 29.6408 329.168 27.2469C327.326 24.7961 324.842 23.1432 321.716 22.2882C318.589 21.4333 314.766 21.0058 310.244 21.0058C303.266 21.0058 296.847 21.0913 290.985 21.2623V69.9942H306.057V53.7502C306.397 53.7647 306.725 53.7782 307.042 53.7908C309.228 53.8777 310.881 53.9212 312.002 53.9212C315.631 53.9212 318.785 53.7787 321.464 53.4937C324.144 53.1518 325.874 52.6958 326.656 52.1258C327.326 51.6699 328.079 50.6724 328.917 49.1335ZM314.831 33.0961L314.823 33.0878C313.935 32.1818 312.208 31.587 309.323 31.587C308.613 31.587 307.854 31.6321 307.042 31.7237V42.8833C307.604 42.9023 308.361 42.9125 309.323 42.9125C311.457 42.9125 313.083 42.8343 314.222 42.6856C314.793 42.6109 315.21 42.5225 315.493 42.4306C315.668 42.374 315.751 42.3289 315.78 42.3124C315.916 42.1066 316.069 41.7359 316.185 41.1208C316.308 40.4643 316.376 39.6068 316.376 38.5322C316.376 35.7236 315.775 34.0166 314.839 33.1042L314.831 33.0961ZM316.524 42.9779C316.022 43.6049 313.621 43.9184 309.323 43.9184C307.704 43.9184 306.616 43.8899 306.057 43.8329V30.8377C307.23 30.6667 308.318 30.5812 309.323 30.5812C312.282 30.5812 314.347 31.1797 315.519 32.3766C316.747 33.5735 317.361 35.6254 317.361 38.5322C317.361 40.7551 317.082 42.237 316.524 42.9779Z"
       fill="#265526"
       fill-opacity="0.9"
       shape-rendering="crispEdges"
       id="path20" />
  </g>
  <g
     filter="url(#filter16_d_0_1)"
     id="g23">
    <mask
       id="path-19-outside-2_0_1"
       maskUnits="userSpaceOnUse"
       x="344"
       y="79"
       width="200"
       height="40"
       fill="black">
      <rect
         fill="white"
         x="344"
         y="79"
         width="200"
         height="40"
         id="rect20" />
      <path
         d="M345.359 80.95H371.944V89.01H357.059V96.355H369.344V103.44H357.059V118H345.359V80.95ZM375.959 80.95H387.659V118H375.959V80.95ZM405.094 103.05V118H394.239V80.95H405.224L415.039 95.9C416.512 98.11 417.639 99.9733 418.419 101.49H418.614V95.25V80.95H429.404V118H418.354L408.279 102.4L405.354 97.98H405.159L405.094 103.05ZM448.816 80.95C453.886 80.95 458.024 81.4267 461.231 82.38C464.481 83.3333 466.994 85.1317 468.771 87.775C470.591 90.4183 471.501 94.21 471.501 99.15C471.501 104.437 470.548 108.467 468.641 111.24C466.734 113.97 464.178 115.79 460.971 116.7C457.764 117.567 453.713 118 448.816 118H435.816V80.95H448.816ZM457.526 109.16C458.046 108.64 458.414 107.297 458.631 105.13C458.848 102.963 458.956 100.97 458.956 99.15C458.956 96.8533 458.783 95.0333 458.436 93.69C458.133 92.3033 457.569 91.1983 456.746 90.375C455.446 88.945 453.214 88.23 450.051 88.23C449.488 88.23 448.643 88.2733 447.516 88.36V109.94C448.253 110.027 449.401 110.07 450.961 110.07C452.564 110.07 453.973 110.005 455.186 109.875C456.443 109.702 457.223 109.463 457.526 109.16ZM476.37 80.95H503.345V88.75H488.07V95.51H500.94V102.53H488.07V110.07H503.28V118H476.37V80.95ZM542.041 118H529.756L527.546 108.64C527.459 108.293 527.308 107.708 527.091 106.885C526.918 106.018 526.701 105.39 526.441 105C526.181 104.567 525.813 104.285 525.336 104.155C524.123 104.198 522.346 104.22 520.006 104.22V118H508.306V81.275C513.549 80.885 518.446 80.69 522.996 80.69C527.113 80.69 530.449 81.0367 533.006 81.73C535.563 82.38 537.469 83.5283 538.726 85.175C540.026 86.7783 540.676 88.9883 540.676 91.805C540.676 94.4483 540.069 96.5283 538.856 98.045C537.643 99.5183 535.693 100.407 533.006 100.71V101.1C534.523 101.23 535.779 101.728 536.776 102.595C537.816 103.418 538.509 104.48 538.856 105.78L542.041 118ZM520.006 96.875C520.396 96.9183 521.154 96.94 522.281 96.94C525.618 96.94 527.568 96.6583 528.131 96.095C528.651 95.575 528.911 94.3617 528.911 92.455C528.911 90.6783 528.434 89.465 527.481 88.815C526.571 88.165 525.054 87.84 522.931 87.84C522.454 87.84 521.479 87.8833 520.006 87.97V96.875Z"
         id="path21" />
    </mask>
    <path
       d="M345.359 80.95H371.944V89.01H357.059V96.355H369.344V103.44H357.059V118H345.359V80.95ZM375.959 80.95H387.659V118H375.959V80.95ZM405.094 103.05V118H394.239V80.95H405.224L415.039 95.9C416.512 98.11 417.639 99.9733 418.419 101.49H418.614V95.25V80.95H429.404V118H418.354L408.279 102.4L405.354 97.98H405.159L405.094 103.05ZM448.816 80.95C453.886 80.95 458.024 81.4267 461.231 82.38C464.481 83.3333 466.994 85.1317 468.771 87.775C470.591 90.4183 471.501 94.21 471.501 99.15C471.501 104.437 470.548 108.467 468.641 111.24C466.734 113.97 464.178 115.79 460.971 116.7C457.764 117.567 453.713 118 448.816 118H435.816V80.95H448.816ZM457.526 109.16C458.046 108.64 458.414 107.297 458.631 105.13C458.848 102.963 458.956 100.97 458.956 99.15C458.956 96.8533 458.783 95.0333 458.436 93.69C458.133 92.3033 457.569 91.1983 456.746 90.375C455.446 88.945 453.214 88.23 450.051 88.23C449.488 88.23 448.643 88.2733 447.516 88.36V109.94C448.253 110.027 449.401 110.07 450.961 110.07C452.564 110.07 453.973 110.005 455.186 109.875C456.443 109.702 457.223 109.463 457.526 109.16ZM476.37 80.95H503.345V88.75H488.07V95.51H500.94V102.53H488.07V110.07H503.28V118H476.37V80.95ZM542.041 118H529.756L527.546 108.64C527.459 108.293 527.308 107.708 527.091 106.885C526.918 106.018 526.701 105.39 526.441 105C526.181 104.567 525.813 104.285 525.336 104.155C524.123 104.198 522.346 104.22 520.006 104.22V118H508.306V81.275C513.549 80.885 518.446 80.69 522.996 80.69C527.113 80.69 530.449 81.0367 533.006 81.73C535.563 82.38 537.469 83.5283 538.726 85.175C540.026 86.7783 540.676 88.9883 540.676 91.805C540.676 94.4483 540.069 96.5283 538.856 98.045C537.643 99.5183 535.693 100.407 533.006 100.71V101.1C534.523 101.23 535.779 101.728 536.776 102.595C537.816 103.418 538.509 104.48 538.856 105.78L542.041 118ZM520.006 96.875C520.396 96.9183 521.154 96.94 522.281 96.94C525.618 96.94 527.568 96.6583 528.131 96.095C528.651 95.575 528.911 94.3617 528.911 92.455C528.911 90.6783 528.434 89.465 527.481 88.815C526.571 88.165 525.054 87.84 522.931 87.84C522.454 87.84 521.479 87.8833 520.006 87.97V96.875Z"
       fill="url(#paint7_linear_0_1)"
       shape-rendering="crispEdges"
       id="path22" />
    <path
       d="M345.359 80.95V79.95H344.359V80.95H345.359ZM371.944 80.95H372.944V79.95H371.944V80.95ZM371.944 89.01V90.01H372.944V89.01H371.944ZM357.059 89.01V88.01H356.059V89.01H357.059ZM357.059 96.355H356.059V97.355H357.059V96.355ZM369.344 96.355H370.344V95.355H369.344V96.355ZM369.344 103.44V104.44H370.344V103.44H369.344ZM357.059 103.44V102.44H356.059V103.44H357.059ZM357.059 118V119H358.059V118H357.059ZM345.359 118H344.359V119H345.359V118ZM345.359 81.95H371.944V79.95H345.359V81.95ZM370.944 80.95V89.01H372.944V80.95H370.944ZM371.944 88.01H357.059V90.01H371.944V88.01ZM356.059 89.01V96.355H358.059V89.01H356.059ZM357.059 97.355H369.344V95.355H357.059V97.355ZM368.344 96.355V103.44H370.344V96.355H368.344ZM369.344 102.44H357.059V104.44H369.344V102.44ZM356.059 103.44V118H358.059V103.44H356.059ZM357.059 117H345.359V119H357.059V117ZM346.359 118V80.95H344.359V118H346.359ZM375.959 80.95V79.95H374.959V80.95H375.959ZM387.659 80.95H388.659V79.95H387.659V80.95ZM387.659 118V119H388.659V118H387.659ZM375.959 118H374.959V119H375.959V118ZM375.959 81.95H387.659V79.95H375.959V81.95ZM386.659 80.95V118H388.659V80.95H386.659ZM387.659 117H375.959V119H387.659V117ZM376.959 118V80.95H374.959V118H376.959ZM405.094 103.05L404.094 103.037V103.05H405.094ZM405.094 118V119H406.094V118H405.094ZM394.239 118H393.239V119H394.239V118ZM394.239 80.95V79.95H393.239V80.95H394.239ZM405.224 80.95L406.06 80.4012L405.764 79.95H405.224V80.95ZM415.039 95.9L414.203 96.4488L414.207 96.4547L415.039 95.9ZM418.419 101.49L417.529 101.947L417.809 102.49H418.419V101.49ZM418.614 101.49V102.49H419.614V101.49H418.614ZM418.614 80.95V79.95H417.614V80.95H418.614ZM429.404 80.95H430.404V79.95H429.404V80.95ZM429.404 118V119H430.404V118H429.404ZM418.354 118L417.514 118.543L417.809 119H418.354V118ZM408.279 102.4L409.119 101.857L409.113 101.848L408.279 102.4ZM405.354 97.98L406.188 97.4281L405.891 96.98H405.354V97.98ZM405.159 97.98V96.98H404.172L404.159 97.9672L405.159 97.98ZM404.094 103.05V118H406.094V103.05H404.094ZM405.094 117H394.239V119H405.094V117ZM395.239 118V80.95H393.239V118H395.239ZM394.239 81.95H405.224V79.95H394.239V81.95ZM404.388 81.4988L414.203 96.4488L415.875 95.3512L406.06 80.4012L404.388 81.4988ZM414.207 96.4547C415.669 98.6485 416.773 100.477 417.529 101.947L419.308 101.033C418.504 99.4694 417.355 97.5715 415.871 95.3453L414.207 96.4547ZM418.419 102.49H418.614V100.49H418.419V102.49ZM419.614 101.49V95.25H417.614V101.49H419.614ZM419.614 95.25V80.95H417.614V95.25H419.614ZM418.614 81.95H429.404V79.95H418.614V81.95ZM428.404 80.95V118H430.404V80.95H428.404ZM429.404 117H418.354V119H429.404V117ZM419.194 117.457L409.119 101.857L407.439 102.943L417.514 118.543L419.194 117.457ZM409.113 101.848L406.188 97.4281L404.52 98.5319L407.445 102.952L409.113 101.848ZM405.354 96.98H405.159V98.98H405.354V96.98ZM404.159 97.9672L404.094 103.037L406.094 103.063L406.159 97.9928L404.159 97.9672ZM461.231 82.38L460.946 83.3385L460.949 83.3396L461.231 82.38ZM468.771 87.775L467.941 88.3329L467.947 88.3421L468.771 87.775ZM468.641 111.24L469.461 111.813L469.465 111.807L468.641 111.24ZM460.971 116.7L461.232 117.665L461.244 117.662L460.971 116.7ZM435.816 118H434.816V119H435.816V118ZM435.816 80.95V79.95H434.816V80.95H435.816ZM457.526 109.16L456.819 108.453L456.819 108.453L457.526 109.16ZM458.631 105.13L457.636 105.03L457.636 105.03L458.631 105.13ZM458.436 93.69L457.459 93.9037L457.463 93.9219L457.468 93.9399L458.436 93.69ZM456.746 90.375L456.006 91.0477L456.022 91.0653L456.039 91.0821L456.746 90.375ZM447.516 88.36L447.439 87.3629L446.516 87.434V88.36H447.516ZM447.516 109.94H446.516V110.829L447.399 110.933L447.516 109.94ZM455.186 109.875L455.292 110.869L455.308 110.868L455.323 110.866L455.186 109.875ZM448.816 81.95C453.834 81.95 457.866 82.423 460.946 83.3385L461.516 81.4215C458.182 80.4304 453.938 79.95 448.816 79.95V81.95ZM460.949 83.3396C463.991 84.2317 466.303 85.8962 467.941 88.3328L469.601 87.2172C467.685 84.3671 464.971 82.435 461.512 81.4204L460.949 83.3396ZM467.947 88.3421C469.606 90.7509 470.501 94.3108 470.501 99.15H472.501C472.501 94.1092 471.576 90.0858 469.595 87.2079L467.947 88.3421ZM470.501 99.15C470.501 104.341 469.561 108.137 467.817 110.673L469.465 111.807C471.535 108.796 472.501 104.532 472.501 99.15H470.501ZM467.821 110.667C466.047 113.208 463.683 114.891 460.698 115.738L461.244 117.662C464.672 116.689 467.422 114.732 469.461 111.813L467.821 110.667ZM460.71 115.735C457.618 116.57 453.662 117 448.816 117V119C453.763 119 457.91 118.563 461.232 117.665L460.71 115.735ZM448.816 117H435.816V119H448.816V117ZM436.816 118V80.95H434.816V118H436.816ZM435.816 81.95H448.816V79.95H435.816V81.95ZM458.233 109.867C458.683 109.417 458.961 108.741 459.157 108.027C459.361 107.28 459.515 106.341 459.626 105.23L457.636 105.03C457.53 106.085 457.391 106.902 457.228 107.498C457.055 108.128 456.889 108.383 456.819 108.453L458.233 109.867ZM459.626 105.23C459.845 103.036 459.956 101.009 459.956 99.15H457.956C457.956 100.931 457.85 102.891 457.636 105.03L459.626 105.23ZM459.956 99.15C459.956 96.8163 459.781 94.9008 459.404 93.4401L457.468 93.9399C457.784 95.1659 457.956 96.8903 457.956 99.15H459.956ZM459.413 93.4763C459.078 91.9439 458.439 90.6535 457.453 89.6679L456.039 91.0821C456.7 91.7432 457.188 92.6627 457.459 93.9037L459.413 93.4763ZM457.486 89.7023C455.905 87.963 453.322 87.23 450.051 87.23V89.23C453.106 89.23 454.987 89.927 456.006 91.0477L457.486 89.7023ZM450.051 87.23C449.448 87.23 448.571 87.2758 447.439 87.3629L447.593 89.3571C448.714 89.2708 449.527 89.23 450.051 89.23V87.23ZM446.516 88.36V109.94H448.516V88.36H446.516ZM447.399 110.933C448.197 111.027 449.395 111.07 450.961 111.07V109.07C449.407 109.07 448.308 109.026 447.633 108.947L447.399 110.933ZM450.961 111.07C452.59 111.07 454.035 111.004 455.292 110.869L455.079 108.881C453.91 109.006 452.539 109.07 450.961 109.07V111.07ZM455.323 110.866C455.978 110.775 456.545 110.663 457.006 110.523C457.435 110.391 457.902 110.198 458.233 109.867L456.819 108.453C456.846 108.425 456.772 108.503 456.421 108.61C456.102 108.707 455.65 108.801 455.049 108.884L455.323 110.866ZM476.37 80.95V79.95H475.37V80.95H476.37ZM503.345 80.95H504.345V79.95H503.345V80.95ZM503.345 88.75V89.75H504.345V88.75H503.345ZM488.07 88.75V87.75H487.07V88.75H488.07ZM488.07 95.51H487.07V96.51H488.07V95.51ZM500.94 95.51H501.94V94.51H500.94V95.51ZM500.94 102.53V103.53H501.94V102.53H500.94ZM488.07 102.53V101.53H487.07V102.53H488.07ZM488.07 110.07H487.07V111.07H488.07V110.07ZM503.28 110.07H504.28V109.07H503.28V110.07ZM503.28 118V119H504.28V118H503.28ZM476.37 118H475.37V119H476.37V118ZM476.37 81.95H503.345V79.95H476.37V81.95ZM502.345 80.95V88.75H504.345V80.95H502.345ZM503.345 87.75H488.07V89.75H503.345V87.75ZM487.07 88.75V95.51H489.07V88.75H487.07ZM488.07 96.51H500.94V94.51H488.07V96.51ZM499.94 95.51V102.53H501.94V95.51H499.94ZM500.94 101.53H488.07V103.53H500.94V101.53ZM487.07 102.53V110.07H489.07V102.53H487.07ZM488.07 111.07H503.28V109.07H488.07V111.07ZM502.28 110.07V118H504.28V110.07H502.28ZM503.28 117H476.37V119H503.28V117ZM477.37 118V80.95H475.37V118H477.37ZM542.041 118V119H543.335L543.009 117.748L542.041 118ZM529.756 118L528.783 118.23L528.965 119H529.756V118ZM527.546 108.64L528.519 108.41L528.516 108.397L527.546 108.64ZM527.091 106.885L526.111 107.081L526.116 107.111L526.124 107.139L527.091 106.885ZM526.441 105L525.584 105.514L525.596 105.535L525.609 105.555L526.441 105ZM525.336 104.155L525.599 103.19L525.452 103.15L525.3 103.156L525.336 104.155ZM520.006 104.22V103.22H519.006V104.22H520.006ZM520.006 118V119H521.006V118H520.006ZM508.306 118H507.306V119H508.306V118ZM508.306 81.275L508.232 80.2778L507.306 80.3466V81.275H508.306ZM533.006 81.73L532.744 82.6951L532.752 82.6972L532.76 82.6992L533.006 81.73ZM538.726 85.175L537.931 85.7817L537.94 85.7934L537.949 85.8048L538.726 85.175ZM538.856 98.045L539.628 98.6807L539.633 98.6752L539.637 98.6697L538.856 98.045ZM533.006 100.71L532.894 99.7163L532.006 99.8165V100.71H533.006ZM533.006 101.1H532.006V102.018L532.921 102.096L533.006 101.1ZM536.776 102.595L536.12 103.35L536.137 103.365L536.155 103.379L536.776 102.595ZM538.856 105.78L539.824 105.528L539.822 105.522L538.856 105.78ZM520.006 96.875H519.006V97.77L519.896 97.8689L520.006 96.875ZM527.481 88.815L526.9 89.6287L526.909 89.6351L526.918 89.6412L527.481 88.815ZM520.006 87.97L519.947 86.9717L519.006 87.0271V87.97H520.006ZM542.041 117H529.756V119H542.041V117ZM530.729 117.77L528.519 108.41L526.573 108.87L528.783 118.23L530.729 117.77ZM528.516 108.397C528.428 108.044 528.275 107.454 528.058 106.631L526.124 107.139C526.341 107.963 526.491 108.542 526.576 108.883L528.516 108.397ZM528.072 106.689C527.891 105.787 527.644 105.002 527.273 104.445L525.609 105.555C525.758 105.778 525.944 106.249 526.111 107.081L528.072 106.689ZM527.299 104.486C526.909 103.837 526.331 103.39 525.599 103.19L525.073 105.12C525.295 105.18 525.453 105.297 525.584 105.514L527.299 104.486ZM525.3 103.156C524.105 103.198 522.343 103.22 520.006 103.22V105.22C522.349 105.22 524.14 105.198 525.372 105.154L525.3 103.156ZM519.006 104.22V118H521.006V104.22H519.006ZM520.006 117H508.306V119H520.006V117ZM509.306 118V81.275H507.306V118H509.306ZM508.38 82.2722C513.603 81.8838 518.474 81.69 522.996 81.69V79.69C518.418 79.69 513.496 79.8862 508.232 80.2778L508.38 82.2722ZM522.996 81.69C527.067 81.69 530.307 82.034 532.744 82.6951L533.268 80.7649C530.592 80.0393 527.158 79.69 522.996 79.69V81.69ZM532.76 82.6992C535.159 83.3091 536.845 84.3584 537.931 85.7817L539.521 84.5683C538.094 82.6983 535.967 81.4509 533.253 80.7608L532.76 82.6992ZM537.949 85.8048C539.06 87.1747 539.676 89.1345 539.676 91.805H541.676C541.676 88.8422 540.992 86.382 539.503 84.5452L537.949 85.8048ZM539.676 91.805C539.676 94.3027 539.103 96.1355 538.075 97.4203L539.637 98.6697C541.036 96.9211 541.676 94.594 541.676 91.805H539.676ZM538.084 97.4093C537.094 98.6115 535.431 99.4299 532.894 99.7163L533.118 101.704C535.955 101.383 538.191 100.425 539.628 98.6807L538.084 97.4093ZM532.006 100.71V101.1H534.006V100.71H532.006ZM532.921 102.096C534.26 102.211 535.307 102.642 536.12 103.35L537.432 101.84C536.252 100.814 534.786 100.249 533.092 100.104L532.921 102.096ZM536.155 103.379C537.024 104.067 537.598 104.943 537.89 106.038L539.822 105.522C539.421 104.017 538.608 102.77 537.397 101.811L536.155 103.379ZM537.888 106.032L541.073 118.252L543.009 117.748L539.824 105.528L537.888 106.032ZM519.896 97.8689C520.349 97.9193 521.162 97.94 522.281 97.94V95.94C521.147 95.94 520.443 95.9174 520.117 95.8811L519.896 97.8689ZM522.281 97.94C523.969 97.94 525.345 97.8692 526.389 97.7185C526.911 97.6432 527.376 97.5442 527.767 97.4125C528.143 97.2864 528.539 97.1016 528.838 96.8021L527.424 95.3879C527.442 95.37 527.383 95.4317 527.13 95.5168C526.893 95.5964 526.557 95.6735 526.103 95.739C525.197 95.8699 523.93 95.94 522.281 95.94V97.94ZM528.838 96.8021C529.299 96.3412 529.548 95.6842 529.694 95.0045C529.844 94.3027 529.911 93.4455 529.911 92.455H527.911C527.911 93.3711 527.848 94.0739 527.738 94.5855C527.624 95.1191 527.483 95.3288 527.424 95.3879L528.838 96.8021ZM529.911 92.455C529.911 90.5338 529.395 88.9098 528.044 87.9888L526.918 89.6412C527.474 90.0202 527.911 90.8228 527.911 92.455H529.911ZM528.062 88.0013C526.888 87.1621 525.103 86.84 522.931 86.84V88.84C525.006 88.84 526.255 89.1679 526.9 89.6287L528.062 88.0013ZM522.931 86.84C522.42 86.84 521.415 86.8854 519.947 86.9717L520.065 88.9683C521.544 88.8813 522.489 88.84 522.931 88.84V86.84ZM519.006 87.97V96.875H521.006V87.97H519.006Z"
       fill="#265526"
       fill-opacity="0.95"
       mask="url(#path-19-outside-2_0_1)"
       id="path23" />
  </g>
  <g
     filter="url(#filter17_b_0_1)"
     id="g24">
    <path
       d="M296.173 92.4503C295.835 92.0211 296.428 91.4763 296.878 91.7999C300.112 94.1247 303.453 96.1556 306.996 97.7627C311.431 99.8049 316.149 101.163 321.001 101.889C325.854 102.618 330.835 102.728 335.849 102.349C338.031 102.19 340.215 101.935 342.409 101.611C343.782 101.409 344.253 103.251 342.939 103.696C340.765 104.434 338.526 105.022 336.251 105.462C331.017 106.463 325.556 106.645 320.24 105.837C314.93 105.041 309.776 103.241 305.315 100.499C301.766 98.3226 298.643 95.5919 296.173 92.4503Z"
       fill="url(#paint8_linear_0_1)"
       fill-opacity="0.8"
       id="path24" />
  </g>
  <defs
     id="defs76">
    <filter
       id="filter0_i_0_1"
       x="282.814"
       y="77.2233"
       width="60.9014"
       height="41.399"
       filterUnits="userSpaceOnUse"
       color-interpolation-filters="sRGB">
      <feFlood
         flood-opacity="0"
         result="BackgroundImageFix"
         id="feFlood24" />
      <feBlend
         mode="normal"
         in="SourceGraphic"
         in2="BackgroundImageFix"
         result="shape"
         id="feBlend24" />
      <feColorMatrix
         in="SourceAlpha"
         type="matrix"
         values="0 0 0 0 0 0 0 0 0 0 0 0 0 0 0 0 0 0 127 0"
         result="hardAlpha"
         id="feColorMatrix24" />
      <feOffset
         dy="4"
         id="feOffset24" />
      <feGaussianBlur
         stdDeviation="2"
         id="feGaussianBlur24" />
      <feComposite
         in2="hardAlpha"
         operator="arithmetic"
         k2="-1"
         k3="1"
         id="feComposite24" />
      <feColorMatrix
         type="matrix"
         values="0 0 0 0 0 0 0 0 0 0 0 0 0 0 0 0 0 0 0.4 0"
         id="feColorMatrix25" />
      <feBlend
         mode="normal"
         in2="shape"
         result="effect1_innerShadow_0_1"
         id="feBlend25" />
    </filter>
    <filter
       id="filter1_i_0_1"
       x="500.565"
       y="0.102844"
       width="32.823"
       height="80.4023"
       filterUnits="userSpaceOnUse"
       color-interpolation-filters="sRGB">
      <feFlood
         flood-opacity="0"
         result="BackgroundImageFix"
         id="feFlood25" />
      <feBlend
         mode="normal"
         in="SourceGraphic"
         in2="BackgroundImageFix"
         result="shape"
         id="feBlend26" />
      <feColorMatrix
         in="SourceAlpha"
         type="matrix"
         values="0 0 0 0 0 0 0 0 0 0 0 0 0 0 0 0 0 0 127 0"
         result="hardAlpha"
         id="feColorMatrix26" />
      <feOffset
         dy="4"
         id="feOffset26" />
      <feGaussianBlur
         stdDeviation="2"
         id="feGaussianBlur26" />
      <feComposite
         in2="hardAlpha"
         operator="arithmetic"
         k2="-1"
         k3="1"
         id="feComposite26" />
      <feColorMatrix
         type="matrix"
         values="0 0 0 0 0 0 0 0 0 0 0 0 0 0 0 0 0 0 0.32 0"
         id="feColorMatrix27" />
      <feBlend
         mode="normal"
         in2="shape"
         result="effect1_innerShadow_0_1"
         id="feBlend27" />
    </filter>
    <filter
       id="filter2_d_0_1"
       x="184"
       y="20"
       width="93"
       height="105"
       filterUnits="userSpaceOnUse"
       color-interpolation-filters="sRGB">
      <feFlood
         flood-opacity="0"
         result="BackgroundImageFix"
         id="feFlood27" />
      <feColorMatrix
         in="SourceAlpha"
         type="matrix"
         values="0 0 0 0 0 0 0 0 0 0 0 0 0 0 0 0 0 0 127 0"
         result="hardAlpha"
         id="feColorMatrix28" />
      <feOffset
         dy="4"
         id="feOffset28" />
      <feGaussianBlur
         stdDeviation="2"
         id="feGaussianBlur28" />
      <feComposite
         in2="hardAlpha"
         operator="out"
         id="feComposite28" />
      <feColorMatrix
         type="matrix"
         values="0 0 0 0 0 0 0 0 0 0 0 0 0 0 0 0 0 0 0.5 0"
         id="feColorMatrix29" />
      <feBlend
         mode="normal"
         in2="BackgroundImageFix"
         result="effect1_dropShadow_0_1"
         id="feBlend29" />
      <feBlend
         mode="normal"
         in="SourceGraphic"
         in2="effect1_dropShadow_0_1"
         result="shape"
         id="feBlend30" />
    </filter>
    <filter
       id="filter3_d_0_1"
       x="98"
       y="21"
       width="100.73"
       height="102.05"
       filterUnits="userSpaceOnUse"
       color-interpolation-filters="sRGB">
      <feFlood
         flood-opacity="0"
         result="BackgroundImageFix"
         id="feFlood30" />
      <feColorMatrix
         in="SourceAlpha"
         type="matrix"
         values="0 0 0 0 0 0 0 0 0 0 0 0 0 0 0 0 0 0 127 0"
         result="hardAlpha"
         id="feColorMatrix30" />
      <feOffset
         dy="4"
         id="feOffset30" />
      <feGaussianBlur
         stdDeviation="2"
         id="feGaussianBlur30" />
      <feComposite
         in2="hardAlpha"
         operator="out"
         id="feComposite30" />
      <feColorMatrix
         type="matrix"
         values="0 0 0 0 0 0 0 0 0 0 0 0 0 0 0 0 0 0 0.5 0"
         id="feColorMatrix31" />
      <feBlend
         mode="normal"
         in2="BackgroundImageFix"
         result="effect1_dropShadow_0_1"
         id="feBlend31" />
      <feBlend
         mode="normal"
         in="SourceGraphic"
         in2="effect1_dropShadow_0_1"
         result="shape"
         id="feBlend32" />
    </filter>
    <filter
       id="filter4_d_0_1"
       x="1"
       y="21"
       width="98"
       height="102"
       filterUnits="userSpaceOnUse"
       color-interpolation-filters="sRGB">
      <feFlood
         flood-opacity="0"
         result="BackgroundImageFix"
         id="feFlood32" />
      <feColorMatrix
         in="SourceAlpha"
         type="matrix"
         values="0 0 0 0 0 0 0 0 0 0 0 0 0 0 0 0 0 0 127 0"
         result="hardAlpha"
         id="feColorMatrix32" />
      <feOffset
         dy="4"
         id="feOffset32" />
      <feGaussianBlur
         stdDeviation="2"
         id="feGaussianBlur32" />
      <feComposite
         in2="hardAlpha"
         operator="out"
         id="feComposite32" />
      <feColorMatrix
         type="matrix"
         values="0 0 0 0 0 0 0 0 0 0 0 0 0 0 0 0 0 0 0.5 0"
         id="feColorMatrix33" />
      <feBlend
         mode="normal"
         in2="BackgroundImageFix"
         result="effect1_dropShadow_0_1"
         id="feBlend33" />
      <feBlend
         mode="normal"
         in="SourceGraphic"
         in2="effect1_dropShadow_0_1"
         result="shape"
         id="feBlend34" />
    </filter>
    <filter
       id="filter5_d_0_1"
       x="183"
       y="19"
       width="94"
       height="107"
       filterUnits="userSpaceOnUse"
       color-interpolation-filters="sRGB">
      <feFlood
         flood-opacity="0"
         result="BackgroundImageFix"
         id="feFlood34" />
      <feColorMatrix
         in="SourceAlpha"
         type="matrix"
         values="0 0 0 0 0 0 0 0 0 0 0 0 0 0 0 0 0 0 127 0"
         result="hardAlpha"
         id="feColorMatrix34" />
      <feOffset
         dy="4"
         id="feOffset34" />
      <feGaussianBlur
         stdDeviation="2"
         id="feGaussianBlur34" />
      <feComposite
         in2="hardAlpha"
         operator="out"
         id="feComposite34" />
      <feColorMatrix
         type="matrix"
         values="0 0 0 0 0 0 0 0 0 0 0 0 0 0 0 0 0 0 0.5 0"
         id="feColorMatrix35" />
      <feBlend
         mode="normal"
         in2="BackgroundImageFix"
         result="effect1_dropShadow_0_1"
         id="feBlend35" />
      <feBlend
         mode="normal"
         in="SourceGraphic"
         in2="effect1_dropShadow_0_1"
         result="shape"
         id="feBlend36" />
    </filter>
    <filter
       id="filter6_d_0_1"
       x="96"
       y="20"
       width="103.94"
       height="104.05"
       filterUnits="userSpaceOnUse"
       color-interpolation-filters="sRGB">
      <feFlood
         flood-opacity="0"
         result="BackgroundImageFix"
         id="feFlood36" />
      <feColorMatrix
         in="SourceAlpha"
         type="matrix"
         values="0 0 0 0 0 0 0 0 0 0 0 0 0 0 0 0 0 0 127 0"
         result="hardAlpha"
         id="feColorMatrix36" />
      <feOffset
         dy="4"
         id="feOffset36" />
      <feGaussianBlur
         stdDeviation="2"
         id="feGaussianBlur36" />
      <feComposite
         in2="hardAlpha"
         operator="out"
         id="feComposite36" />
      <feColorMatrix
         type="matrix"
         values="0 0 0 0 0 0 0 0 0 0 0 0 0 0 0 0 0 0 0.5 0"
         id="feColorMatrix37" />
      <feBlend
         mode="normal"
         in2="BackgroundImageFix"
         result="effect1_dropShadow_0_1"
         id="feBlend37" />
      <feBlend
         mode="normal"
         in="SourceGraphic"
         in2="effect1_dropShadow_0_1"
         result="shape"
         id="feBlend38" />
    </filter>
    <filter
       id="filter7_d_0_1"
       x="0"
       y="21"
       width="99.265"
       height="104.05"
       filterUnits="userSpaceOnUse"
       color-interpolation-filters="sRGB">
      <feFlood
         flood-opacity="0"
         result="BackgroundImageFix"
         id="feFlood38" />
      <feColorMatrix
         in="SourceAlpha"
         type="matrix"
         values="0 0 0 0 0 0 0 0 0 0 0 0 0 0 0 0 0 0 127 0"
         result="hardAlpha"
         id="feColorMatrix38" />
      <feOffset
         dy="4"
         id="feOffset38" />
      <feGaussianBlur
         stdDeviation="2"
         id="feGaussianBlur38" />
      <feComposite
         in2="hardAlpha"
         operator="out"
         id="feComposite38" />
      <feColorMatrix
         type="matrix"
         values="0 0 0 0 0 0 0 0 0 0 0 0 0 0 0 0 0 0 0.5 0"
         id="feColorMatrix39" />
      <feBlend
         mode="normal"
         in2="BackgroundImageFix"
         result="effect1_dropShadow_0_1"
         id="feBlend39" />
      <feBlend
         mode="normal"
         in="SourceGraphic"
         in2="effect1_dropShadow_0_1"
         result="shape"
         id="feBlend40" />
    </filter>
    <filter
       id="filter8_d_0_1"
       x="437.918"
       y="21.3414"
       width="54.9871"
       height="56.6586"
       filterUnits="userSpaceOnUse"
       color-interpolation-filters="sRGB">
      <feFlood
         flood-opacity="0"
         result="BackgroundImageFix"
         id="feFlood40" />
      <feColorMatrix
         in="SourceAlpha"
         type="matrix"
         values="0 0 0 0 0 0 0 0 0 0 0 0 0 0 0 0 0 0 127 0"
         result="hardAlpha"
         id="feColorMatrix40" />
      <feOffset
         dy="4"
         id="feOffset40" />
      <feGaussianBlur
         stdDeviation="2"
         id="feGaussianBlur40" />
      <feComposite
         in2="hardAlpha"
         operator="out"
         id="feComposite40" />
      <feColorMatrix
         type="matrix"
         values="0 0 0 0 0 0 0 0 0 0 0 0 0 0 0 0 0 0 0.5 0"
         id="feColorMatrix41" />
      <feBlend
         mode="normal"
         in2="BackgroundImageFix"
         result="effect1_dropShadow_0_1"
         id="feBlend41" />
      <feBlend
         mode="normal"
         in="SourceGraphic"
         in2="effect1_dropShadow_0_1"
         result="shape"
         id="feBlend42" />
    </filter>
    <filter
       id="filter9_d_0_1"
       x="386.5"
       y="21"
       width="53.9253"
       height="57"
       filterUnits="userSpaceOnUse"
       color-interpolation-filters="sRGB">
      <feFlood
         flood-opacity="0"
         result="BackgroundImageFix"
         id="feFlood42" />
      <feColorMatrix
         in="SourceAlpha"
         type="matrix"
         values="0 0 0 0 0 0 0 0 0 0 0 0 0 0 0 0 0 0 127 0"
         result="hardAlpha"
         id="feColorMatrix42" />
      <feOffset
         dy="4"
         id="feOffset42" />
      <feGaussianBlur
         stdDeviation="2"
         id="feGaussianBlur42" />
      <feComposite
         in2="hardAlpha"
         operator="out"
         id="feComposite42" />
      <feColorMatrix
         type="matrix"
         values="0 0 0 0 0 0 0 0 0 0 0 0 0 0 0 0 0 0 0.5 0"
         id="feColorMatrix43" />
      <feBlend
         mode="normal"
         in2="BackgroundImageFix"
         result="effect1_dropShadow_0_1"
         id="feBlend43" />
      <feBlend
         mode="normal"
         in="SourceGraphic"
         in2="effect1_dropShadow_0_1"
         result="shape"
         id="feBlend44" />
    </filter>
    <filter
       id="filter10_d_0_1"
       x="329.449"
       y="21.3414"
       width="60.6504"
       height="56.6586"
       filterUnits="userSpaceOnUse"
       color-interpolation-filters="sRGB">
      <feFlood
         flood-opacity="0"
         result="BackgroundImageFix"
         id="feFlood44" />
      <feColorMatrix
         in="SourceAlpha"
         type="matrix"
         values="0 0 0 0 0 0 0 0 0 0 0 0 0 0 0 0 0 0 127 0"
         result="hardAlpha"
         id="feColorMatrix44" />
      <feOffset
         dy="4"
         id="feOffset44" />
      <feGaussianBlur
         stdDeviation="2"
         id="feGaussianBlur44" />
      <feComposite
         in2="hardAlpha"
         operator="out"
         id="feComposite44" />
      <feColorMatrix
         type="matrix"
         values="0 0 0 0 0 0 0 0 0 0 0 0 0 0 0 0 0 0 0.5 0"
         id="feColorMatrix45" />
      <feBlend
         mode="normal"
         in2="BackgroundImageFix"
         result="effect1_dropShadow_0_1"
         id="feBlend45" />
      <feBlend
         mode="normal"
         in="SourceGraphic"
         in2="effect1_dropShadow_0_1"
         result="shape"
         id="feBlend46" />
    </filter>
    <filter
       id="filter11_d_0_1"
       x="286"
       y="21.0853"
       width="51.3591"
       height="56.9147"
       filterUnits="userSpaceOnUse"
       color-interpolation-filters="sRGB">
      <feFlood
         flood-opacity="0"
         result="BackgroundImageFix"
         id="feFlood46" />
      <feColorMatrix
         in="SourceAlpha"
         type="matrix"
         values="0 0 0 0 0 0 0 0 0 0 0 0 0 0 0 0 0 0 127 0"
         result="hardAlpha"
         id="feColorMatrix46" />
      <feOffset
         dy="4"
         id="feOffset46" />
      <feGaussianBlur
         stdDeviation="2"
         id="feGaussianBlur46" />
      <feComposite
         in2="hardAlpha"
         operator="out"
         id="feComposite46" />
      <feColorMatrix
         type="matrix"
         values="0 0 0 0 0 0 0 0 0 0 0 0 0 0 0 0 0 0 0.5 0"
         id="feColorMatrix47" />
      <feBlend
         mode="normal"
         in2="BackgroundImageFix"
         result="effect1_dropShadow_0_1"
         id="feBlend47" />
      <feBlend
         mode="normal"
         in="SourceGraphic"
         in2="effect1_dropShadow_0_1"
         result="shape"
         id="feBlend48" />
    </filter>
    <filter
       id="filter12_d_0_1"
       x="438"
       y="21"
       width="55"
       height="58"
       filterUnits="userSpaceOnUse"
       color-interpolation-filters="sRGB">
      <feFlood
         flood-opacity="0"
         result="BackgroundImageFix"
         id="feFlood48" />
      <feColorMatrix
         in="SourceAlpha"
         type="matrix"
         values="0 0 0 0 0 0 0 0 0 0 0 0 0 0 0 0 0 0 127 0"
         result="hardAlpha"
         id="feColorMatrix48" />
      <feOffset
         dy="4"
         id="feOffset48" />
      <feGaussianBlur
         stdDeviation="2"
         id="feGaussianBlur48" />
      <feComposite
         in2="hardAlpha"
         operator="out"
         id="feComposite48" />
      <feColorMatrix
         type="matrix"
         values="0 0 0 0 0 0 0 0 0 0 0 0 0 0 0 0 0 0 0.5 0"
         id="feColorMatrix49" />
      <feBlend
         mode="normal"
         in2="BackgroundImageFix"
         result="effect1_dropShadow_0_1"
         id="feBlend49" />
      <feBlend
         mode="normal"
         in="SourceGraphic"
         in2="effect1_dropShadow_0_1"
         result="shape"
         id="feBlend50" />
    </filter>
    <filter
       id="filter13_d_0_1"
       x="386"
       y="20"
       width="54"
       height="59"
       filterUnits="userSpaceOnUse"
       color-interpolation-filters="sRGB">
      <feFlood
         flood-opacity="0"
         result="BackgroundImageFix"
         id="feFlood50" />
      <feColorMatrix
         in="SourceAlpha"
         type="matrix"
         values="0 0 0 0 0 0 0 0 0 0 0 0 0 0 0 0 0 0 127 0"
         result="hardAlpha"
         id="feColorMatrix50" />
      <feOffset
         dy="4"
         id="feOffset50" />
      <feGaussianBlur
         stdDeviation="2"
         id="feGaussianBlur50" />
      <feComposite
         in2="hardAlpha"
         operator="out"
         id="feComposite50" />
      <feColorMatrix
         type="matrix"
         values="0 0 0 0 0 0 0 0 0 0 0 0 0 0 0 0 0 0 0.5 0"
         id="feColorMatrix51" />
      <feBlend
         mode="normal"
         in2="BackgroundImageFix"
         result="effect1_dropShadow_0_1"
         id="feBlend51" />
      <feBlend
         mode="normal"
         in="SourceGraphic"
         in2="effect1_dropShadow_0_1"
         result="shape"
         id="feBlend52" />
    </filter>
    <filter
       id="filter14_d_0_1"
       x="329"
       y="21"
       width="61"
       height="58"
       filterUnits="userSpaceOnUse"
       color-interpolation-filters="sRGB">
      <feFlood
         flood-opacity="0"
         result="BackgroundImageFix"
         id="feFlood52" />
      <feColorMatrix
         in="SourceAlpha"
         type="matrix"
         values="0 0 0 0 0 0 0 0 0 0 0 0 0 0 0 0 0 0 127 0"
         result="hardAlpha"
         id="feColorMatrix52" />
      <feOffset
         dy="4"
         id="feOffset52" />
      <feGaussianBlur
         stdDeviation="2"
         id="feGaussianBlur52" />
      <feComposite
         in2="hardAlpha"
         operator="out"
         id="feComposite52" />
      <feColorMatrix
         type="matrix"
         values="0 0 0 0 0 0 0 0 0 0 0 0 0 0 0 0 0 0 0.5 0"
         id="feColorMatrix53" />
      <feBlend
         mode="normal"
         in2="BackgroundImageFix"
         result="effect1_dropShadow_0_1"
         id="feBlend53" />
      <feBlend
         mode="normal"
         in="SourceGraphic"
         in2="effect1_dropShadow_0_1"
         result="shape"
         id="feBlend54" />
    </filter>
    <filter
       id="filter15_d_0_1"
       x="286"
       y="20"
       width="51"
       height="59"
       filterUnits="userSpaceOnUse"
       color-interpolation-filters="sRGB">
      <feFlood
         flood-opacity="0"
         result="BackgroundImageFix"
         id="feFlood54" />
      <feColorMatrix
         in="SourceAlpha"
         type="matrix"
         values="0 0 0 0 0 0 0 0 0 0 0 0 0 0 0 0 0 0 127 0"
         result="hardAlpha"
         id="feColorMatrix54" />
      <feOffset
         dy="4"
         id="feOffset54" />
      <feGaussianBlur
         stdDeviation="2"
         id="feGaussianBlur54" />
      <feComposite
         in2="hardAlpha"
         operator="out"
         id="feComposite54" />
      <feColorMatrix
         type="matrix"
         values="0 0 0 0 0 0 0 0 0 0 0 0 0 0 0 0 0 0 0.5 0"
         id="feColorMatrix55" />
      <feBlend
         mode="normal"
         in2="BackgroundImageFix"
         result="effect1_dropShadow_0_1"
         id="feBlend55" />
      <feBlend
         mode="normal"
         in="SourceGraphic"
         in2="effect1_dropShadow_0_1"
         result="shape"
         id="feBlend56" />
    </filter>
    <filter
       id="filter16_d_0_1"
       x="341.359"
       y="80.69"
       width="204.682"
       height="45.31"
       filterUnits="userSpaceOnUse"
       color-interpolation-filters="sRGB">
      <feFlood
         flood-opacity="0"
         result="BackgroundImageFix"
         id="feFlood56" />
      <feColorMatrix
         in="SourceAlpha"
         type="matrix"
         values="0 0 0 0 0 0 0 0 0 0 0 0 0 0 0 0 0 0 127 0"
         result="hardAlpha"
         id="feColorMatrix56" />
      <feOffset
         dy="4"
         id="feOffset56" />
      <feGaussianBlur
         stdDeviation="2"
         id="feGaussianBlur56" />
      <feComposite
         in2="hardAlpha"
         operator="out"
         id="feComposite56" />
      <feColorMatrix
         type="matrix"
         values="0 0 0 0 0 0 0 0 0 0 0 0 0 0 0 0 0 0 0.5 0"
         id="feColorMatrix57" />
      <feBlend
         mode="normal"
         in2="BackgroundImageFix"
         result="effect1_dropShadow_0_1"
         id="feBlend57" />
      <feBlend
         mode="normal"
         in="SourceGraphic"
         in2="effect1_dropShadow_0_1"
         result="shape"
         id="feBlend58" />
    </filter>
    <filter
       id="filter17_b_0_1"
       x="292.073"
       y="87.7018"
       width="55.6427"
       height="22.6421"
       filterUnits="userSpaceOnUse"
       color-interpolation-filters="sRGB">
      <feFlood
         flood-opacity="0"
         result="BackgroundImageFix"
         id="feFlood58" />
      <feGaussianBlur
         in="BackgroundImageFix"
         stdDeviation="2"
         id="feGaussianBlur58" />
      <feComposite
         in2="SourceAlpha"
         operator="in"
         result="effect1_backgroundBlur_0_1"
         id="feComposite58" />
      <feBlend
         mode="normal"
         in="SourceGraphic"
         in2="effect1_backgroundBlur_0_1"
         result="shape"
         id="feBlend59" />
    </filter>
    <linearGradient
       id="paint0_linear_0_1"
       x1="517.949"
       y1="0.281255"
       x2="516.666"
       y2="76.2673"
       gradientUnits="userSpaceOnUse">
      <stop
         offset="0.21"
         stop-color="#69B565"
         id="stop59" />
      <stop
         offset="1"
         stop-color="#2E4F2C"
         stop-opacity="0.8"
         id="stop60" />
    </linearGradient>
    <linearGradient
       id="paint1_linear_0_1"
       x1="126.905"
       y1="-46.7812"
       x2="126.905"
       y2="212.165"
       gradientUnits="userSpaceOnUse">
      <stop
         offset="0.43"
         stop-color="#396839"
         id="stop61" />
      <stop
         offset="0.73"
         stop-color="#71CE71"
         id="stop62" />
    </linearGradient>
    <linearGradient
       id="paint2_linear_0_1"
       x1="136.187"
       y1="-46.95"
       x2="136.187"
       y2="212.05"
       gradientUnits="userSpaceOnUse">
      <stop
         offset="0.43"
         stop-color="#396839"
         id="stop63" />
      <stop
         offset="0.73"
         stop-color="#71CE71"
         id="stop64" />
    </linearGradient>
    <linearGradient
       id="paint3_linear_0_1"
       x1="132.823"
       y1="-46.9139"
       x2="132.823"
       y2="211.948"
       gradientUnits="userSpaceOnUse">
      <stop
         offset="0.43"
         stop-color="#396839"
         id="stop65" />
      <stop
         offset="0.73"
         stop-color="#71CE71"
         id="stop66" />
    </linearGradient>
    <linearGradient
       id="paint4_linear_0_1"
       x1="127.885"
       y1="-46.7817"
       x2="127.885"
       y2="212.166"
       gradientUnits="userSpaceOnUse">
      <stop
         offset="0.155"
         stop-color="#148526"
         id="stop67" />
      <stop
         offset="1"
         stop-color="#051F09"
         id="stop68" />
    </linearGradient>
    <linearGradient
       id="paint5_linear_0_1"
       x1="135.794"
       y1="-46.95"
       x2="135.794"
       y2="212.05"
       gradientUnits="userSpaceOnUse">
      <stop
         offset="0.155"
         stop-color="#148526"
         id="stop69" />
      <stop
         offset="1"
         stop-color="#051F09"
         id="stop70" />
    </linearGradient>
    <linearGradient
       id="paint6_linear_0_1"
       x1="131.779"
       y1="-45.95"
       x2="131.779"
       y2="213.05"
       gradientUnits="userSpaceOnUse">
      <stop
         offset="0.155"
         stop-color="#148526"
         id="stop71" />
      <stop
         offset="1"
         stop-color="#051F09"
         id="stop72" />
    </linearGradient>
    <linearGradient
       id="paint7_linear_0_1"
       x1="442.5"
       y1="54"
       x2="442.5"
       y2="156"
       gradientUnits="userSpaceOnUse">
      <stop
         offset="0.6"
         stop-color="#545F55"
         id="stop73" />
      <stop
         offset="1"
         stop-color="#B3C9B5"
         id="stop74" />
    </linearGradient>
    <linearGradient
       id="paint8_linear_0_1"
       x1="318.228"
       y1="87.8983"
       x2="321.755"
       y2="108.01"
       gradientUnits="userSpaceOnUse">
      <stop
         offset="0.27"
         stop-color="#009455"
         id="stop75" />
      <stop
         offset="0.965"
         stop-color="#002E1A"
         stop-opacity="0.8"
         id="stop76" />
    </linearGradient>
  </defs>
</svg>
