<?xml version="1.0" encoding="UTF-8" standalone="no"?>
<svg
   width="541"
   height="126"
   viewBox="0 0 541 126"
   fill="none"
   version="1.1"
   id="svg76"
   sodipodi:docname="NYC PARK FINDER LOGO.svg"
   inkscape:version="1.3.2 (091e20e, 2023-11-25)"
   xmlns:inkscape="http://www.inkscape.org/namespaces/inkscape"
   xmlns:sodipodi="http://sodipodi.sourceforge.net/DTD/sodipodi-0.dtd"
   xmlns="http://www.w3.org/2000/svg"
   xmlns:svg="http://www.w3.org/2000/svg">
  <sodipodi:namedview
     id="namedview76"
     pagecolor="#ffffff"
     bordercolor="#111111"
     borderopacity="1"
     inkscape:showpageshadow="0"
     inkscape:pageopacity="0"
     inkscape:pagecheckerboard="1"
     inkscape:deskcolor="#d1d1d1"
     inkscape:zoom="1.3327172"
     inkscape:cx="247.61442"
     inkscape:cy="32.640083"
     inkscape:window-width="1312"
     inkscape:window-height="712"
     inkscape:window-x="0"
     inkscape:window-y="25"
     inkscape:window-maximized="0"
     inkscape:current-layer="svg76" />
  <path
     d="M323.507 106.855C331.026 98.9636 328.033 89.4611 317.577 85.9978C303.149 81.2191 293.025 88.0957 278.484 82.4824C277.794 82.2162 276.817 82.6759 276.828 83.2678C277.082 96.0008 278.582 108.028 293.722 113.724C303.226 117.3 316.486 114.223 323.507 106.855Z"
     fill="#A2A2A2"
     id="path1" />
  <g
     filter="url(#filter0_i_0_1)"
     id="g3">
    <path
       d="M323.751 105.945C330.943 97.3767 327.681 86.6782 317.224 82.4829C302.796 76.6942 292.995 84.0478 278.428 77.3241C277.737 77.0052 276.785 77.4873 276.815 78.1483C277.469 92.3652 279.333 105.833 294.495 112.669C304.013 116.96 317.037 113.946 323.751 105.945Z"
       fill="#69B565"
       id="path2" />
    <path
       d="M290.173 92.4503C289.835 92.0211 290.428 91.4763 290.878 91.7999C294.112 94.1247 297.453 96.1556 300.996 97.7627C305.431 99.8049 310.149 101.163 315.001 101.889C319.854 102.618 324.835 102.728 329.849 102.349C332.031 102.19 334.215 101.935 336.409 101.611C337.782 101.409 338.253 103.251 336.939 103.696C334.765 104.434 332.526 105.022 330.251 105.462C325.017 106.463 319.556 106.645 314.24 105.837C308.93 105.041 303.776 103.241 299.315 100.499C295.766 98.3226 292.643 95.5919 290.173 92.4503Z"
       fill="#009455"
       id="path3" />
  </g>
  <mask
     id="path-4-inside-1_0_1"
     fill="white">
    <path
       d="M500.425 0.210985C500.266 0.502825 499.932 0.724282 499.437 0.86497C499.329 0.895082 499.217 0.946408 499.193 0.974401C499.107 1.06166 499.096 1.02599 499.112 0.742391C499.133 0.430475 499.082 0.284122 498.914 0.178392C498.819 0.12001 498.811 0.11988 498.749 0.189791C498.651 0.29814 498.484 0.387583 498.074 0.543887C497.71 0.683235 497.503 0.828789 497.502 0.945853C497.501 0.97423 497.478 0.995126 497.451 0.994672C497.343 0.992855 497.039 1.21129 496.902 1.38639C496.536 1.86635 496.576 2.47025 497.007 2.91399L497.162 3.07628L497.144 3.44502L497.126 3.81021L496.8 3.79051C496.619 3.78036 496.408 3.75196 496.328 3.72577C496.198 3.68099 496.182 3.68428 496.143 3.74749C496.084 3.84229 495.859 3.92012 495.71 3.89276C495.602 3.8732 495.579 3.88346 495.52 3.97827C495.468 4.05546 495.426 4.08313 495.345 4.08177L495.237 4.0835L495.347 4.15988C495.488 4.2616 495.558 4.42957 495.554 4.65306C495.552 4.80915 495.532 4.85848 495.418 4.98431C495.077 5.35114 495.121 5.71739 495.533 5.95498C495.738 6.07551 496.205 6.20405 496.635 6.2539C496.904 6.28329 496.919 6.30835 496.773 6.49754C496.624 6.69015 496.636 6.87846 496.799 7.02667C496.913 7.13151 496.931 7.16729 496.947 7.39467L496.969 7.64697L496.85 7.66981C496.784 7.67936 496.675 7.73427 496.613 7.79001C496.523 7.87362 496.499 7.92294 496.497 8.0471C496.496 8.1322 496.525 8.24628 496.566 8.31083C496.633 8.41843 496.633 8.42196 496.562 8.50596C496.351 8.75077 496.393 8.96794 496.683 9.10409C496.775 9.14823 496.874 9.18184 496.905 9.18236C496.936 9.18642 496.904 9.20721 496.839 9.23091C496.688 9.28869 496.589 9.41122 496.587 9.53897C496.585 9.66313 496.778 9.87217 496.95 9.9354C497.023 9.95789 497.08 9.99791 497.083 10.0192C497.083 10.037 497.101 10.3389 497.118 10.6834C497.148 11.1842 497.142 11.3261 497.106 11.3752C497.079 11.4067 497.054 11.5091 497.052 11.6013C497.051 11.7042 497.026 11.7819 496.991 11.8097C496.906 11.8721 496.916 11.9503 497.043 12.1867C497.117 12.3228 497.168 12.4975 497.192 12.6824C497.223 12.9065 497.248 12.985 497.32 13.0465C497.389 13.1045 497.411 13.1616 497.409 13.2716C497.403 13.6441 497.782 13.9273 498.093 13.7799C498.178 13.7388 498.167 13.6783 498.269 14.7232C498.502 17.0798 498.85 18.5725 499.42 19.6643C499.558 19.9257 499.646 20.1827 499.783 20.6995C499.885 21.0773 499.99 21.4624 500.023 21.5516L500.074 21.7122L499.891 22.064C499.653 22.5141 499.274 23.5119 499.114 24.1231C498.773 25.4161 498.767 26.4663 499.095 26.8516C499.291 27.082 499.383 27.1261 499.694 27.1349C499.905 27.142 499.993 27.1612 500.043 27.2047C500.077 27.2372 500.157 27.2775 500.218 27.2892C500.31 27.3085 500.329 27.3266 500.309 27.3866C500.155 27.863 500.181 28.1296 500.412 28.3677C500.532 28.501 500.643 28.549 501.018 28.644C501.045 28.6516 501.07 28.7939 501.086 28.9894C501.11 29.3588 501.217 30.0632 501.38 30.9212C501.475 31.4231 501.481 31.5119 501.44 31.678C501.329 32.1374 501.533 32.556 502.012 32.8657L502.263 33.0296L502.264 33.2177C502.261 33.388 502.241 33.4302 502.049 33.6754C501.164 34.8137 500.395 36.4152 500.127 37.6776C500.035 38.1302 500.017 38.9851 500.095 39.3661C500.216 39.9571 500.492 40.4728 500.908 40.8843L501.131 41.1081L501.012 41.5461C500.652 42.8529 500.568 43.7209 500.598 45.8327C500.612 46.7946 500.626 46.8551 500.873 47.2603C501.027 47.5007 501.28 48.243 501.346 48.6415C501.367 48.7519 501.385 49.2951 501.383 49.8522C501.386 50.4093 501.402 51.0306 501.422 51.2367C501.441 51.4429 501.46 51.9435 501.46 52.3551C501.461 53.2351 501.597 54.2842 501.838 55.2715C501.87 55.4135 501.907 55.7693 501.917 56.0888C501.929 56.5006 501.966 56.8133 502.047 57.2263C502.108 57.5394 502.224 58.1309 502.302 58.5438C502.567 59.9459 502.825 60.8591 503.065 61.2145C503.17 61.3759 503.173 61.397 503.166 61.7979C503.127 63.9192 502.657 66.0012 501.895 67.422C501.776 67.6437 501.672 67.8298 501.665 67.8369C501.657 67.8439 501.422 67.8753 501.144 67.9098C500.038 68.0403 499.442 68.2535 499.287 68.5774C499.255 68.6409 499.169 68.703 499.042 68.7577C498.933 68.8023 498.782 68.8953 498.703 68.9653L498.563 69.0938L497.927 69.1472C496.737 69.2442 496.047 69.3497 495.845 69.4562L495.729 69.5217L495.713 70.4865L495.696 71.4547L495.096 71.7285C494.766 71.8793 494.495 72.0128 494.494 72.0239C494.492 72.1515 494.778 72.7524 494.992 73.0543L495.128 73.2444L495.113 74.1386L495.097 75.0322L494.938 75.1682C494.711 75.3666 494.588 75.57 494.558 75.8004L494.531 75.995L508.303 76.2274C521.56 76.4511 522.071 76.4564 522.072 76.3957C522.073 76.3603 522.047 76.2997 522.017 76.2599C521.972 76.2061 521.967 76.0249 521.976 75.2764L521.991 74.3646L522.148 74.1584C522.306 73.955 522.635 73.3645 522.676 73.2199C522.692 73.1527 522.65 73.1233 522.307 72.9827C522.097 72.8974 521.822 72.7795 521.704 72.7206L521.482 72.6174L521.498 71.6774L521.514 70.7374L521.319 70.6452C521.087 70.528 519.809 70.1126 519.258 69.9685C518.929 69.8844 518.841 69.8476 518.769 69.7613C518.72 69.7036 518.598 69.6165 518.495 69.5689C518.179 69.4144 518.003 69.1418 517.693 68.3239C517.355 67.4415 516.947 66.0507 517.017 66.0132C517.203 65.913 517.186 64.9018 516.967 63.0672L516.91 62.5867L517.052 62.3797C517.268 62.068 517.298 61.8983 517.26 61.2198C517.238 60.9001 517.216 60.3887 517.21 60.0798C517.192 59.5508 517.196 59.5155 517.27 59.4422C517.313 59.4004 517.372 59.3301 517.396 59.288C517.451 59.1895 517.46 58.672 517.411 58.4225C517.389 58.3155 517.377 57.8933 517.377 57.4778L517.382 56.726L517.529 56.6677C517.61 56.6376 517.691 56.5926 517.711 56.5719C517.731 56.5474 517.714 56.1709 517.669 55.627C517.577 54.4936 517.574 54.4119 517.676 54.332C517.719 54.2972 517.742 54.2586 517.735 54.2443C517.697 54.1834 517.589 52.8863 517.601 52.6098C517.608 52.4431 517.586 52.1411 517.555 51.9348C517.52 51.7283 517.333 50.2313 517.142 48.61C516.707 44.9691 516.66 44.5744 516.671 44.5746C516.756 44.576 517.168 44.7817 517.484 44.9786C517.959 45.2741 518.04 45.3073 518.305 45.3118C518.816 45.3205 519.243 45.1219 519.603 44.7057C519.741 44.5448 519.85 44.4508 519.896 44.4516C520.011 44.4536 520.241 44.2977 520.382 44.1227C520.544 43.9196 520.746 43.5327 520.875 43.1729C521.077 42.6086 521.314 41.541 521.321 41.1649C521.323 41.0549 521.367 40.9244 521.462 40.7486C521.625 40.4391 521.705 40.0288 521.682 39.6132C521.67 39.3931 521.683 39.301 521.743 39.1601C521.783 39.0649 521.848 38.8354 521.882 38.6586C521.962 38.2412 522.063 36.5964 522.016 36.4395C521.972 36.2791 521.841 36.0852 521.648 35.8868L521.482 35.7172L521.921 34.9901C522.162 34.5932 522.36 34.2594 522.36 34.2488C522.361 34.2382 522.323 34.202 522.281 34.1694L522.197 34.1077L522.433 33.81L522.673 33.516L522.575 33.4079C522.341 33.1413 521.124 31.847 521.007 31.7349C520.908 31.6446 520.767 31.5819 520.484 31.4919C520.216 31.4058 520.094 31.3789 520.082 31.4071C520.074 31.4318 520.037 31.5447 520 31.6612C519.903 31.9789 519.915 31.9649 519.808 31.9241C519.712 31.8905 519.704 31.9046 519.351 32.5231C519.106 32.9519 518.976 33.1449 518.945 33.1302C518.918 33.1155 518.816 33.0357 518.71 32.9523C518.607 32.869 518.356 32.6909 518.159 32.5598L517.793 32.3195L517.732 32.07C517.614 31.5712 517.261 30.8201 516.667 29.7952C516.506 29.5193 516.331 29.1899 516.275 29.0648C516.127 28.7251 515.943 28.463 515.663 28.2099C515.527 28.0869 515.379 27.9177 515.335 27.8318C515.234 27.6384 515.071 27.5292 514.791 27.4748C514.672 27.4515 514.542 27.4209 514.503 27.4132C514.412 27.3868 514.326 27.2115 514.329 27.0625C514.33 26.9561 514.308 26.9202 514.182 26.8329C514.099 26.7747 513.908 26.6899 513.751 26.6447C513.598 26.5995 513.449 26.5509 513.418 26.5362C513.388 26.5215 513.205 26.2061 513.011 25.8374L512.657 25.1678L512.731 25.0874C512.88 24.9338 512.982 24.7865 512.984 24.7191C512.984 24.6801 512.936 24.5551 512.873 24.4405C512.798 24.3008 512.762 24.176 512.764 24.0696C512.765 23.9809 512.745 23.7925 512.717 23.6465C512.675 23.4223 512.676 23.3584 512.725 23.1925C512.806 22.9241 512.799 22.885 512.653 22.6732C512.555 22.5331 512.522 22.451 512.524 22.341C512.525 22.2594 512.493 22.0885 512.453 21.9637C512.413 21.8423 512.38 21.7354 512.38 21.7282C512.38 21.7212 512.442 21.7293 512.522 21.7448L512.66 21.772L512.636 21.4026C512.624 21.2001 512.617 20.9445 512.622 20.831C512.628 20.7211 512.608 20.515 512.576 20.3725C512.548 20.2301 512.531 20.1092 512.538 20.1022C512.542 20.0952 513.394 19.9889 514.423 19.8679C515.452 19.7433 516.288 19.6368 516.281 19.626C516.269 19.6151 512.896 19.434 512.285 19.4131C512.185 19.4114 512.147 19.3752 512.019 19.1885C511.937 19.0665 511.866 18.9553 511.858 18.941C511.854 18.9303 512.491 18.5862 513.275 18.1771C514.838 17.3625 514.966 17.2902 514.665 17.388C514.56 17.4253 513.757 17.6601 512.879 17.915L511.287 18.3742L510.972 18.1489C510.801 18.0254 510.603 17.8943 510.534 17.8648C510.465 17.8317 510.408 17.7988 510.409 17.7846C510.409 17.7739 510.661 17.1892 510.969 16.4847C511.277 15.7802 511.525 15.1989 511.521 15.1917C511.514 15.1881 511.141 15.6501 510.685 16.2208C510.233 16.7916 509.813 17.3168 509.754 17.3868L509.648 17.5163L509.464 17.4635C509.361 17.4333 509.112 17.3865 508.912 17.3584L508.551 17.3097L507.578 15.7603C507.042 14.9067 506.6 14.2145 506.596 14.2215C506.588 14.2285 506.83 14.9174 507.135 15.76C507.437 16.5989 507.686 17.288 507.686 17.2951C507.686 17.3022 507.628 17.3154 507.563 17.3285C507.331 17.3672 507.053 17.4512 506.824 17.5502L506.603 17.6494L504.971 16.8731C503.258 16.0564 502.788 15.8392 502.788 15.8605C502.788 15.8675 503.495 16.355 504.358 16.9409C505.217 17.5267 505.947 18.0251 505.977 18.0505C506.023 18.0902 506.015 18.1185 505.928 18.2483C505.877 18.3326 505.805 18.4663 505.781 18.5474C505.752 18.6322 505.713 18.6989 505.697 18.6986C505.678 18.6983 504.977 18.7433 504.138 18.7965C503.299 18.8498 502.598 18.8841 502.579 18.8731C502.56 18.8621 502.546 18.7803 502.548 18.6916C502.552 18.4398 502.451 17.8171 502.353 17.4854C502.306 17.3214 502.081 16.7073 501.857 16.1215C501.075 14.0999 500.654 12.8828 500.386 11.867C500.263 11.3894 500.239 11.2364 500.22 10.7464C500.207 10.4339 500.174 10.0963 500.145 9.99997C500.006 9.52568 499.745 9.0529 499.357 8.57086C499.229 8.41611 499.101 8.25423 499.067 8.21112C499.018 8.14638 499.016 8.06828 499.05 7.65727L499.092 7.1789L499.225 7.06761C499.397 6.92505 499.423 6.73738 499.291 6.5613C499.257 6.51107 499.216 6.43585 499.202 6.39654C499.18 6.32524 499.195 6.31837 499.419 6.30087C500.096 6.24491 500.65 6.05553 500.803 5.83101C500.953 5.61709 500.9 5.32167 500.667 5.0445C500.572 4.9329 500.55 4.87221 500.553 4.73386C500.556 4.51392 500.608 4.40479 500.76 4.27606L500.885 4.17526L500.781 4.17351C500.701 4.17215 500.659 4.14305 500.61 4.06417C500.554 3.96741 500.531 3.95638 500.423 3.9723C500.273 3.99461 500.051 3.90925 499.995 3.80895C499.958 3.74445 499.943 3.74064 499.827 3.78126C499.761 3.80854 499.553 3.83697 499.368 3.84449L499.029 3.86362L499.036 3.46985L499.042 3.07608L499.175 2.97187C499.381 2.81212 499.551 2.5524 499.593 2.33311C499.644 2.07493 499.711 1.96251 500.044 1.58845C500.448 1.13751 500.495 1.07089 500.537 0.879981C500.558 0.788072 500.594 0.664494 500.618 0.61167C500.642 0.5553 500.663 0.474035 500.664 0.427919C500.665 0.335685 500.558 0.0890309 500.516 0.0883172C500.504 0.0881225 500.461 0.144168 500.425 0.210985ZM504.269 19.2246C504.83 19.2624 505.376 19.3071 505.479 19.3195L505.671 19.3405L505.729 19.5792C505.761 19.711 505.782 19.825 505.774 19.8319C505.767 19.8388 505.261 19.9368 504.652 20.0471L503.541 20.252L503.427 20.1223C503.235 19.8955 503.026 19.7217 502.919 19.6985C502.804 19.6753 502.677 19.4674 502.631 19.2324L502.606 19.0972L502.929 19.1274C503.105 19.141 503.709 19.1867 504.269 19.2246ZM505.906 20.7141C505.911 20.8278 505.9 21.0299 505.879 21.1679C505.861 21.3095 505.857 21.565 505.876 21.7711C505.902 22.066 505.924 22.1374 505.992 22.1882C506.102 22.2752 506.26 22.2743 506.388 22.1842C506.482 22.1184 506.49 22.1185 506.489 22.1788C506.486 22.3207 505.641 23.662 505.556 23.6641C505.467 23.6626 505.058 23.3399 504.755 23.0296C504.373 22.6434 504.235 22.3963 504.27 22.1733C504.291 22.0424 504.277 21.9818 504.18 21.8063C504.112 21.6845 504.05 21.5167 504.04 21.403C504.027 21.2928 503.957 21.0716 503.883 20.9106C503.813 20.7498 503.754 20.6139 503.757 20.614C503.773 20.6072 505.54 20.5164 505.717 20.5122L505.894 20.5117L505.906 20.7141Z"
       id="path4" />
  </mask>
  <g
     filter="url(#filter1_i_0_1)"
     id="g5">
    <path
       d="M500.425 0.210985C500.266 0.502825 499.932 0.724282 499.437 0.86497C499.329 0.895082 499.217 0.946408 499.193 0.974401C499.107 1.06166 499.096 1.02599 499.112 0.742391C499.133 0.430475 499.082 0.284122 498.914 0.178392C498.819 0.12001 498.811 0.11988 498.749 0.189791C498.651 0.29814 498.484 0.387583 498.074 0.543887C497.71 0.683235 497.503 0.828789 497.502 0.945853C497.501 0.97423 497.478 0.995126 497.451 0.994672C497.343 0.992855 497.039 1.21129 496.902 1.38639C496.536 1.86635 496.576 2.47025 497.007 2.91399L497.162 3.07628L497.144 3.44502L497.126 3.81021L496.8 3.79051C496.619 3.78036 496.408 3.75196 496.328 3.72577C496.198 3.68099 496.182 3.68428 496.143 3.74749C496.084 3.84229 495.859 3.92012 495.71 3.89276C495.602 3.8732 495.579 3.88346 495.52 3.97827C495.468 4.05546 495.426 4.08313 495.345 4.08177L495.237 4.0835L495.347 4.15988C495.488 4.2616 495.558 4.42957 495.554 4.65306C495.552 4.80915 495.532 4.85848 495.418 4.98431C495.077 5.35114 495.121 5.71739 495.533 5.95498C495.738 6.07551 496.205 6.20405 496.635 6.2539C496.904 6.28329 496.919 6.30835 496.773 6.49754C496.624 6.69015 496.636 6.87846 496.799 7.02667C496.913 7.13151 496.931 7.16729 496.947 7.39467L496.969 7.64697L496.85 7.66981C496.784 7.67936 496.675 7.73427 496.613 7.79001C496.523 7.87362 496.499 7.92294 496.497 8.0471C496.496 8.1322 496.525 8.24628 496.566 8.31083C496.633 8.41843 496.633 8.42196 496.562 8.50596C496.351 8.75077 496.393 8.96794 496.683 9.10409C496.775 9.14823 496.874 9.18184 496.905 9.18236C496.936 9.18642 496.904 9.20721 496.839 9.23091C496.688 9.28869 496.589 9.41122 496.587 9.53897C496.585 9.66313 496.778 9.87217 496.95 9.9354C497.023 9.95789 497.08 9.99791 497.083 10.0192C497.083 10.037 497.101 10.3389 497.118 10.6834C497.148 11.1842 497.142 11.3261 497.106 11.3752C497.079 11.4067 497.054 11.5091 497.052 11.6013C497.051 11.7042 497.026 11.7819 496.991 11.8097C496.906 11.8721 496.916 11.9503 497.043 12.1867C497.117 12.3228 497.168 12.4975 497.192 12.6824C497.223 12.9065 497.248 12.985 497.32 13.0465C497.389 13.1045 497.411 13.1616 497.409 13.2716C497.403 13.6441 497.782 13.9273 498.093 13.7799C498.178 13.7388 498.167 13.6783 498.269 14.7232C498.502 17.0798 498.85 18.5725 499.42 19.6643C499.558 19.9257 499.646 20.1827 499.783 20.6995C499.885 21.0773 499.99 21.4624 500.023 21.5516L500.074 21.7122L499.891 22.064C499.653 22.5141 499.274 23.5119 499.114 24.1231C498.773 25.4161 498.767 26.4663 499.095 26.8516C499.291 27.082 499.383 27.1261 499.694 27.1349C499.905 27.142 499.993 27.1612 500.043 27.2047C500.077 27.2372 500.157 27.2775 500.218 27.2892C500.31 27.3085 500.329 27.3266 500.309 27.3866C500.155 27.863 500.181 28.1296 500.412 28.3677C500.532 28.501 500.643 28.549 501.018 28.644C501.045 28.6516 501.07 28.7939 501.086 28.9894C501.11 29.3588 501.217 30.0632 501.38 30.9212C501.475 31.4231 501.481 31.5119 501.44 31.678C501.329 32.1374 501.533 32.556 502.012 32.8657L502.263 33.0296L502.264 33.2177C502.261 33.388 502.241 33.4302 502.049 33.6754C501.164 34.8137 500.395 36.4152 500.127 37.6776C500.035 38.1302 500.017 38.9851 500.095 39.3661C500.216 39.9571 500.492 40.4728 500.908 40.8843L501.131 41.1081L501.012 41.5461C500.652 42.8529 500.568 43.7209 500.598 45.8327C500.612 46.7946 500.626 46.8551 500.873 47.2603C501.027 47.5007 501.28 48.243 501.346 48.6415C501.367 48.7519 501.385 49.2951 501.383 49.8522C501.386 50.4093 501.402 51.0306 501.422 51.2367C501.441 51.4429 501.46 51.9435 501.46 52.3551C501.461 53.2351 501.597 54.2842 501.838 55.2715C501.87 55.4135 501.907 55.7693 501.917 56.0888C501.929 56.5006 501.966 56.8133 502.047 57.2263C502.108 57.5394 502.224 58.1309 502.302 58.5438C502.567 59.9459 502.825 60.8591 503.065 61.2145C503.17 61.3759 503.173 61.397 503.166 61.7979C503.127 63.9192 502.657 66.0012 501.895 67.422C501.776 67.6437 501.672 67.8298 501.665 67.8369C501.657 67.8439 501.422 67.8753 501.144 67.9098C500.038 68.0403 499.442 68.2535 499.287 68.5774C499.255 68.6409 499.169 68.703 499.042 68.7577C498.933 68.8023 498.782 68.8953 498.703 68.9653L498.563 69.0938L497.927 69.1472C496.737 69.2442 496.047 69.3497 495.845 69.4562L495.729 69.5217L495.713 70.4865L495.696 71.4547L495.096 71.7285C494.766 71.8793 494.495 72.0128 494.494 72.0239C494.492 72.1515 494.778 72.7524 494.992 73.0543L495.128 73.2444L495.113 74.1386L495.097 75.0322L494.938 75.1682C494.711 75.3666 494.588 75.57 494.558 75.8004L494.531 75.995L508.303 76.2274C521.56 76.4511 522.071 76.4564 522.072 76.3957C522.073 76.3603 522.047 76.2997 522.017 76.2599C521.972 76.2061 521.967 76.0249 521.976 75.2764L521.991 74.3646L522.148 74.1584C522.306 73.955 522.635 73.3645 522.676 73.2199C522.692 73.1527 522.65 73.1233 522.307 72.9827C522.097 72.8974 521.822 72.7795 521.704 72.7206L521.482 72.6174L521.498 71.6774L521.514 70.7374L521.319 70.6452C521.087 70.528 519.809 70.1126 519.258 69.9685C518.929 69.8844 518.841 69.8476 518.769 69.7613C518.72 69.7036 518.598 69.6165 518.495 69.5689C518.179 69.4144 518.003 69.1418 517.693 68.3239C517.355 67.4415 516.947 66.0507 517.017 66.0132C517.203 65.913 517.186 64.9018 516.967 63.0672L516.91 62.5867L517.052 62.3797C517.268 62.068 517.298 61.8983 517.26 61.2198C517.238 60.9001 517.216 60.3887 517.21 60.0798C517.192 59.5508 517.196 59.5155 517.27 59.4422C517.313 59.4004 517.372 59.3301 517.396 59.288C517.451 59.1895 517.46 58.672 517.411 58.4225C517.389 58.3155 517.377 57.8933 517.377 57.4778L517.382 56.726L517.529 56.6677C517.61 56.6376 517.691 56.5926 517.711 56.5719C517.731 56.5474 517.714 56.1709 517.669 55.627C517.577 54.4936 517.574 54.4119 517.676 54.332C517.719 54.2972 517.742 54.2586 517.735 54.2443C517.697 54.1834 517.589 52.8863 517.601 52.6098C517.608 52.4431 517.586 52.1411 517.555 51.9348C517.52 51.7283 517.333 50.2313 517.142 48.61C516.707 44.9691 516.66 44.5744 516.671 44.5746C516.756 44.576 517.168 44.7817 517.484 44.9786C517.959 45.2741 518.04 45.3073 518.305 45.3118C518.816 45.3205 519.243 45.1219 519.603 44.7057C519.741 44.5448 519.85 44.4508 519.896 44.4516C520.011 44.4536 520.241 44.2977 520.382 44.1227C520.544 43.9196 520.746 43.5327 520.875 43.1729C521.077 42.6086 521.314 41.541 521.321 41.1649C521.323 41.0549 521.367 40.9244 521.462 40.7486C521.625 40.4391 521.705 40.0288 521.682 39.6132C521.67 39.3931 521.683 39.301 521.743 39.1601C521.783 39.0649 521.848 38.8354 521.882 38.6586C521.962 38.2412 522.063 36.5964 522.016 36.4395C521.972 36.2791 521.841 36.0852 521.648 35.8868L521.482 35.7172L521.921 34.9901C522.162 34.5932 522.36 34.2594 522.36 34.2488C522.361 34.2382 522.323 34.202 522.281 34.1694L522.197 34.1077L522.433 33.81L522.673 33.516L522.575 33.4079C522.341 33.1413 521.124 31.847 521.007 31.7349C520.908 31.6446 520.767 31.5819 520.484 31.4919C520.216 31.4058 520.094 31.3789 520.082 31.4071C520.074 31.4318 520.037 31.5447 520 31.6612C519.903 31.9789 519.915 31.9649 519.808 31.9241C519.712 31.8905 519.704 31.9046 519.351 32.5231C519.106 32.9519 518.976 33.1449 518.945 33.1302C518.918 33.1155 518.816 33.0357 518.71 32.9523C518.607 32.869 518.356 32.6909 518.159 32.5598L517.793 32.3195L517.732 32.07C517.614 31.5712 517.261 30.8201 516.667 29.7952C516.506 29.5193 516.331 29.1899 516.275 29.0648C516.127 28.7251 515.943 28.463 515.663 28.2099C515.527 28.0869 515.379 27.9177 515.335 27.8318C515.234 27.6384 515.071 27.5292 514.791 27.4748C514.672 27.4515 514.542 27.4209 514.503 27.4132C514.412 27.3868 514.326 27.2115 514.329 27.0625C514.33 26.9561 514.308 26.9202 514.182 26.8329C514.099 26.7747 513.908 26.6899 513.751 26.6447C513.598 26.5995 513.449 26.5509 513.418 26.5362C513.388 26.5215 513.205 26.2061 513.011 25.8374L512.657 25.1678L512.731 25.0874C512.88 24.9338 512.982 24.7865 512.984 24.7191C512.984 24.6801 512.936 24.5551 512.873 24.4405C512.798 24.3008 512.762 24.176 512.764 24.0696C512.765 23.9809 512.745 23.7925 512.717 23.6465C512.675 23.4223 512.676 23.3584 512.725 23.1925C512.806 22.9241 512.799 22.885 512.653 22.6732C512.555 22.5331 512.522 22.451 512.524 22.341C512.525 22.2594 512.493 22.0885 512.453 21.9637C512.413 21.8423 512.38 21.7354 512.38 21.7282C512.38 21.7212 512.442 21.7293 512.522 21.7448L512.66 21.772L512.636 21.4026C512.624 21.2001 512.617 20.9445 512.622 20.831C512.628 20.7211 512.608 20.515 512.576 20.3725C512.548 20.2301 512.531 20.1092 512.538 20.1022C512.542 20.0952 513.394 19.9889 514.423 19.8679C515.452 19.7433 516.288 19.6368 516.281 19.626C516.269 19.6151 512.896 19.434 512.285 19.4131C512.185 19.4114 512.147 19.3752 512.019 19.1885C511.937 19.0665 511.866 18.9553 511.858 18.941C511.854 18.9303 512.491 18.5862 513.275 18.1771C514.838 17.3625 514.966 17.2902 514.665 17.388C514.56 17.4253 513.757 17.6601 512.879 17.915L511.287 18.3742L510.972 18.1489C510.801 18.0254 510.603 17.8943 510.534 17.8648C510.465 17.8317 510.408 17.7988 510.409 17.7846C510.409 17.7739 510.661 17.1892 510.969 16.4847C511.277 15.7802 511.525 15.1989 511.521 15.1917C511.514 15.1881 511.141 15.6501 510.685 16.2208C510.233 16.7916 509.813 17.3168 509.754 17.3868L509.648 17.5163L509.464 17.4635C509.361 17.4333 509.112 17.3865 508.912 17.3584L508.551 17.3097L507.578 15.7603C507.042 14.9067 506.6 14.2145 506.596 14.2215C506.588 14.2285 506.83 14.9174 507.135 15.76C507.437 16.5989 507.686 17.288 507.686 17.2951C507.686 17.3022 507.628 17.3154 507.563 17.3285C507.331 17.3672 507.053 17.4512 506.824 17.5502L506.603 17.6494L504.971 16.8731C503.258 16.0564 502.788 15.8392 502.788 15.8605C502.788 15.8675 503.495 16.355 504.358 16.9409C505.217 17.5267 505.947 18.0251 505.977 18.0505C506.023 18.0902 506.015 18.1185 505.928 18.2483C505.877 18.3326 505.805 18.4663 505.781 18.5474C505.752 18.6322 505.713 18.6989 505.697 18.6986C505.678 18.6983 504.977 18.7433 504.138 18.7965C503.299 18.8498 502.598 18.8841 502.579 18.8731C502.56 18.8621 502.546 18.7803 502.548 18.6916C502.552 18.4398 502.451 17.8171 502.353 17.4854C502.306 17.3214 502.081 16.7073 501.857 16.1215C501.075 14.0999 500.654 12.8828 500.386 11.867C500.263 11.3894 500.239 11.2364 500.22 10.7464C500.207 10.4339 500.174 10.0963 500.145 9.99997C500.006 9.52568 499.745 9.0529 499.357 8.57086C499.229 8.41611 499.101 8.25423 499.067 8.21112C499.018 8.14638 499.016 8.06828 499.05 7.65727L499.092 7.1789L499.225 7.06761C499.397 6.92505 499.423 6.73738 499.291 6.5613C499.257 6.51107 499.216 6.43585 499.202 6.39654C499.18 6.32524 499.195 6.31837 499.419 6.30087C500.096 6.24491 500.65 6.05553 500.803 5.83101C500.953 5.61709 500.9 5.32167 500.667 5.0445C500.572 4.9329 500.55 4.87221 500.553 4.73386C500.556 4.51392 500.608 4.40479 500.76 4.27606L500.885 4.17526L500.781 4.17351C500.701 4.17215 500.659 4.14305 500.61 4.06417C500.554 3.96741 500.531 3.95638 500.423 3.9723C500.273 3.99461 500.051 3.90925 499.995 3.80895C499.958 3.74445 499.943 3.74064 499.827 3.78126C499.761 3.80854 499.553 3.83697 499.368 3.84449L499.029 3.86362L499.036 3.46985L499.042 3.07608L499.175 2.97187C499.381 2.81212 499.551 2.5524 499.593 2.33311C499.644 2.07493 499.711 1.96251 500.044 1.58845C500.448 1.13751 500.495 1.07089 500.537 0.879981C500.558 0.788072 500.594 0.664494 500.618 0.61167C500.642 0.5553 500.663 0.474035 500.664 0.427919C500.665 0.335685 500.558 0.0890309 500.516 0.0883172C500.504 0.0881225 500.461 0.144168 500.425 0.210985ZM504.269 19.2246C504.83 19.2624 505.376 19.3071 505.479 19.3195L505.671 19.3405L505.729 19.5792C505.761 19.711 505.782 19.825 505.774 19.8319C505.767 19.8388 505.261 19.9368 504.652 20.0471L503.541 20.252L503.427 20.1223C503.235 19.8955 503.026 19.7217 502.919 19.6985C502.804 19.6753 502.677 19.4674 502.631 19.2324L502.606 19.0972L502.929 19.1274C503.105 19.141 503.709 19.1867 504.269 19.2246ZM505.906 20.7141C505.911 20.8278 505.9 21.0299 505.879 21.1679C505.861 21.3095 505.857 21.565 505.876 21.7711C505.902 22.066 505.924 22.1374 505.992 22.1882C506.102 22.2752 506.26 22.2743 506.388 22.1842C506.482 22.1184 506.49 22.1185 506.489 22.1788C506.486 22.3207 505.641 23.662 505.556 23.6641C505.467 23.6626 505.058 23.3399 504.755 23.0296C504.373 22.6434 504.235 22.3963 504.27 22.1733C504.291 22.0424 504.277 21.9818 504.18 21.8063C504.112 21.6845 504.05 21.5167 504.04 21.403C504.027 21.2928 503.957 21.0716 503.883 20.9106C503.813 20.7498 503.754 20.6139 503.757 20.614C503.773 20.6072 505.54 20.5164 505.717 20.5122L505.894 20.5117L505.906 20.7141Z"
       fill="url(#paint0_linear_0_1)"
       id="path5" />
  </g>
  <path
     d="M500.425 0.210985C500.266 0.502825 499.932 0.724282 499.437 0.86497C499.329 0.895082 499.217 0.946408 499.193 0.974401C499.107 1.06166 499.096 1.02599 499.112 0.742391C499.133 0.430475 499.082 0.284122 498.914 0.178392C498.819 0.12001 498.811 0.11988 498.749 0.189791C498.651 0.29814 498.484 0.387583 498.074 0.543887C497.71 0.683235 497.503 0.828789 497.502 0.945853C497.501 0.97423 497.478 0.995126 497.451 0.994672C497.343 0.992855 497.039 1.21129 496.902 1.38639C496.536 1.86635 496.576 2.47025 497.007 2.91399L497.162 3.07628L497.144 3.44502L497.126 3.81021L496.8 3.79051C496.619 3.78036 496.408 3.75196 496.328 3.72577C496.198 3.68099 496.182 3.68428 496.143 3.74749C496.084 3.84229 495.859 3.92012 495.71 3.89276C495.602 3.8732 495.579 3.88346 495.52 3.97827C495.468 4.05546 495.426 4.08313 495.345 4.08177L495.237 4.0835L495.347 4.15988C495.488 4.2616 495.558 4.42957 495.554 4.65306C495.552 4.80915 495.532 4.85848 495.418 4.98431C495.077 5.35114 495.121 5.71739 495.533 5.95498C495.738 6.07551 496.205 6.20405 496.635 6.2539C496.904 6.28329 496.919 6.30835 496.773 6.49754C496.624 6.69015 496.636 6.87846 496.799 7.02667C496.913 7.13151 496.931 7.16729 496.947 7.39467L496.969 7.64697L496.85 7.66981C496.784 7.67936 496.675 7.73427 496.613 7.79001C496.523 7.87362 496.499 7.92294 496.497 8.0471C496.496 8.1322 496.525 8.24628 496.566 8.31083C496.633 8.41843 496.633 8.42196 496.562 8.50596C496.351 8.75077 496.393 8.96794 496.683 9.10409C496.775 9.14823 496.874 9.18184 496.905 9.18236C496.936 9.18642 496.904 9.20721 496.839 9.23091C496.688 9.28869 496.589 9.41122 496.587 9.53897C496.585 9.66313 496.778 9.87217 496.95 9.9354C497.023 9.95789 497.08 9.99791 497.083 10.0192C497.083 10.037 497.101 10.3389 497.118 10.6834C497.148 11.1842 497.142 11.3261 497.106 11.3752C497.079 11.4067 497.054 11.5091 497.052 11.6013C497.051 11.7042 497.026 11.7819 496.991 11.8097C496.906 11.8721 496.916 11.9503 497.043 12.1867C497.117 12.3228 497.168 12.4975 497.192 12.6824C497.223 12.9065 497.248 12.985 497.32 13.0465C497.389 13.1045 497.411 13.1616 497.409 13.2716C497.403 13.6441 497.782 13.9273 498.093 13.7799C498.178 13.7388 498.167 13.6783 498.269 14.7232C498.502 17.0798 498.85 18.5725 499.42 19.6643C499.558 19.9257 499.646 20.1827 499.783 20.6995C499.885 21.0773 499.99 21.4624 500.023 21.5516L500.074 21.7122L499.891 22.064C499.653 22.5141 499.274 23.5119 499.114 24.1231C498.773 25.4161 498.767 26.4663 499.095 26.8516C499.291 27.082 499.383 27.1261 499.694 27.1349C499.905 27.142 499.993 27.1612 500.043 27.2047C500.077 27.2372 500.157 27.2775 500.218 27.2892C500.31 27.3085 500.329 27.3266 500.309 27.3866C500.155 27.863 500.181 28.1296 500.412 28.3677C500.532 28.501 500.643 28.549 501.018 28.644C501.045 28.6516 501.07 28.7939 501.086 28.9894C501.11 29.3588 501.217 30.0632 501.38 30.9212C501.475 31.4231 501.481 31.5119 501.44 31.678C501.329 32.1374 501.533 32.556 502.012 32.8657L502.263 33.0296L502.264 33.2177C502.261 33.388 502.241 33.4302 502.049 33.6754C501.164 34.8137 500.395 36.4152 500.127 37.6776C500.035 38.1302 500.017 38.9851 500.095 39.3661C500.216 39.9571 500.492 40.4728 500.908 40.8843L501.131 41.1081L501.012 41.5461C500.652 42.8529 500.568 43.7209 500.598 45.8327C500.612 46.7946 500.626 46.8551 500.873 47.2603C501.027 47.5007 501.28 48.243 501.346 48.6415C501.367 48.7519 501.385 49.2951 501.383 49.8522C501.386 50.4093 501.402 51.0306 501.422 51.2367C501.441 51.4429 501.46 51.9435 501.46 52.3551C501.461 53.2351 501.597 54.2842 501.838 55.2715C501.87 55.4135 501.907 55.7693 501.917 56.0888C501.929 56.5006 501.966 56.8133 502.047 57.2263C502.108 57.5394 502.224 58.1309 502.302 58.5438C502.567 59.9459 502.825 60.8591 503.065 61.2145C503.17 61.3759 503.173 61.397 503.166 61.7979C503.127 63.9192 502.657 66.0012 501.895 67.422C501.776 67.6437 501.672 67.8298 501.665 67.8369C501.657 67.8439 501.422 67.8753 501.144 67.9098C500.038 68.0403 499.442 68.2535 499.287 68.5774C499.255 68.6409 499.169 68.703 499.042 68.7577C498.933 68.8023 498.782 68.8953 498.703 68.9653L498.563 69.0938L497.927 69.1472C496.737 69.2442 496.047 69.3497 495.845 69.4562L495.729 69.5217L495.713 70.4865L495.696 71.4547L495.096 71.7285C494.766 71.8793 494.495 72.0128 494.494 72.0239C494.492 72.1515 494.778 72.7524 494.992 73.0543L495.128 73.2444L495.113 74.1386L495.097 75.0322L494.938 75.1682C494.711 75.3666 494.588 75.57 494.558 75.8004L494.531 75.995L508.303 76.2274C521.56 76.4511 522.071 76.4564 522.072 76.3957C522.073 76.3603 522.047 76.2997 522.017 76.2599C521.972 76.2061 521.967 76.0249 521.976 75.2764L521.991 74.3646L522.148 74.1584C522.306 73.955 522.635 73.3645 522.676 73.2199C522.692 73.1527 522.65 73.1233 522.307 72.9827C522.097 72.8974 521.822 72.7795 521.704 72.7206L521.482 72.6174L521.498 71.6774L521.514 70.7374L521.319 70.6452C521.087 70.528 519.809 70.1126 519.258 69.9685C518.929 69.8844 518.841 69.8476 518.769 69.7613C518.72 69.7036 518.598 69.6165 518.495 69.5689C518.179 69.4144 518.003 69.1418 517.693 68.3239C517.355 67.4415 516.947 66.0507 517.017 66.0132C517.203 65.913 517.186 64.9018 516.967 63.0672L516.91 62.5867L517.052 62.3797C517.268 62.068 517.298 61.8983 517.26 61.2198C517.238 60.9001 517.216 60.3887 517.21 60.0798C517.192 59.5508 517.196 59.5155 517.27 59.4422C517.313 59.4004 517.372 59.3301 517.396 59.288C517.451 59.1895 517.46 58.672 517.411 58.4225C517.389 58.3155 517.377 57.8933 517.377 57.4778L517.382 56.726L517.529 56.6677C517.61 56.6376 517.691 56.5926 517.711 56.5719C517.731 56.5474 517.714 56.1709 517.669 55.627C517.577 54.4936 517.574 54.4119 517.676 54.332C517.719 54.2972 517.742 54.2586 517.735 54.2443C517.697 54.1834 517.589 52.8863 517.601 52.6098C517.608 52.4431 517.586 52.1411 517.555 51.9348C517.52 51.7283 517.333 50.2313 517.142 48.61C516.707 44.9691 516.66 44.5744 516.671 44.5746C516.756 44.576 517.168 44.7817 517.484 44.9786C517.959 45.2741 518.04 45.3073 518.305 45.3118C518.816 45.3205 519.243 45.1219 519.603 44.7057C519.741 44.5448 519.85 44.4508 519.896 44.4516C520.011 44.4536 520.241 44.2977 520.382 44.1227C520.544 43.9196 520.746 43.5327 520.875 43.1729C521.077 42.6086 521.314 41.541 521.321 41.1649C521.323 41.0549 521.367 40.9244 521.462 40.7486C521.625 40.4391 521.705 40.0288 521.682 39.6132C521.67 39.3931 521.683 39.301 521.743 39.1601C521.783 39.0649 521.848 38.8354 521.882 38.6586C521.962 38.2412 522.063 36.5964 522.016 36.4395C521.972 36.2791 521.841 36.0852 521.648 35.8868L521.482 35.7172L521.921 34.9901C522.162 34.5932 522.36 34.2594 522.36 34.2488C522.361 34.2382 522.323 34.202 522.281 34.1694L522.197 34.1077L522.433 33.81L522.673 33.516L522.575 33.4079C522.341 33.1413 521.124 31.847 521.007 31.7349C520.908 31.6446 520.767 31.5819 520.484 31.4919C520.216 31.4058 520.094 31.3789 520.082 31.4071C520.074 31.4318 520.037 31.5447 520 31.6612C519.903 31.9789 519.915 31.9649 519.808 31.9241C519.712 31.8905 519.704 31.9046 519.351 32.5231C519.106 32.9519 518.976 33.1449 518.945 33.1302C518.918 33.1155 518.816 33.0357 518.71 32.9523C518.607 32.869 518.356 32.6909 518.159 32.5598L517.793 32.3195L517.732 32.07C517.614 31.5712 517.261 30.8201 516.667 29.7952C516.506 29.5193 516.331 29.1899 516.275 29.0648C516.127 28.7251 515.943 28.463 515.663 28.2099C515.527 28.0869 515.379 27.9177 515.335 27.8318C515.234 27.6384 515.071 27.5292 514.791 27.4748C514.672 27.4515 514.542 27.4209 514.503 27.4132C514.412 27.3868 514.326 27.2115 514.329 27.0625C514.33 26.9561 514.308 26.9202 514.182 26.8329C514.099 26.7747 513.908 26.6899 513.751 26.6447C513.598 26.5995 513.449 26.5509 513.418 26.5362C513.388 26.5215 513.205 26.2061 513.011 25.8374L512.657 25.1678L512.731 25.0874C512.88 24.9338 512.982 24.7865 512.984 24.7191C512.984 24.6801 512.936 24.5551 512.873 24.4405C512.798 24.3008 512.762 24.176 512.764 24.0696C512.765 23.9809 512.745 23.7925 512.717 23.6465C512.675 23.4223 512.676 23.3584 512.725 23.1925C512.806 22.9241 512.799 22.885 512.653 22.6732C512.555 22.5331 512.522 22.451 512.524 22.341C512.525 22.2594 512.493 22.0885 512.453 21.9637C512.413 21.8423 512.38 21.7354 512.38 21.7282C512.38 21.7212 512.442 21.7293 512.522 21.7448L512.66 21.772L512.636 21.4026C512.624 21.2001 512.617 20.9445 512.622 20.831C512.628 20.7211 512.608 20.515 512.576 20.3725C512.548 20.2301 512.531 20.1092 512.538 20.1022C512.542 20.0952 513.394 19.9889 514.423 19.8679C515.452 19.7433 516.288 19.6368 516.281 19.626C516.269 19.6151 512.896 19.434 512.285 19.4131C512.185 19.4114 512.147 19.3752 512.019 19.1885C511.937 19.0665 511.866 18.9553 511.858 18.941C511.854 18.9303 512.491 18.5862 513.275 18.1771C514.838 17.3625 514.966 17.2902 514.665 17.388C514.56 17.4253 513.757 17.6601 512.879 17.915L511.287 18.3742L510.972 18.1489C510.801 18.0254 510.603 17.8943 510.534 17.8648C510.465 17.8317 510.408 17.7988 510.409 17.7846C510.409 17.7739 510.661 17.1892 510.969 16.4847C511.277 15.7802 511.525 15.1989 511.521 15.1917C511.514 15.1881 511.141 15.6501 510.685 16.2208C510.233 16.7916 509.813 17.3168 509.754 17.3868L509.648 17.5163L509.464 17.4635C509.361 17.4333 509.112 17.3865 508.912 17.3584L508.551 17.3097L507.578 15.7603C507.042 14.9067 506.6 14.2145 506.596 14.2215C506.588 14.2285 506.83 14.9174 507.135 15.76C507.437 16.5989 507.686 17.288 507.686 17.2951C507.686 17.3022 507.628 17.3154 507.563 17.3285C507.331 17.3672 507.053 17.4512 506.824 17.5502L506.603 17.6494L504.971 16.8731C503.258 16.0564 502.788 15.8392 502.788 15.8605C502.788 15.8675 503.495 16.355 504.358 16.9409C505.217 17.5267 505.947 18.0251 505.977 18.0505C506.023 18.0902 506.015 18.1185 505.928 18.2483C505.877 18.3326 505.805 18.4663 505.781 18.5474C505.752 18.6322 505.713 18.6989 505.697 18.6986C505.678 18.6983 504.977 18.7433 504.138 18.7965C503.299 18.8498 502.598 18.8841 502.579 18.8731C502.56 18.8621 502.546 18.7803 502.548 18.6916C502.552 18.4398 502.451 17.8171 502.353 17.4854C502.306 17.3214 502.081 16.7073 501.857 16.1215C501.075 14.0999 500.654 12.8828 500.386 11.867C500.263 11.3894 500.239 11.2364 500.22 10.7464C500.207 10.4339 500.174 10.0963 500.145 9.99997C500.006 9.52568 499.745 9.0529 499.357 8.57086C499.229 8.41611 499.101 8.25423 499.067 8.21112C499.018 8.14638 499.016 8.06828 499.05 7.65727L499.092 7.1789L499.225 7.06761C499.397 6.92505 499.423 6.73738 499.291 6.5613C499.257 6.51107 499.216 6.43585 499.202 6.39654C499.18 6.32524 499.195 6.31837 499.419 6.30087C500.096 6.24491 500.65 6.05553 500.803 5.83101C500.953 5.61709 500.9 5.32167 500.667 5.0445C500.572 4.9329 500.55 4.87221 500.553 4.73386C500.556 4.51392 500.608 4.40479 500.76 4.27606L500.885 4.17526L500.781 4.17351C500.701 4.17215 500.659 4.14305 500.61 4.06417C500.554 3.96741 500.531 3.95638 500.423 3.9723C500.273 3.99461 500.051 3.90925 499.995 3.80895C499.958 3.74445 499.943 3.74064 499.827 3.78126C499.761 3.80854 499.553 3.83697 499.368 3.84449L499.029 3.86362L499.036 3.46985L499.042 3.07608L499.175 2.97187C499.381 2.81212 499.551 2.5524 499.593 2.33311C499.644 2.07493 499.711 1.96251 500.044 1.58845C500.448 1.13751 500.495 1.07089 500.537 0.879981C500.558 0.788072 500.594 0.664494 500.618 0.61167C500.642 0.5553 500.663 0.474035 500.664 0.427919C500.665 0.335685 500.558 0.0890309 500.516 0.0883172C500.504 0.0881225 500.461 0.144168 500.425 0.210985ZM504.269 19.2246C504.83 19.2624 505.376 19.3071 505.479 19.3195L505.671 19.3405L505.729 19.5792C505.761 19.711 505.782 19.825 505.774 19.8319C505.767 19.8388 505.261 19.9368 504.652 20.0471L503.541 20.252L503.427 20.1223C503.235 19.8955 503.026 19.7217 502.919 19.6985C502.804 19.6753 502.677 19.4674 502.631 19.2324L502.606 19.0972L502.929 19.1274C503.105 19.141 503.709 19.1867 504.269 19.2246ZM505.906 20.7141C505.911 20.8278 505.9 21.0299 505.879 21.1679C505.861 21.3095 505.857 21.565 505.876 21.7711C505.902 22.066 505.924 22.1374 505.992 22.1882C506.102 22.2752 506.26 22.2743 506.388 22.1842C506.482 22.1184 506.49 22.1185 506.489 22.1788C506.486 22.3207 505.641 23.662 505.556 23.6641C505.467 23.6626 505.058 23.3399 504.755 23.0296C504.373 22.6434 504.235 22.3963 504.27 22.1733C504.291 22.0424 504.277 21.9818 504.18 21.8063C504.112 21.6845 504.05 21.5167 504.04 21.403C504.027 21.2928 503.957 21.0716 503.883 20.9106C503.813 20.7498 503.754 20.6139 503.757 20.614C503.773 20.6072 505.54 20.5164 505.717 20.5122L505.894 20.5117L505.906 20.7141Z"
     stroke="black"
     stroke-opacity="0.3"
     stroke-width="2.2"
     mask="url(#path-4-inside-1_0_1)"
     id="path6" />
  <g
     filter="url(#filter2_d_0_1)"
     id="g7">
    <path
       d="M270.44 111.865C266.37 113.625 261.64 114.89 256.25 115.66C250.86 116.43 245.855 116.815 241.235 116.815C226.275 116.815 214.56 112.91 206.09 105.1C197.62 97.29 193.385 85.3 193.385 69.13C193.385 52.63 197.84 40.31 206.75 32.17C215.66 23.92 228.2 19.795 244.37 19.795C252.07 19.795 260.1 20.84 268.46 22.93C268.46 25.13 268.24 28.43 267.8 32.83C267.36 37.12 266.92 40.145 266.48 41.905H256.085C248.495 41.905 242.5 42.07 238.1 42.4C233.81 42.62 231.225 43.115 230.345 43.885C228.695 45.425 227.43 48.56 226.55 53.29C225.67 57.91 225.23 62.365 225.23 66.655C225.23 74.135 226.165 79.91 228.035 83.98C229.905 87.94 232.27 90.58 235.13 91.9C237.88 93.22 242.445 93.88 248.825 93.88C253.885 93.88 260.485 93.44 268.625 92.56L270.44 111.865Z"
       fill="url(#paint1_linear_0_1)"
       id="path7" />
  </g>
  <g
     filter="url(#filter3_d_0_1)"
     id="g8">
    <path
       d="M165.193 84.97V115H135.493V85.3L103.813 20.95H134.008L146.548 51.475C147.868 54.555 149.078 57.8 150.178 61.21H150.508C151.718 57.47 152.928 54.115 154.138 51.145L166.513 20.95H196.543L165.193 84.97Z"
       fill="url(#paint2_linear_0_1)"
       id="path8" />
  </g>
  <g
     filter="url(#filter4_d_0_1)"
     id="g9">
    <path
       d="M32.7819 77.0702V115H5V21H33.1146L58.2348 58.9298C62.0055 64.5368 64.8891 69.2643 66.8854 73.1123H67.3845V57.2807V21H95V115H66.719L40.9335 75.4211L33.4473 64.207H32.9482L32.7819 77.0702Z"
       fill="url(#paint3_linear_0_1)"
       id="path9" />
  </g>
  <g
     filter="url(#filter5_d_0_1)"
     id="g10">
    <path
       fill-rule="evenodd"
       clip-rule="evenodd"
       d="M271.503 112.495L270.836 112.783C266.669 114.585 261.85 115.87 256.391 116.65C250.962 117.425 245.909 117.815 241.235 117.815C226.101 117.815 214.116 113.861 205.412 105.835C196.664 97.7695 192.385 85.4635 192.385 69.13C192.385 52.4582 196.889 39.8259 206.072 31.4346C215.221 22.9642 228.034 18.795 244.37 18.795C252.16 18.795 260.272 19.8523 268.702 21.9598L269.46 22.1492V22.93C269.46 25.1818 269.235 28.5224 268.795 32.9295L268.794 32.932C268.354 37.2227 267.909 40.3112 267.45 42.1475L267.26 42.905H256.085C248.505 42.905 242.538 43.0699 238.174 43.3972L238.163 43.3981L238.151 43.3987C236.027 43.5076 234.36 43.6832 233.131 43.9184C231.864 44.161 231.241 44.4375 231.013 44.629C229.624 45.9363 228.406 48.7764 227.533 53.4729L227.532 53.4771C226.663 58.0413 226.23 62.4334 226.23 66.655C226.23 74.0719 227.16 79.6781 228.941 83.5575C230.749 87.3848 232.973 89.8032 235.549 90.992L235.555 90.9952L235.562 90.9985C238.096 92.2146 242.466 92.88 248.825 92.88C253.834 92.88 260.394 92.444 268.517 91.5658L269.525 91.4568L271.503 112.495ZM228.035 83.98C226.165 79.91 225.23 74.135 225.23 66.655C225.23 62.365 225.67 57.91 226.55 53.29C227.43 48.56 228.695 45.425 230.345 43.885C231.225 43.115 233.81 42.62 238.1 42.4C242.5 42.07 248.495 41.905 256.085 41.905H266.48C266.92 40.145 267.36 37.12 267.8 32.83C268.24 28.43 268.46 25.13 268.46 22.93C260.1 20.84 252.07 19.795 244.37 19.795C228.2 19.795 215.66 23.92 206.75 32.17C197.84 40.31 193.385 52.63 193.385 69.13C193.385 85.3 197.62 97.29 206.09 105.1C214.56 112.91 226.275 116.815 241.235 116.815C245.855 116.815 250.86 116.43 256.25 115.66C261.64 114.89 266.37 113.625 270.44 111.865L268.625 92.56C268.624 92.56 268.625 92.56 268.625 92.56C268.291 92.5961 267.959 92.6315 267.63 92.6661C259.945 93.4754 253.677 93.88 248.825 93.88C242.445 93.88 237.88 93.22 235.13 91.9C232.27 90.58 229.905 87.94 228.035 83.98Z"
       fill="url(#paint4_linear_0_1)"
       fill-opacity="0.7"
       shape-rendering="crispEdges"
       id="path10" />
  </g>
  <g
     filter="url(#filter6_d_0_1)"
     id="g11">
    <path
       fill-rule="evenodd"
       clip-rule="evenodd"
       d="M165.193 84.97L196.543 20.95H166.513L154.138 51.145C153.048 53.8195 151.959 56.8061 150.869 60.1049C150.761 60.4306 150.654 60.7593 150.546 61.0911C150.533 61.1307 150.521 61.1704 150.508 61.21H150.178C150.165 61.1703 150.152 61.1305 150.139 61.0908C150.032 60.761 149.925 60.4327 149.816 60.1059C148.814 57.0978 147.725 54.2208 146.548 51.475L134.008 20.95H103.813L135.493 85.3V115H165.193V84.97ZM134.493 85.5328V116H166.193V85.2017L198.146 19.95H165.842L153.212 50.7658L153.212 50.7677C152.253 53.122 151.295 55.7116 150.339 58.5357C149.449 55.9569 148.492 53.4743 147.47 51.0881C147.469 51.0858 147.468 51.0834 147.467 51.0811L134.678 19.95H102.206L134.493 85.5328Z"
       fill="url(#paint5_linear_0_1)"
       fill-opacity="0.7"
       shape-rendering="crispEdges"
       id="path11" />
  </g>
  <g
     filter="url(#filter7_d_0_1)"
     id="g12">
    <path
       fill-rule="evenodd"
       clip-rule="evenodd"
       d="M32.555 77.1L32.72 64.23H33.215L40.64 75.45L66.215 115.05H94.265V21H66.875V73.14H66.38C66.2176 72.8242 66.0493 72.5025 65.875 72.1748C63.9249 68.5081 61.2332 64.0998 57.8 58.95L32.885 21H5V115.05H32.555V77.1ZM58.632 58.3953L33.4247 20H4V116.05H33.555V77.1L33.6877 66.7563L39.8 75.9925L39.8061 76.0019L65.6704 116.05H95.265V20H65.875V70.0849C64.0034 66.7261 61.5882 62.8297 58.6345 58.3989C58.6337 58.3977 58.6329 58.3965 58.632 58.3953Z"
       fill="url(#paint6_linear_0_1)"
       fill-opacity="0.7"
       shape-rendering="crispEdges"
       id="path12" />
  </g>
  <g
     filter="url(#filter8_d_0_1)"
     id="g13">
    <path
       d="M482.905 70H465.473L455.651 51.8171C455.474 51.5325 455.002 50.7358 454.235 49.4268C453.527 48.1179 452.731 46.8658 451.846 45.6707V70H435.918V21.3414H451.846V43.4512C452.849 42.3699 453.704 41.2032 454.412 39.9512C455.179 38.6423 455.621 37.874 455.739 37.6463L465.207 21.3414H482.02L471.933 37.6463C471.756 37.874 471.372 38.4715 470.782 39.439C470.192 40.4065 469.543 41.3171 468.835 42.1707C468.187 42.9675 467.479 43.7073 466.712 44.3902C467.774 45.3577 468.629 46.3252 469.278 47.2927C469.986 48.2032 470.782 49.4268 471.667 50.9634L482.905 70Z"
       fill="#586359"
       id="path13" />
  </g>
  <g
     filter="url(#filter9_d_0_1)"
     id="g14">
    <path
       d="M430.425 70H413.701L410.692 57.7073C410.574 57.2521 410.367 56.4838 410.073 55.4025C409.837 54.2642 409.542 53.439 409.188 52.9268C408.834 52.3577 408.332 51.9878 407.683 51.8171C406.032 51.874 403.613 51.9025 400.427 51.9025V70H384.5V21.7683C391.638 21.2561 398.304 21 404.498 21C410.102 21 414.644 21.4553 418.125 22.3659C421.605 23.2195 424.201 24.7276 425.912 26.8902C427.682 28.9959 428.567 31.8984 428.567 35.5976C428.567 39.0691 427.741 41.8008 426.089 43.7927C424.437 45.7277 421.782 46.8943 418.125 47.2927V47.8049C420.19 47.9756 421.9 48.6301 423.257 49.7683C424.673 50.8496 425.617 52.2439 426.089 53.9512L430.425 70ZM400.427 42.2561C400.958 42.313 401.991 42.3415 403.524 42.3415C408.067 42.3415 410.721 41.9716 411.488 41.2317C412.196 40.5488 412.55 38.9553 412.55 36.4512C412.55 34.1179 411.901 32.5244 410.603 31.6707C409.365 30.8171 407.3 30.3902 404.409 30.3902C403.76 30.3902 402.433 30.4472 400.427 30.561V42.2561Z"
       fill="#586359"
       id="path14" />
  </g>
  <g
     filter="url(#filter10_d_0_1)"
     id="g15">
    <path
       d="M361.074 59.3293H346.385L343.731 70H327.449L343.731 21.3414H364.525L380.099 70H363.729L361.074 59.3293ZM353.641 31.8414L348.421 49.8536H358.951L353.995 31.8414H353.641Z"
       fill="#586359"
       id="path15" />
  </g>
  <g
     filter="url(#filter11_d_0_1)"
     id="g16">
    <path
       d="M304.352 21.0853C309.131 21.0853 313.172 21.5122 316.475 22.3658C319.779 23.2195 322.404 24.8699 324.351 27.317C326.356 29.7073 327.359 33.1504 327.359 37.6463C327.359 39.6382 327.035 41.687 326.386 43.7927C325.796 45.8414 325.029 47.6341 324.085 49.1707C323.2 50.7073 322.404 51.7032 321.696 52.1585C320.87 52.7276 319.041 53.1829 316.21 53.5244C313.378 53.8089 310.045 53.9512 306.21 53.9512C304.854 53.9512 302.759 53.8943 299.928 53.7805V70H284V21.3414C290.194 21.1707 296.978 21.0853 304.352 21.0853ZM310.989 43.0244C311.579 42.2845 311.874 40.8048 311.874 38.5853C311.874 35.6829 311.225 33.6341 309.927 32.439C308.688 31.2439 306.505 30.6463 303.379 30.6463C302.317 30.6463 301.167 30.7317 299.928 30.9024V43.878C300.518 43.9349 301.668 43.9634 303.379 43.9634C307.921 43.9634 310.458 43.6504 310.989 43.0244Z"
       fill="#586359"
       id="path16" />
  </g>
  <g
     filter="url(#filter12_d_0_1)"
     id="g17">
    <path
       fill-rule="evenodd"
       clip-rule="evenodd"
       d="M483 71H464.269L454.741 52.5491C454.555 52.2351 454.108 51.4445 453.408 50.1943L453.4 50.1798L453.392 50.1651C453.261 49.9128 453.128 49.6628 452.991 49.415V71H436V21H452.991V40.868C453.194 40.5456 453.386 40.2166 453.567 39.8812L453.571 39.8746L453.575 39.8681C454.306 38.5629 454.706 37.8339 454.803 37.638L454.814 37.6172L464.039 21H482.206L471.776 38.6341L471.745 38.6759C471.618 38.8463 471.287 39.3806 470.72 40.3528C470.141 41.346 469.503 42.2826 468.806 43.162C468.376 43.7151 467.918 44.2421 467.435 44.7428C468.151 45.4961 468.761 46.2592 469.26 47.0333C469.959 47.9775 470.727 49.2171 471.565 50.7377C471.565 50.739 471.566 50.7403 471.567 50.7417L483 71ZM468.454 47.6006C467.991 46.8787 467.417 46.1567 466.732 45.4348C466.51 45.202 466.278 44.9692 466.033 44.7364C466.274 44.512 466.509 44.2813 466.738 44.0444C467.196 43.57 467.629 43.0705 468.037 42.5461C468.705 41.7037 469.317 40.8051 469.874 39.8503C470.43 38.8956 470.792 38.3059 470.959 38.0813L480.476 21.9911H464.614L455.682 38.0813C455.571 38.3059 455.153 39.0641 454.43 40.3558C454.006 41.1395 453.526 41.8894 452.991 42.6053C452.682 43.018 452.355 43.4195 452.009 43.8097V21.9911H436.982V70.0089H452.009V46C452.35 46.4822 452.677 46.9738 452.991 47.4748C453.444 48.1991 453.868 48.9431 454.263 49.7066C454.986 50.9983 455.431 51.7846 455.598 52.0654L464.865 70.0089H481.31L470.708 51.223C469.874 49.7066 469.122 48.4992 468.454 47.6006Z"
       fill="#265526"
       fill-opacity="0.9"
       shape-rendering="crispEdges"
       id="path17" />
  </g>
  <g
     filter="url(#filter13_d_0_1)"
     id="g18">
    <path
       fill-rule="evenodd"
       clip-rule="evenodd"
       d="M430 71H412.01L408.968 57.9488C408.967 57.9467 408.967 57.9445 408.966 57.9424C408.855 57.493 408.661 56.7322 408.381 55.6563L408.374 55.6272L408.368 55.5977C408.15 54.4948 407.899 53.8273 407.672 53.4826L407.659 53.4627L407.647 53.4422C407.463 53.1317 407.233 52.9365 406.931 52.8254C405.53 52.8728 403.601 52.899 401.148 52.9044V71H384V20.8401L384.918 20.7709C391.735 20.2573 398.106 20 404.032 20C409.409 20 413.828 20.4572 417.258 21.3986C420.719 22.2912 423.403 23.8941 425.2 26.2723C427.066 28.6109 427.939 31.7601 427.939 35.5992C427.939 39.2164 427.12 42.1959 425.363 44.4202L425.359 44.4258L425.354 44.4313C424.141 45.9233 422.464 46.9718 420.382 47.6229C421.163 47.9718 421.879 48.428 422.526 48.9947C424.034 50.2101 425.045 51.7858 425.547 53.6911L425.548 53.6965L430 71ZM421.893 49.7676C420.968 48.9522 419.869 48.3852 418.598 48.0664C418.112 47.9445 417.601 47.859 417.064 47.8096C417.045 47.8079 417.026 47.8062 417.007 47.8045V47.2924C417.021 47.2907 417.036 47.289 417.05 47.2873C417.596 47.2237 418.119 47.1411 418.618 47.0396C421.28 46.4976 423.27 45.4155 424.589 43.793C426.162 41.8014 426.948 39.0702 426.948 35.5992C426.948 31.9007 426.106 28.9987 424.421 26.8934C422.792 24.7311 420.32 23.2233 417.007 22.3698C413.693 21.4593 409.368 21.0041 404.032 21.0041C398.134 21.0041 391.787 21.2602 384.991 21.7723V69.9959H400.156V51.9014C403.189 51.9014 405.492 51.8729 407.065 51.816C407.683 51.9867 408.16 52.3566 408.497 52.9256C408.834 53.4377 409.115 54.2627 409.34 55.4008C409.621 56.4819 409.817 57.25 409.929 57.7053L412.794 69.9959H428.717L424.589 53.9498C424.14 52.2428 423.241 50.8487 421.893 49.7676ZM409.278 32.4965L409.269 32.4902C408.352 31.8266 406.652 31.3969 403.948 31.3969C403.465 31.3969 402.537 31.4344 401.148 31.512V41.3121C401.64 41.3288 402.289 41.3379 403.105 41.3379C405.248 41.3379 406.907 41.2458 408.103 41.0708C408.701 40.9832 409.157 40.8786 409.487 40.7661C409.834 40.648 409.962 40.548 409.987 40.5224C410.125 40.3827 410.324 40.0383 410.477 39.315C410.625 38.6139 410.708 37.6672 410.708 36.4527C410.708 34.2649 410.128 33.084 409.287 32.5027L409.278 32.4965ZM400.156 42.2566V30.5636C402.066 30.4498 403.33 30.3928 403.948 30.3928C406.7 30.3928 408.666 30.8195 409.845 31.6731C411.081 32.5266 411.699 34.1198 411.699 36.4527C411.699 38.9564 411.362 40.5496 410.688 41.2324C409.958 41.9721 407.43 42.342 403.105 42.342C401.645 42.342 400.662 42.3135 400.156 42.2566Z"
       fill="#265526"
       fill-opacity="0.9"
       shape-rendering="crispEdges"
       id="path18" />
  </g>
  <g
     filter="url(#filter14_d_0_1)"
     id="g19">
    <path
       fill-rule="evenodd"
       clip-rule="evenodd"
       d="M363.017 70.0089L360.482 59.4787H346.452L343.917 70.0089H328.366L343.917 21.9911H363.778L378.652 70.0089H363.017ZM347.236 60.4698L344.7 71H327L343.193 21H364.511L380 71H362.233L359.698 60.4698H347.236ZM348.396 50.1278H358.453L353.72 32.3528H353.382L348.396 50.1278ZM353.531 35.5041L349.706 49.1368H357.161L353.531 35.5041Z"
       fill="#265526"
       fill-opacity="0.9"
       shape-rendering="crispEdges"
       id="path19" />
  </g>
  <g
     filter="url(#filter15_d_0_1)"
     id="g20">
    <path
       fill-rule="evenodd"
       clip-rule="evenodd"
       d="M315.577 54.4931L315.566 54.4941C312.844 54.7837 309.654 54.927 306.002 54.927C304.869 54.927 303.214 54.8835 301.042 54.7974V71H284V20.2848L284.957 20.2569C290.829 20.0856 297.258 20 304.244 20C308.82 20 312.736 20.432 315.97 21.3167C319.286 22.2235 321.959 23.9909 323.942 26.6243C326.029 29.263 327 32.9678 327 37.5918C327 39.6904 326.677 41.836 326.041 44.0255C325.465 46.1382 324.712 48.0112 323.771 49.6342C322.932 51.1752 322.089 52.3538 321.214 52.9546C320.674 53.3439 319.91 53.6343 319.018 53.8692C318.097 54.1119 316.949 54.3179 315.587 54.4918L315.577 54.4931ZM322.917 49.1335C323.81 47.5946 324.536 45.7992 325.094 43.7474C325.708 41.6385 326.015 39.5866 326.015 37.5918C326.015 33.089 325.066 29.6408 323.168 27.2469C321.326 24.7961 318.842 23.1432 315.716 22.2882C312.589 21.4333 308.766 21.0058 304.244 21.0058C297.266 21.0058 290.847 21.0913 284.985 21.2623V69.9942H300.057V53.7502C300.397 53.7647 300.725 53.7782 301.042 53.7908C303.228 53.8777 304.881 53.9212 306.002 53.9212C309.631 53.9212 312.785 53.7787 315.464 53.4937C318.144 53.1518 319.874 52.6958 320.656 52.1258C321.326 51.6699 322.079 50.6724 322.917 49.1335ZM308.831 33.0961L308.823 33.0878C307.935 32.1818 306.208 31.587 303.323 31.587C302.613 31.587 301.854 31.6321 301.042 31.7237V42.8833C301.604 42.9023 302.361 42.9125 303.323 42.9125C305.457 42.9125 307.083 42.8343 308.222 42.6856C308.793 42.6109 309.21 42.5225 309.493 42.4306C309.668 42.374 309.751 42.3289 309.78 42.3124C309.916 42.1066 310.069 41.7359 310.185 41.1208C310.308 40.4643 310.376 39.6068 310.376 38.5322C310.376 35.7236 309.775 34.0166 308.839 33.1042L308.831 33.0961ZM310.524 42.9779C310.022 43.6049 307.621 43.9184 303.323 43.9184C301.704 43.9184 300.616 43.8899 300.057 43.8329V30.8377C301.23 30.6667 302.318 30.5812 303.323 30.5812C306.282 30.5812 308.347 31.1797 309.519 32.3766C310.747 33.5735 311.361 35.6254 311.361 38.5322C311.361 40.7551 311.082 42.237 310.524 42.9779Z"
       fill="#265526"
       fill-opacity="0.9"
       shape-rendering="crispEdges"
       id="path20" />
  </g>
  <g
     filter="url(#filter16_d_0_1)"
     id="g23">
    <mask
       id="path-19-outside-2_0_1"
       maskUnits="userSpaceOnUse"
       x="338"
       y="79"
       width="200"
       height="40"
       fill="black">
      <rect
         fill="white"
         x="338"
         y="79"
         width="200"
         height="40"
         id="rect20" />
      <path
         d="M339.359 80.95H365.944V89.01H351.059V96.355H363.344V103.44H351.059V118H339.359V80.95ZM369.959 80.95H381.659V118H369.959V80.95ZM399.094 103.05V118H388.239V80.95H399.224L409.039 95.9C410.512 98.11 411.639 99.9733 412.419 101.49H412.614V95.25V80.95H423.404V118H412.354L402.279 102.4L399.354 97.98H399.159L399.094 103.05ZM442.816 80.95C447.886 80.95 452.024 81.4267 455.231 82.38C458.481 83.3333 460.994 85.1317 462.771 87.775C464.591 90.4183 465.501 94.21 465.501 99.15C465.501 104.437 464.548 108.467 462.641 111.24C460.734 113.97 458.178 115.79 454.971 116.7C451.764 117.567 447.713 118 442.816 118H429.816V80.95H442.816ZM451.526 109.16C452.046 108.64 452.414 107.297 452.631 105.13C452.848 102.963 452.956 100.97 452.956 99.15C452.956 96.8533 452.783 95.0333 452.436 93.69C452.133 92.3033 451.569 91.1983 450.746 90.375C449.446 88.945 447.214 88.23 444.051 88.23C443.488 88.23 442.643 88.2733 441.516 88.36V109.94C442.253 110.027 443.401 110.07 444.961 110.07C446.564 110.07 447.973 110.005 449.186 109.875C450.443 109.702 451.223 109.463 451.526 109.16ZM470.37 80.95H497.345V88.75H482.07V95.51H494.94V102.53H482.07V110.07H497.28V118H470.37V80.95ZM536.041 118H523.756L521.546 108.64C521.459 108.293 521.308 107.708 521.091 106.885C520.918 106.018 520.701 105.39 520.441 105C520.181 104.567 519.813 104.285 519.336 104.155C518.123 104.198 516.346 104.22 514.006 104.22V118H502.306V81.275C507.549 80.885 512.446 80.69 516.996 80.69C521.113 80.69 524.449 81.0367 527.006 81.73C529.563 82.38 531.469 83.5283 532.726 85.175C534.026 86.7783 534.676 88.9883 534.676 91.805C534.676 94.4483 534.069 96.5283 532.856 98.045C531.643 99.5183 529.693 100.407 527.006 100.71V101.1C528.523 101.23 529.779 101.728 530.776 102.595C531.816 103.418 532.509 104.48 532.856 105.78L536.041 118ZM514.006 96.875C514.396 96.9183 515.154 96.94 516.281 96.94C519.618 96.94 521.568 96.6583 522.131 96.095C522.651 95.575 522.911 94.3617 522.911 92.455C522.911 90.6783 522.434 89.465 521.481 88.815C520.571 88.165 519.054 87.84 516.931 87.84C516.454 87.84 515.479 87.8833 514.006 87.97V96.875Z"
         id="path21" />
    </mask>
    <path
       d="M339.359 80.95H365.944V89.01H351.059V96.355H363.344V103.44H351.059V118H339.359V80.95ZM369.959 80.95H381.659V118H369.959V80.95ZM399.094 103.05V118H388.239V80.95H399.224L409.039 95.9C410.512 98.11 411.639 99.9733 412.419 101.49H412.614V95.25V80.95H423.404V118H412.354L402.279 102.4L399.354 97.98H399.159L399.094 103.05ZM442.816 80.95C447.886 80.95 452.024 81.4267 455.231 82.38C458.481 83.3333 460.994 85.1317 462.771 87.775C464.591 90.4183 465.501 94.21 465.501 99.15C465.501 104.437 464.548 108.467 462.641 111.24C460.734 113.97 458.178 115.79 454.971 116.7C451.764 117.567 447.713 118 442.816 118H429.816V80.95H442.816ZM451.526 109.16C452.046 108.64 452.414 107.297 452.631 105.13C452.848 102.963 452.956 100.97 452.956 99.15C452.956 96.8533 452.783 95.0333 452.436 93.69C452.133 92.3033 451.569 91.1983 450.746 90.375C449.446 88.945 447.214 88.23 444.051 88.23C443.488 88.23 442.643 88.2733 441.516 88.36V109.94C442.253 110.027 443.401 110.07 444.961 110.07C446.564 110.07 447.973 110.005 449.186 109.875C450.443 109.702 451.223 109.463 451.526 109.16ZM470.37 80.95H497.345V88.75H482.07V95.51H494.94V102.53H482.07V110.07H497.28V118H470.37V80.95ZM536.041 118H523.756L521.546 108.64C521.459 108.293 521.308 107.708 521.091 106.885C520.918 106.018 520.701 105.39 520.441 105C520.181 104.567 519.813 104.285 519.336 104.155C518.123 104.198 516.346 104.22 514.006 104.22V118H502.306V81.275C507.549 80.885 512.446 80.69 516.996 80.69C521.113 80.69 524.449 81.0367 527.006 81.73C529.563 82.38 531.469 83.5283 532.726 85.175C534.026 86.7783 534.676 88.9883 534.676 91.805C534.676 94.4483 534.069 96.5283 532.856 98.045C531.643 99.5183 529.693 100.407 527.006 100.71V101.1C528.523 101.23 529.779 101.728 530.776 102.595C531.816 103.418 532.509 104.48 532.856 105.78L536.041 118ZM514.006 96.875C514.396 96.9183 515.154 96.94 516.281 96.94C519.618 96.94 521.568 96.6583 522.131 96.095C522.651 95.575 522.911 94.3617 522.911 92.455C522.911 90.6783 522.434 89.465 521.481 88.815C520.571 88.165 519.054 87.84 516.931 87.84C516.454 87.84 515.479 87.8833 514.006 87.97V96.875Z"
       fill="url(#paint7_linear_0_1)"
       shape-rendering="crispEdges"
       id="path22" />
    <path
       d="M339.359 80.95V79.95H338.359V80.95H339.359ZM365.944 80.95H366.944V79.95H365.944V80.95ZM365.944 89.01V90.01H366.944V89.01H365.944ZM351.059 89.01V88.01H350.059V89.01H351.059ZM351.059 96.355H350.059V97.355H351.059V96.355ZM363.344 96.355H364.344V95.355H363.344V96.355ZM363.344 103.44V104.44H364.344V103.44H363.344ZM351.059 103.44V102.44H350.059V103.44H351.059ZM351.059 118V119H352.059V118H351.059ZM339.359 118H338.359V119H339.359V118ZM339.359 81.95H365.944V79.95H339.359V81.95ZM364.944 80.95V89.01H366.944V80.95H364.944ZM365.944 88.01H351.059V90.01H365.944V88.01ZM350.059 89.01V96.355H352.059V89.01H350.059ZM351.059 97.355H363.344V95.355H351.059V97.355ZM362.344 96.355V103.44H364.344V96.355H362.344ZM363.344 102.44H351.059V104.44H363.344V102.44ZM350.059 103.44V118H352.059V103.44H350.059ZM351.059 117H339.359V119H351.059V117ZM340.359 118V80.95H338.359V118H340.359ZM369.959 80.95V79.95H368.959V80.95H369.959ZM381.659 80.95H382.659V79.95H381.659V80.95ZM381.659 118V119H382.659V118H381.659ZM369.959 118H368.959V119H369.959V118ZM369.959 81.95H381.659V79.95H369.959V81.95ZM380.659 80.95V118H382.659V80.95H380.659ZM381.659 117H369.959V119H381.659V117ZM370.959 118V80.95H368.959V118H370.959ZM399.094 103.05L398.094 103.037V103.05H399.094ZM399.094 118V119H400.094V118H399.094ZM388.239 118H387.239V119H388.239V118ZM388.239 80.95V79.95H387.239V80.95H388.239ZM399.224 80.95L400.06 80.4012L399.764 79.95H399.224V80.95ZM409.039 95.9L408.203 96.4488L408.207 96.4547L409.039 95.9ZM412.419 101.49L411.529 101.947L411.809 102.49H412.419V101.49ZM412.614 101.49V102.49H413.614V101.49H412.614ZM412.614 80.95V79.95H411.614V80.95H412.614ZM423.404 80.95H424.404V79.95H423.404V80.95ZM423.404 118V119H424.404V118H423.404ZM412.354 118L411.514 118.543L411.809 119H412.354V118ZM402.279 102.4L403.119 101.857L403.113 101.848L402.279 102.4ZM399.354 97.98L400.188 97.4281L399.891 96.98H399.354V97.98ZM399.159 97.98V96.98H398.172L398.159 97.9672L399.159 97.98ZM398.094 103.05V118H400.094V103.05H398.094ZM399.094 117H388.239V119H399.094V117ZM389.239 118V80.95H387.239V118H389.239ZM388.239 81.95H399.224V79.95H388.239V81.95ZM398.388 81.4988L408.203 96.4488L409.875 95.3512L400.06 80.4012L398.388 81.4988ZM408.207 96.4547C409.669 98.6485 410.773 100.477 411.529 101.947L413.308 101.033C412.504 99.4694 411.355 97.5715 409.871 95.3453L408.207 96.4547ZM412.419 102.49H412.614V100.49H412.419V102.49ZM413.614 101.49V95.25H411.614V101.49H413.614ZM413.614 95.25V80.95H411.614V95.25H413.614ZM412.614 81.95H423.404V79.95H412.614V81.95ZM422.404 80.95V118H424.404V80.95H422.404ZM423.404 117H412.354V119H423.404V117ZM413.194 117.457L403.119 101.857L401.439 102.943L411.514 118.543L413.194 117.457ZM403.113 101.848L400.188 97.4281L398.52 98.5319L401.445 102.952L403.113 101.848ZM399.354 96.98H399.159V98.98H399.354V96.98ZM398.159 97.9672L398.094 103.037L400.094 103.063L400.159 97.9928L398.159 97.9672ZM455.231 82.38L454.946 83.3385L454.949 83.3396L455.231 82.38ZM462.771 87.775L461.941 88.3329L461.947 88.3421L462.771 87.775ZM462.641 111.24L463.461 111.813L463.465 111.807L462.641 111.24ZM454.971 116.7L455.232 117.665L455.244 117.662L454.971 116.7ZM429.816 118H428.816V119H429.816V118ZM429.816 80.95V79.95H428.816V80.95H429.816ZM451.526 109.16L450.819 108.453L450.819 108.453L451.526 109.16ZM452.631 105.13L451.636 105.03L451.636 105.03L452.631 105.13ZM452.436 93.69L451.459 93.9037L451.463 93.9219L451.468 93.9399L452.436 93.69ZM450.746 90.375L450.006 91.0477L450.022 91.0653L450.039 91.0821L450.746 90.375ZM441.516 88.36L441.439 87.3629L440.516 87.434V88.36H441.516ZM441.516 109.94H440.516V110.829L441.399 110.933L441.516 109.94ZM449.186 109.875L449.292 110.869L449.308 110.868L449.323 110.866L449.186 109.875ZM442.816 81.95C447.834 81.95 451.866 82.423 454.946 83.3385L455.516 81.4215C452.182 80.4304 447.938 79.95 442.816 79.95V81.95ZM454.949 83.3396C457.991 84.2317 460.303 85.8962 461.941 88.3328L463.601 87.2172C461.685 84.3671 458.971 82.435 455.512 81.4204L454.949 83.3396ZM461.947 88.3421C463.606 90.7509 464.501 94.3108 464.501 99.15H466.501C466.501 94.1092 465.576 90.0858 463.595 87.2079L461.947 88.3421ZM464.501 99.15C464.501 104.341 463.561 108.137 461.817 110.673L463.465 111.807C465.535 108.796 466.501 104.532 466.501 99.15H464.501ZM461.821 110.667C460.047 113.208 457.683 114.891 454.698 115.738L455.244 117.662C458.672 116.689 461.422 114.732 463.461 111.813L461.821 110.667ZM454.71 115.735C451.618 116.57 447.662 117 442.816 117V119C447.763 119 451.91 118.563 455.232 117.665L454.71 115.735ZM442.816 117H429.816V119H442.816V117ZM430.816 118V80.95H428.816V118H430.816ZM429.816 81.95H442.816V79.95H429.816V81.95ZM452.233 109.867C452.683 109.417 452.961 108.741 453.157 108.027C453.361 107.28 453.515 106.341 453.626 105.23L451.636 105.03C451.53 106.085 451.391 106.902 451.228 107.498C451.055 108.128 450.889 108.383 450.819 108.453L452.233 109.867ZM453.626 105.23C453.845 103.036 453.956 101.009 453.956 99.15H451.956C451.956 100.931 451.85 102.891 451.636 105.03L453.626 105.23ZM453.956 99.15C453.956 96.8163 453.781 94.9008 453.404 93.4401L451.468 93.9399C451.784 95.1659 451.956 96.8903 451.956 99.15H453.956ZM453.413 93.4763C453.078 91.9439 452.439 90.6535 451.453 89.6679L450.039 91.0821C450.7 91.7432 451.188 92.6627 451.459 93.9037L453.413 93.4763ZM451.486 89.7023C449.905 87.963 447.322 87.23 444.051 87.23V89.23C447.106 89.23 448.987 89.927 450.006 91.0477L451.486 89.7023ZM444.051 87.23C443.448 87.23 442.571 87.2758 441.439 87.3629L441.593 89.3571C442.714 89.2708 443.527 89.23 444.051 89.23V87.23ZM440.516 88.36V109.94H442.516V88.36H440.516ZM441.399 110.933C442.197 111.027 443.395 111.07 444.961 111.07V109.07C443.407 109.07 442.308 109.026 441.633 108.947L441.399 110.933ZM444.961 111.07C446.59 111.07 448.035 111.004 449.292 110.869L449.079 108.881C447.91 109.006 446.539 109.07 444.961 109.07V111.07ZM449.323 110.866C449.978 110.775 450.545 110.663 451.006 110.523C451.435 110.391 451.902 110.198 452.233 109.867L450.819 108.453C450.846 108.425 450.772 108.503 450.421 108.61C450.102 108.707 449.65 108.801 449.049 108.884L449.323 110.866ZM470.37 80.95V79.95H469.37V80.95H470.37ZM497.345 80.95H498.345V79.95H497.345V80.95ZM497.345 88.75V89.75H498.345V88.75H497.345ZM482.07 88.75V87.75H481.07V88.75H482.07ZM482.07 95.51H481.07V96.51H482.07V95.51ZM494.94 95.51H495.94V94.51H494.94V95.51ZM494.94 102.53V103.53H495.94V102.53H494.94ZM482.07 102.53V101.53H481.07V102.53H482.07ZM482.07 110.07H481.07V111.07H482.07V110.07ZM497.28 110.07H498.28V109.07H497.28V110.07ZM497.28 118V119H498.28V118H497.28ZM470.37 118H469.37V119H470.37V118ZM470.37 81.95H497.345V79.95H470.37V81.95ZM496.345 80.95V88.75H498.345V80.95H496.345ZM497.345 87.75H482.07V89.75H497.345V87.75ZM481.07 88.75V95.51H483.07V88.75H481.07ZM482.07 96.51H494.94V94.51H482.07V96.51ZM493.94 95.51V102.53H495.94V95.51H493.94ZM494.94 101.53H482.07V103.53H494.94V101.53ZM481.07 102.53V110.07H483.07V102.53H481.07ZM482.07 111.07H497.28V109.07H482.07V111.07ZM496.28 110.07V118H498.28V110.07H496.28ZM497.28 117H470.37V119H497.28V117ZM471.37 118V80.95H469.37V118H471.37ZM536.041 118V119H537.335L537.009 117.748L536.041 118ZM523.756 118L522.783 118.23L522.965 119H523.756V118ZM521.546 108.64L522.519 108.41L522.516 108.397L521.546 108.64ZM521.091 106.885L520.111 107.081L520.116 107.111L520.124 107.139L521.091 106.885ZM520.441 105L519.584 105.514L519.596 105.535L519.609 105.555L520.441 105ZM519.336 104.155L519.599 103.19L519.452 103.15L519.3 103.156L519.336 104.155ZM514.006 104.22V103.22H513.006V104.22H514.006ZM514.006 118V119H515.006V118H514.006ZM502.306 118H501.306V119H502.306V118ZM502.306 81.275L502.232 80.2778L501.306 80.3466V81.275H502.306ZM527.006 81.73L526.744 82.6951L526.752 82.6972L526.76 82.6992L527.006 81.73ZM532.726 85.175L531.931 85.7817L531.94 85.7934L531.949 85.8048L532.726 85.175ZM532.856 98.045L533.628 98.6807L533.633 98.6752L533.637 98.6697L532.856 98.045ZM527.006 100.71L526.894 99.7163L526.006 99.8165V100.71H527.006ZM527.006 101.1H526.006V102.018L526.921 102.096L527.006 101.1ZM530.776 102.595L530.12 103.35L530.137 103.365L530.155 103.379L530.776 102.595ZM532.856 105.78L533.824 105.528L533.822 105.522L532.856 105.78ZM514.006 96.875H513.006V97.77L513.896 97.8689L514.006 96.875ZM521.481 88.815L520.9 89.6287L520.909 89.6351L520.918 89.6412L521.481 88.815ZM514.006 87.97L513.947 86.9717L513.006 87.0271V87.97H514.006ZM536.041 117H523.756V119H536.041V117ZM524.729 117.77L522.519 108.41L520.573 108.87L522.783 118.23L524.729 117.77ZM522.516 108.397C522.428 108.044 522.275 107.454 522.058 106.631L520.124 107.139C520.341 107.963 520.491 108.542 520.576 108.883L522.516 108.397ZM522.072 106.689C521.891 105.787 521.644 105.002 521.273 104.445L519.609 105.555C519.758 105.778 519.944 106.249 520.111 107.081L522.072 106.689ZM521.299 104.486C520.909 103.837 520.331 103.39 519.599 103.19L519.073 105.12C519.295 105.18 519.453 105.297 519.584 105.514L521.299 104.486ZM519.3 103.156C518.105 103.198 516.343 103.22 514.006 103.22V105.22C516.349 105.22 518.14 105.198 519.372 105.154L519.3 103.156ZM513.006 104.22V118H515.006V104.22H513.006ZM514.006 117H502.306V119H514.006V117ZM503.306 118V81.275H501.306V118H503.306ZM502.38 82.2722C507.603 81.8838 512.474 81.69 516.996 81.69V79.69C512.418 79.69 507.496 79.8862 502.232 80.2778L502.38 82.2722ZM516.996 81.69C521.067 81.69 524.307 82.034 526.744 82.6951L527.268 80.7649C524.592 80.0393 521.158 79.69 516.996 79.69V81.69ZM526.76 82.6992C529.159 83.3091 530.845 84.3584 531.931 85.7817L533.521 84.5683C532.094 82.6983 529.967 81.4509 527.253 80.7608L526.76 82.6992ZM531.949 85.8048C533.06 87.1747 533.676 89.1345 533.676 91.805H535.676C535.676 88.8422 534.992 86.382 533.503 84.5452L531.949 85.8048ZM533.676 91.805C533.676 94.3027 533.103 96.1355 532.075 97.4203L533.637 98.6697C535.036 96.9211 535.676 94.594 535.676 91.805H533.676ZM532.084 97.4093C531.094 98.6115 529.431 99.4299 526.894 99.7163L527.118 101.704C529.955 101.383 532.191 100.425 533.628 98.6807L532.084 97.4093ZM526.006 100.71V101.1H528.006V100.71H526.006ZM526.921 102.096C528.26 102.211 529.307 102.642 530.12 103.35L531.432 101.84C530.252 100.814 528.786 100.249 527.092 100.104L526.921 102.096ZM530.155 103.379C531.024 104.067 531.598 104.943 531.89 106.038L533.822 105.522C533.421 104.017 532.608 102.77 531.397 101.811L530.155 103.379ZM531.888 106.032L535.073 118.252L537.009 117.748L533.824 105.528L531.888 106.032ZM513.896 97.8689C514.349 97.9193 515.162 97.94 516.281 97.94V95.94C515.147 95.94 514.443 95.9174 514.117 95.8811L513.896 97.8689ZM516.281 97.94C517.969 97.94 519.345 97.8692 520.389 97.7185C520.911 97.6432 521.376 97.5442 521.767 97.4125C522.143 97.2864 522.539 97.1016 522.838 96.8021L521.424 95.3879C521.442 95.37 521.383 95.4317 521.13 95.5168C520.893 95.5964 520.557 95.6735 520.103 95.739C519.197 95.8699 517.93 95.94 516.281 95.94V97.94ZM522.838 96.8021C523.299 96.3412 523.548 95.6842 523.694 95.0045C523.844 94.3027 523.911 93.4455 523.911 92.455H521.911C521.911 93.3711 521.848 94.0739 521.738 94.5855C521.624 95.1191 521.483 95.3288 521.424 95.3879L522.838 96.8021ZM523.911 92.455C523.911 90.5338 523.395 88.9098 522.044 87.9888L520.918 89.6412C521.474 90.0202 521.911 90.8228 521.911 92.455H523.911ZM522.062 88.0013C520.888 87.1621 519.103 86.84 516.931 86.84V88.84C519.006 88.84 520.255 89.1679 520.9 89.6287L522.062 88.0013ZM516.931 86.84C516.42 86.84 515.415 86.8854 513.947 86.9717L514.065 88.9683C515.544 88.8813 516.489 88.84 516.931 88.84V86.84ZM513.006 87.97V96.875H515.006V87.97H513.006Z"
       fill="#265526"
       fill-opacity="0.95"
       mask="url(#path-19-outside-2_0_1)"
       id="path23" />
  </g>
  <g
     filter="url(#filter17_b_0_1)"
     id="g24">
    <path
       d="M290.173 92.4503C289.835 92.0211 290.428 91.4763 290.878 91.7999C294.112 94.1247 297.453 96.1556 300.996 97.7627C305.431 99.8049 310.149 101.163 315.001 101.889C319.854 102.618 324.835 102.728 329.849 102.349C332.031 102.19 334.215 101.935 336.409 101.611C337.782 101.409 338.253 103.251 336.939 103.696C334.765 104.434 332.526 105.022 330.251 105.462C325.017 106.463 319.556 106.645 314.24 105.837C308.93 105.041 303.776 103.241 299.315 100.499C295.766 98.3226 292.643 95.5919 290.173 92.4503Z"
       fill="url(#paint8_linear_0_1)"
       fill-opacity="0.8"
       id="path24" />
  </g>
  <defs
     id="defs76">
    <filter
       id="filter0_i_0_1"
       x="276.814"
       y="77.2233"
       width="60.9014"
       height="41.399"
       filterUnits="userSpaceOnUse"
       color-interpolation-filters="sRGB">
      <feFlood
         flood-opacity="0"
         result="BackgroundImageFix"
         id="feFlood24" />
      <feBlend
         mode="normal"
         in="SourceGraphic"
         in2="BackgroundImageFix"
         result="shape"
         id="feBlend24" />
      <feColorMatrix
         in="SourceAlpha"
         type="matrix"
         values="0 0 0 0 0 0 0 0 0 0 0 0 0 0 0 0 0 0 127 0"
         result="hardAlpha"
         id="feColorMatrix24" />
      <feOffset
         dy="4"
         id="feOffset24" />
      <feGaussianBlur
         stdDeviation="2"
         id="feGaussianBlur24" />
      <feComposite
         in2="hardAlpha"
         operator="arithmetic"
         k2="-1"
         k3="1"
         id="feComposite24" />
      <feColorMatrix
         type="matrix"
         values="0 0 0 0 0 0 0 0 0 0 0 0 0 0 0 0 0 0 0.4 0"
         id="feColorMatrix25" />
      <feBlend
         mode="normal"
         in2="shape"
         result="effect1_innerShadow_0_1"
         id="feBlend25" />
    </filter>
    <filter
       id="filter1_i_0_1"
       x="494.494"
       y="0.0883179"
       width="28.1843"
       height="80.3404"
       filterUnits="userSpaceOnUse"
       color-interpolation-filters="sRGB">
      <feFlood
         flood-opacity="0"
         result="BackgroundImageFix"
         id="feFlood25" />
      <feBlend
         mode="normal"
         in="SourceGraphic"
         in2="BackgroundImageFix"
         result="shape"
         id="feBlend26" />
      <feColorMatrix
         in="SourceAlpha"
         type="matrix"
         values="0 0 0 0 0 0 0 0 0 0 0 0 0 0 0 0 0 0 127 0"
         result="hardAlpha"
         id="feColorMatrix26" />
      <feOffset
         dy="4"
         id="feOffset26" />
      <feGaussianBlur
         stdDeviation="2"
         id="feGaussianBlur26" />
      <feComposite
         in2="hardAlpha"
         operator="arithmetic"
         k2="-1"
         k3="1"
         id="feComposite26" />
      <feColorMatrix
         type="matrix"
         values="0 0 0 0 0 0 0 0 0 0 0 0 0 0 0 0 0 0 0.32 0"
         id="feColorMatrix27" />
      <feBlend
         mode="normal"
         in2="shape"
         result="effect1_innerShadow_0_1"
         id="feBlend27" />
    </filter>
    <filter
       id="filter2_d_0_1"
       x="189.385"
       y="19.795"
       width="85.055"
       height="105.02"
       filterUnits="userSpaceOnUse"
       color-interpolation-filters="sRGB">
      <feFlood
         flood-opacity="0"
         result="BackgroundImageFix"
         id="feFlood27" />
      <feColorMatrix
         in="SourceAlpha"
         type="matrix"
         values="0 0 0 0 0 0 0 0 0 0 0 0 0 0 0 0 0 0 127 0"
         result="hardAlpha"
         id="feColorMatrix28" />
      <feOffset
         dy="4"
         id="feOffset28" />
      <feGaussianBlur
         stdDeviation="2"
         id="feGaussianBlur28" />
      <feComposite
         in2="hardAlpha"
         operator="out"
         id="feComposite28" />
      <feColorMatrix
         type="matrix"
         values="0 0 0 0 0 0 0 0 0 0 0 0 0 0 0 0 0 0 0.5 0"
         id="feColorMatrix29" />
      <feBlend
         mode="normal"
         in2="BackgroundImageFix"
         result="effect1_dropShadow_0_1"
         id="feBlend29" />
      <feBlend
         mode="normal"
         in="SourceGraphic"
         in2="effect1_dropShadow_0_1"
         result="shape"
         id="feBlend30" />
    </filter>
    <filter
       id="filter3_d_0_1"
       x="99.8128"
       y="20.95"
       width="100.73"
       height="102.05"
       filterUnits="userSpaceOnUse"
       color-interpolation-filters="sRGB">
      <feFlood
         flood-opacity="0"
         result="BackgroundImageFix"
         id="feFlood30" />
      <feColorMatrix
         in="SourceAlpha"
         type="matrix"
         values="0 0 0 0 0 0 0 0 0 0 0 0 0 0 0 0 0 0 127 0"
         result="hardAlpha"
         id="feColorMatrix30" />
      <feOffset
         dy="4"
         id="feOffset30" />
      <feGaussianBlur
         stdDeviation="2"
         id="feGaussianBlur30" />
      <feComposite
         in2="hardAlpha"
         operator="out"
         id="feComposite30" />
      <feColorMatrix
         type="matrix"
         values="0 0 0 0 0 0 0 0 0 0 0 0 0 0 0 0 0 0 0.5 0"
         id="feColorMatrix31" />
      <feBlend
         mode="normal"
         in2="BackgroundImageFix"
         result="effect1_dropShadow_0_1"
         id="feBlend31" />
      <feBlend
         mode="normal"
         in="SourceGraphic"
         in2="effect1_dropShadow_0_1"
         result="shape"
         id="feBlend32" />
    </filter>
    <filter
       id="filter4_d_0_1"
       x="1"
       y="21"
       width="98"
       height="102"
       filterUnits="userSpaceOnUse"
       color-interpolation-filters="sRGB">
      <feFlood
         flood-opacity="0"
         result="BackgroundImageFix"
         id="feFlood32" />
      <feColorMatrix
         in="SourceAlpha"
         type="matrix"
         values="0 0 0 0 0 0 0 0 0 0 0 0 0 0 0 0 0 0 127 0"
         result="hardAlpha"
         id="feColorMatrix32" />
      <feOffset
         dy="4"
         id="feOffset32" />
      <feGaussianBlur
         stdDeviation="2"
         id="feGaussianBlur32" />
      <feComposite
         in2="hardAlpha"
         operator="out"
         id="feComposite32" />
      <feColorMatrix
         type="matrix"
         values="0 0 0 0 0 0 0 0 0 0 0 0 0 0 0 0 0 0 0.5 0"
         id="feColorMatrix33" />
      <feBlend
         mode="normal"
         in2="BackgroundImageFix"
         result="effect1_dropShadow_0_1"
         id="feBlend33" />
      <feBlend
         mode="normal"
         in="SourceGraphic"
         in2="effect1_dropShadow_0_1"
         result="shape"
         id="feBlend34" />
    </filter>
    <filter
       id="filter5_d_0_1"
       x="188.385"
       y="18.795"
       width="87.1186"
       height="107.02"
       filterUnits="userSpaceOnUse"
       color-interpolation-filters="sRGB">
      <feFlood
         flood-opacity="0"
         result="BackgroundImageFix"
         id="feFlood34" />
      <feColorMatrix
         in="SourceAlpha"
         type="matrix"
         values="0 0 0 0 0 0 0 0 0 0 0 0 0 0 0 0 0 0 127 0"
         result="hardAlpha"
         id="feColorMatrix34" />
      <feOffset
         dy="4"
         id="feOffset34" />
      <feGaussianBlur
         stdDeviation="2"
         id="feGaussianBlur34" />
      <feComposite
         in2="hardAlpha"
         operator="out"
         id="feComposite34" />
      <feColorMatrix
         type="matrix"
         values="0 0 0 0 0 0 0 0 0 0 0 0 0 0 0 0 0 0 0.5 0"
         id="feColorMatrix35" />
      <feBlend
         mode="normal"
         in2="BackgroundImageFix"
         result="effect1_dropShadow_0_1"
         id="feBlend35" />
      <feBlend
         mode="normal"
         in="SourceGraphic"
         in2="effect1_dropShadow_0_1"
         result="shape"
         id="feBlend36" />
    </filter>
    <filter
       id="filter6_d_0_1"
       x="98.2059"
       y="19.95"
       width="103.94"
       height="104.05"
       filterUnits="userSpaceOnUse"
       color-interpolation-filters="sRGB">
      <feFlood
         flood-opacity="0"
         result="BackgroundImageFix"
         id="feFlood36" />
      <feColorMatrix
         in="SourceAlpha"
         type="matrix"
         values="0 0 0 0 0 0 0 0 0 0 0 0 0 0 0 0 0 0 127 0"
         result="hardAlpha"
         id="feColorMatrix36" />
      <feOffset
         dy="4"
         id="feOffset36" />
      <feGaussianBlur
         stdDeviation="2"
         id="feGaussianBlur36" />
      <feComposite
         in2="hardAlpha"
         operator="out"
         id="feComposite36" />
      <feColorMatrix
         type="matrix"
         values="0 0 0 0 0 0 0 0 0 0 0 0 0 0 0 0 0 0 0.5 0"
         id="feColorMatrix37" />
      <feBlend
         mode="normal"
         in2="BackgroundImageFix"
         result="effect1_dropShadow_0_1"
         id="feBlend37" />
      <feBlend
         mode="normal"
         in="SourceGraphic"
         in2="effect1_dropShadow_0_1"
         result="shape"
         id="feBlend38" />
    </filter>
    <filter
       id="filter7_d_0_1"
       x="0"
       y="20"
       width="99.265"
       height="104.05"
       filterUnits="userSpaceOnUse"
       color-interpolation-filters="sRGB">
      <feFlood
         flood-opacity="0"
         result="BackgroundImageFix"
         id="feFlood38" />
      <feColorMatrix
         in="SourceAlpha"
         type="matrix"
         values="0 0 0 0 0 0 0 0 0 0 0 0 0 0 0 0 0 0 127 0"
         result="hardAlpha"
         id="feColorMatrix38" />
      <feOffset
         dy="4"
         id="feOffset38" />
      <feGaussianBlur
         stdDeviation="2"
         id="feGaussianBlur38" />
      <feComposite
         in2="hardAlpha"
         operator="out"
         id="feComposite38" />
      <feColorMatrix
         type="matrix"
         values="0 0 0 0 0 0 0 0 0 0 0 0 0 0 0 0 0 0 0.5 0"
         id="feColorMatrix39" />
      <feBlend
         mode="normal"
         in2="BackgroundImageFix"
         result="effect1_dropShadow_0_1"
         id="feBlend39" />
      <feBlend
         mode="normal"
         in="SourceGraphic"
         in2="effect1_dropShadow_0_1"
         result="shape"
         id="feBlend40" />
    </filter>
    <filter
       id="filter8_d_0_1"
       x="431.918"
       y="21.3414"
       width="54.9871"
       height="56.6586"
       filterUnits="userSpaceOnUse"
       color-interpolation-filters="sRGB">
      <feFlood
         flood-opacity="0"
         result="BackgroundImageFix"
         id="feFlood40" />
      <feColorMatrix
         in="SourceAlpha"
         type="matrix"
         values="0 0 0 0 0 0 0 0 0 0 0 0 0 0 0 0 0 0 127 0"
         result="hardAlpha"
         id="feColorMatrix40" />
      <feOffset
         dy="4"
         id="feOffset40" />
      <feGaussianBlur
         stdDeviation="2"
         id="feGaussianBlur40" />
      <feComposite
         in2="hardAlpha"
         operator="out"
         id="feComposite40" />
      <feColorMatrix
         type="matrix"
         values="0 0 0 0 0 0 0 0 0 0 0 0 0 0 0 0 0 0 0.5 0"
         id="feColorMatrix41" />
      <feBlend
         mode="normal"
         in2="BackgroundImageFix"
         result="effect1_dropShadow_0_1"
         id="feBlend41" />
      <feBlend
         mode="normal"
         in="SourceGraphic"
         in2="effect1_dropShadow_0_1"
         result="shape"
         id="feBlend42" />
    </filter>
    <filter
       id="filter9_d_0_1"
       x="380.5"
       y="21"
       width="53.9253"
       height="57"
       filterUnits="userSpaceOnUse"
       color-interpolation-filters="sRGB">
      <feFlood
         flood-opacity="0"
         result="BackgroundImageFix"
         id="feFlood42" />
      <feColorMatrix
         in="SourceAlpha"
         type="matrix"
         values="0 0 0 0 0 0 0 0 0 0 0 0 0 0 0 0 0 0 127 0"
         result="hardAlpha"
         id="feColorMatrix42" />
      <feOffset
         dy="4"
         id="feOffset42" />
      <feGaussianBlur
         stdDeviation="2"
         id="feGaussianBlur42" />
      <feComposite
         in2="hardAlpha"
         operator="out"
         id="feComposite42" />
      <feColorMatrix
         type="matrix"
         values="0 0 0 0 0 0 0 0 0 0 0 0 0 0 0 0 0 0 0.5 0"
         id="feColorMatrix43" />
      <feBlend
         mode="normal"
         in2="BackgroundImageFix"
         result="effect1_dropShadow_0_1"
         id="feBlend43" />
      <feBlend
         mode="normal"
         in="SourceGraphic"
         in2="effect1_dropShadow_0_1"
         result="shape"
         id="feBlend44" />
    </filter>
    <filter
       id="filter10_d_0_1"
       x="323.449"
       y="21.3414"
       width="60.6504"
       height="56.6586"
       filterUnits="userSpaceOnUse"
       color-interpolation-filters="sRGB">
      <feFlood
         flood-opacity="0"
         result="BackgroundImageFix"
         id="feFlood44" />
      <feColorMatrix
         in="SourceAlpha"
         type="matrix"
         values="0 0 0 0 0 0 0 0 0 0 0 0 0 0 0 0 0 0 127 0"
         result="hardAlpha"
         id="feColorMatrix44" />
      <feOffset
         dy="4"
         id="feOffset44" />
      <feGaussianBlur
         stdDeviation="2"
         id="feGaussianBlur44" />
      <feComposite
         in2="hardAlpha"
         operator="out"
         id="feComposite44" />
      <feColorMatrix
         type="matrix"
         values="0 0 0 0 0 0 0 0 0 0 0 0 0 0 0 0 0 0 0.5 0"
         id="feColorMatrix45" />
      <feBlend
         mode="normal"
         in2="BackgroundImageFix"
         result="effect1_dropShadow_0_1"
         id="feBlend45" />
      <feBlend
         mode="normal"
         in="SourceGraphic"
         in2="effect1_dropShadow_0_1"
         result="shape"
         id="feBlend46" />
    </filter>
    <filter
       id="filter11_d_0_1"
       x="280"
       y="21.0853"
       width="51.3591"
       height="56.9147"
       filterUnits="userSpaceOnUse"
       color-interpolation-filters="sRGB">
      <feFlood
         flood-opacity="0"
         result="BackgroundImageFix"
         id="feFlood46" />
      <feColorMatrix
         in="SourceAlpha"
         type="matrix"
         values="0 0 0 0 0 0 0 0 0 0 0 0 0 0 0 0 0 0 127 0"
         result="hardAlpha"
         id="feColorMatrix46" />
      <feOffset
         dy="4"
         id="feOffset46" />
      <feGaussianBlur
         stdDeviation="2"
         id="feGaussianBlur46" />
      <feComposite
         in2="hardAlpha"
         operator="out"
         id="feComposite46" />
      <feColorMatrix
         type="matrix"
         values="0 0 0 0 0 0 0 0 0 0 0 0 0 0 0 0 0 0 0.5 0"
         id="feColorMatrix47" />
      <feBlend
         mode="normal"
         in2="BackgroundImageFix"
         result="effect1_dropShadow_0_1"
         id="feBlend47" />
      <feBlend
         mode="normal"
         in="SourceGraphic"
         in2="effect1_dropShadow_0_1"
         result="shape"
         id="feBlend48" />
    </filter>
    <filter
       id="filter12_d_0_1"
       x="432"
       y="21"
       width="55"
       height="58"
       filterUnits="userSpaceOnUse"
       color-interpolation-filters="sRGB">
      <feFlood
         flood-opacity="0"
         result="BackgroundImageFix"
         id="feFlood48" />
      <feColorMatrix
         in="SourceAlpha"
         type="matrix"
         values="0 0 0 0 0 0 0 0 0 0 0 0 0 0 0 0 0 0 127 0"
         result="hardAlpha"
         id="feColorMatrix48" />
      <feOffset
         dy="4"
         id="feOffset48" />
      <feGaussianBlur
         stdDeviation="2"
         id="feGaussianBlur48" />
      <feComposite
         in2="hardAlpha"
         operator="out"
         id="feComposite48" />
      <feColorMatrix
         type="matrix"
         values="0 0 0 0 0 0 0 0 0 0 0 0 0 0 0 0 0 0 0.5 0"
         id="feColorMatrix49" />
      <feBlend
         mode="normal"
         in2="BackgroundImageFix"
         result="effect1_dropShadow_0_1"
         id="feBlend49" />
      <feBlend
         mode="normal"
         in="SourceGraphic"
         in2="effect1_dropShadow_0_1"
         result="shape"
         id="feBlend50" />
    </filter>
    <filter
       id="filter13_d_0_1"
       x="380"
       y="20"
       width="54"
       height="59"
       filterUnits="userSpaceOnUse"
       color-interpolation-filters="sRGB">
      <feFlood
         flood-opacity="0"
         result="BackgroundImageFix"
         id="feFlood50" />
      <feColorMatrix
         in="SourceAlpha"
         type="matrix"
         values="0 0 0 0 0 0 0 0 0 0 0 0 0 0 0 0 0 0 127 0"
         result="hardAlpha"
         id="feColorMatrix50" />
      <feOffset
         dy="4"
         id="feOffset50" />
      <feGaussianBlur
         stdDeviation="2"
         id="feGaussianBlur50" />
      <feComposite
         in2="hardAlpha"
         operator="out"
         id="feComposite50" />
      <feColorMatrix
         type="matrix"
         values="0 0 0 0 0 0 0 0 0 0 0 0 0 0 0 0 0 0 0.5 0"
         id="feColorMatrix51" />
      <feBlend
         mode="normal"
         in2="BackgroundImageFix"
         result="effect1_dropShadow_0_1"
         id="feBlend51" />
      <feBlend
         mode="normal"
         in="SourceGraphic"
         in2="effect1_dropShadow_0_1"
         result="shape"
         id="feBlend52" />
    </filter>
    <filter
       id="filter14_d_0_1"
       x="323"
       y="21"
       width="61"
       height="58"
       filterUnits="userSpaceOnUse"
       color-interpolation-filters="sRGB">
      <feFlood
         flood-opacity="0"
         result="BackgroundImageFix"
         id="feFlood52" />
      <feColorMatrix
         in="SourceAlpha"
         type="matrix"
         values="0 0 0 0 0 0 0 0 0 0 0 0 0 0 0 0 0 0 127 0"
         result="hardAlpha"
         id="feColorMatrix52" />
      <feOffset
         dy="4"
         id="feOffset52" />
      <feGaussianBlur
         stdDeviation="2"
         id="feGaussianBlur52" />
      <feComposite
         in2="hardAlpha"
         operator="out"
         id="feComposite52" />
      <feColorMatrix
         type="matrix"
         values="0 0 0 0 0 0 0 0 0 0 0 0 0 0 0 0 0 0 0.5 0"
         id="feColorMatrix53" />
      <feBlend
         mode="normal"
         in2="BackgroundImageFix"
         result="effect1_dropShadow_0_1"
         id="feBlend53" />
      <feBlend
         mode="normal"
         in="SourceGraphic"
         in2="effect1_dropShadow_0_1"
         result="shape"
         id="feBlend54" />
    </filter>
    <filter
       id="filter15_d_0_1"
       x="280"
       y="20"
       width="51"
       height="59"
       filterUnits="userSpaceOnUse"
       color-interpolation-filters="sRGB">
      <feFlood
         flood-opacity="0"
         result="BackgroundImageFix"
         id="feFlood54" />
      <feColorMatrix
         in="SourceAlpha"
         type="matrix"
         values="0 0 0 0 0 0 0 0 0 0 0 0 0 0 0 0 0 0 127 0"
         result="hardAlpha"
         id="feColorMatrix54" />
      <feOffset
         dy="4"
         id="feOffset54" />
      <feGaussianBlur
         stdDeviation="2"
         id="feGaussianBlur54" />
      <feComposite
         in2="hardAlpha"
         operator="out"
         id="feComposite54" />
      <feColorMatrix
         type="matrix"
         values="0 0 0 0 0 0 0 0 0 0 0 0 0 0 0 0 0 0 0.5 0"
         id="feColorMatrix55" />
      <feBlend
         mode="normal"
         in2="BackgroundImageFix"
         result="effect1_dropShadow_0_1"
         id="feBlend55" />
      <feBlend
         mode="normal"
         in="SourceGraphic"
         in2="effect1_dropShadow_0_1"
         result="shape"
         id="feBlend56" />
    </filter>
    <filter
       id="filter16_d_0_1"
       x="335.359"
       y="80.69"
       width="204.682"
       height="45.31"
       filterUnits="userSpaceOnUse"
       color-interpolation-filters="sRGB">
      <feFlood
         flood-opacity="0"
         result="BackgroundImageFix"
         id="feFlood56" />
      <feColorMatrix
         in="SourceAlpha"
         type="matrix"
         values="0 0 0 0 0 0 0 0 0 0 0 0 0 0 0 0 0 0 127 0"
         result="hardAlpha"
         id="feColorMatrix56" />
      <feOffset
         dy="4"
         id="feOffset56" />
      <feGaussianBlur
         stdDeviation="2"
         id="feGaussianBlur56" />
      <feComposite
         in2="hardAlpha"
         operator="out"
         id="feComposite56" />
      <feColorMatrix
         type="matrix"
         values="0 0 0 0 0 0 0 0 0 0 0 0 0 0 0 0 0 0 0.5 0"
         id="feColorMatrix57" />
      <feBlend
         mode="normal"
         in2="BackgroundImageFix"
         result="effect1_dropShadow_0_1"
         id="feBlend57" />
      <feBlend
         mode="normal"
         in="SourceGraphic"
         in2="effect1_dropShadow_0_1"
         result="shape"
         id="feBlend58" />
    </filter>
    <filter
       id="filter17_b_0_1"
       x="286.073"
       y="87.7018"
       width="55.6427"
       height="22.6421"
       filterUnits="userSpaceOnUse"
       color-interpolation-filters="sRGB">
      <feFlood
         flood-opacity="0"
         result="BackgroundImageFix"
         id="feFlood58" />
      <feGaussianBlur
         in="BackgroundImageFix"
         stdDeviation="2"
         id="feGaussianBlur58" />
      <feComposite
         in2="SourceAlpha"
         operator="in"
         result="effect1_backgroundBlur_0_1"
         id="feComposite58" />
      <feBlend
         mode="normal"
         in="SourceGraphic"
         in2="effect1_backgroundBlur_0_1"
         result="shape"
         id="feBlend59" />
    </filter>
    <linearGradient
       id="paint0_linear_0_1"
       x1="509.594"
       y1="0.241521"
       x2="508.312"
       y2="76.2275"
       gradientUnits="userSpaceOnUse">
      <stop
         offset="0.21"
         stop-color="#69B565"
         id="stop59" />
      <stop
         offset="1"
         stop-color="#2E4F2C"
         stop-opacity="0.8"
         id="stop60" />
    </linearGradient>
    <linearGradient
       id="paint1_linear_0_1"
       x1="138"
       y1="-47"
       x2="138"
       y2="212"
       gradientUnits="userSpaceOnUse">
      <stop
         offset="0.43"
         stop-color="#396839"
         id="stop61" />
      <stop
         offset="0.73"
         stop-color="#71CE71"
         id="stop62" />
    </linearGradient>
    <linearGradient
       id="paint2_linear_0_1"
       x1="138"
       y1="-47"
       x2="138"
       y2="212"
       gradientUnits="userSpaceOnUse">
      <stop
         offset="0.43"
         stop-color="#396839"
         id="stop63" />
      <stop
         offset="0.73"
         stop-color="#71CE71"
         id="stop64" />
    </linearGradient>
    <linearGradient
       id="paint3_linear_0_1"
       x1="132.823"
       y1="-46.9139"
       x2="132.823"
       y2="211.948"
       gradientUnits="userSpaceOnUse">
      <stop
         offset="0.43"
         stop-color="#396839"
         id="stop65" />
      <stop
         offset="0.73"
         stop-color="#71CE71"
         id="stop66" />
    </linearGradient>
    <linearGradient
       id="paint4_linear_0_1"
       x1="138"
       y1="-47"
       x2="138"
       y2="212"
       gradientUnits="userSpaceOnUse">
      <stop
         offset="0.155"
         stop-color="#148526"
         id="stop67" />
      <stop
         offset="1"
         stop-color="#051F09"
         id="stop68" />
    </linearGradient>
    <linearGradient
       id="paint5_linear_0_1"
       x1="138"
       y1="-47"
       x2="138"
       y2="212"
       gradientUnits="userSpaceOnUse">
      <stop
         offset="0.155"
         stop-color="#148526"
         id="stop69" />
      <stop
         offset="1"
         stop-color="#051F09"
         id="stop70" />
    </linearGradient>
    <linearGradient
       id="paint6_linear_0_1"
       x1="131.779"
       y1="-46.95"
       x2="131.779"
       y2="212.05"
       gradientUnits="userSpaceOnUse">
      <stop
         offset="0.155"
         stop-color="#148526"
         id="stop71" />
      <stop
         offset="1"
         stop-color="#051F09"
         id="stop72" />
    </linearGradient>
    <linearGradient
       id="paint7_linear_0_1"
       x1="436.5"
       y1="54"
       x2="436.5"
       y2="156"
       gradientUnits="userSpaceOnUse">
      <stop
         offset="0.6"
         stop-color="#545F55"
         id="stop73" />
      <stop
         offset="1"
         stop-color="#B3C9B5"
         id="stop74" />
    </linearGradient>
    <linearGradient
       id="paint8_linear_0_1"
       x1="312.228"
       y1="87.8983"
       x2="315.755"
       y2="108.01"
       gradientUnits="userSpaceOnUse">
      <stop
         offset="0.27"
         stop-color="#009455"
         id="stop75" />
      <stop
         offset="0.965"
         stop-color="#002E1A"
         stop-opacity="0.8"
         id="stop76" />
    </linearGradient>
  </defs>
</svg>
