<?xml version="1.0" encoding="UTF-8" standalone="no"?>
<svg
   width="704"
   height="125"
   viewBox="0 0 704 125"
   fill="none"
   version="1.1"
   id="svg7"
   sodipodi:docname="NYC PARK FINDER LOGO.svg"
   inkscape:version="1.3.2 (091e20e, 2023-11-25)"
   xmlns:inkscape="http://www.inkscape.org/namespaces/inkscape"
   xmlns:sodipodi="http://sodipodi.sourceforge.net/DTD/sodipodi-0.dtd"
   xmlns="http://www.w3.org/2000/svg"
   xmlns:svg="http://www.w3.org/2000/svg">
  <sodipodi:namedview
     id="namedview7"
     pagecolor="#ffffff"
     bordercolor="#111111"
     borderopacity="1"
     inkscape:showpageshadow="0"
     inkscape:pageopacity="0"
     inkscape:pagecheckerboard="1"
     inkscape:deskcolor="#d1d1d1"
     inkscape:zoom="0.78403183"
     inkscape:cx="357.12836"
     inkscape:cy="84.180256"
     inkscape:window-width="1312"
     inkscape:window-height="449"
     inkscape:window-x="0"
     inkscape:window-y="25"
     inkscape:window-maximized="0"
     inkscape:current-layer="svg7" />
  <rect
     width="704"
     height="125"
     fill="#f5f5f5"
     id="rect1"
     x="12.315133"
     y="479.48657" />
  <path
     d="M55.4123 25.7374C25.2461 52.4427 33.6963 87.4538 71.5846 102.434C123.859 123.103 163.418 100.68 215.884 124.39C218.372 125.514 222.133 124.086 222.256 121.947C224.894 75.923 222.703 32.1536 168.039 8.00211C133.723 -7.15894 83.5769 0.804353 55.4123 25.7374Z"
     fill="#69B565"
     id="path1" />
  <path
     d="M165.621 65.5349C166.717 66.5571 164.511 67.9996 162.996 67.2568C152.107 61.9206 140.777 57.3325 128.645 53.8296C113.465 49.3688 97.1411 46.6548 80.2092 45.5332C63.2715 44.4063 45.7495 44.8413 28.0082 46.4985C20.2866 47.2043 12.542 48.1518 4.74352 49.2708C-0.138412 49.9715 -1.3968 45.4441 3.32573 44.1479C11.1442 42.0002 19.1563 40.2156 27.2636 38.7942C45.9176 35.5545 65.1918 34.324 83.7392 35.5818C102.272 36.8107 120.037 40.566 135.159 46.7676C147.188 51.6898 157.6 58.0537 165.621 65.5349Z"
     fill="#009455"
     id="path2" />
  <g
     style="mix-blend-mode:color-burn"
     filter="url(#filter0_i_12_54)"
     id="g3">
    <path
       d="M171.425 28.211C171.266 28.5028 170.932 28.7243 170.437 28.865C170.329 28.8951 170.217 28.9464 170.193 28.9744C170.107 29.0617 170.096 29.026 170.112 28.7424C170.133 28.4305 170.082 28.2841 169.914 28.1784C169.819 28.12 169.811 28.1199 169.749 28.1898C169.651 28.2981 169.484 28.3876 169.074 28.5439C168.71 28.6832 168.503 28.8288 168.502 28.9459C168.501 28.9742 168.478 28.9951 168.451 28.9947C168.343 28.9929 168.039 29.2113 167.902 29.3864C167.536 29.8663 167.576 30.4703 168.007 30.914L168.162 31.0763L168.144 31.445L168.126 31.8102L167.8 31.7905C167.619 31.7804 167.408 31.752 167.328 31.7258C167.198 31.681 167.182 31.6843 167.143 31.7475C167.084 31.8423 166.859 31.9201 166.71 31.8928C166.602 31.8732 166.579 31.8835 166.52 31.9783C166.468 32.0555 166.426 32.0831 166.345 32.0818L166.237 32.0835L166.347 32.1599C166.488 32.2616 166.558 32.4296 166.554 32.6531C166.552 32.8091 166.532 32.8585 166.418 32.9843C166.077 33.3511 166.121 33.7174 166.533 33.955C166.738 34.0755 167.205 34.204 167.635 34.2539C167.904 34.2833 167.919 34.3083 167.773 34.4975C167.624 34.6901 167.636 34.8785 167.799 35.0267C167.913 35.1315 167.931 35.1673 167.947 35.3947L167.969 35.647L167.85 35.6698C167.784 35.6794 167.675 35.7343 167.613 35.79C167.523 35.8736 167.499 35.9229 167.497 36.0471C167.496 36.1322 167.525 36.2463 167.566 36.3108C167.633 36.4184 167.633 36.422 167.562 36.506C167.351 36.7508 167.393 36.9679 167.683 37.1041C167.775 37.1482 167.874 37.1818 167.905 37.1824C167.936 37.1864 167.904 37.2072 167.839 37.2309C167.688 37.2887 167.589 37.4112 167.587 37.539C167.585 37.6631 167.778 37.8722 167.95 37.9354C168.023 37.9579 168.08 37.9979 168.083 38.0192C168.083 38.037 168.101 38.3389 168.118 38.6834C168.148 39.1842 168.142 39.3261 168.106 39.3752C168.079 39.4067 168.054 39.5091 168.052 39.6013C168.051 39.7042 168.026 39.7819 167.991 39.8097C167.906 39.8721 167.916 39.9503 168.043 40.1867C168.117 40.3228 168.168 40.4975 168.192 40.6824C168.223 40.9065 168.248 40.985 168.32 41.0465C168.389 41.1045 168.411 41.1616 168.409 41.2716C168.403 41.6441 168.782 41.9273 169.093 41.7799C169.178 41.7388 169.167 41.6783 169.269 42.7232C169.502 45.0798 169.85 46.5725 170.42 47.6643C170.558 47.9257 170.646 48.1827 170.783 48.6995C170.885 49.0773 170.99 49.4624 171.023 49.5516L171.074 49.7122L170.891 50.064C170.653 50.5141 170.274 51.5119 170.114 52.1231C169.773 53.4161 169.767 54.4663 170.095 54.8516C170.291 55.082 170.383 55.1261 170.694 55.1349C170.905 55.142 170.993 55.1612 171.043 55.2047C171.077 55.2372 171.157 55.2775 171.218 55.2892C171.31 55.3085 171.329 55.3266 171.309 55.3866C171.155 55.863 171.181 56.1296 171.412 56.3677C171.532 56.501 171.643 56.549 172.018 56.644C172.045 56.6516 172.07 56.7939 172.086 56.9894C172.11 57.3588 172.217 58.0632 172.38 58.9212C172.475 59.4231 172.481 59.5119 172.44 59.678C172.329 60.1374 172.533 60.556 173.012 60.8657L173.263 61.0296L173.264 61.2177C173.261 61.388 173.241 61.4302 173.049 61.6754C172.164 62.8137 171.395 64.4152 171.127 65.6776C171.035 66.1302 171.017 66.9851 171.095 67.3661C171.216 67.9571 171.492 68.4728 171.908 68.8843L172.131 69.1081L172.012 69.5461C171.652 70.8529 171.568 71.7209 171.598 73.8327C171.612 74.7946 171.626 74.8551 171.873 75.2603C172.027 75.5007 172.28 76.243 172.346 76.6415C172.367 76.7519 172.385 77.2951 172.383 77.8522C172.386 78.4093 172.402 79.0306 172.422 79.2367C172.441 79.4429 172.46 79.9435 172.46 80.3551C172.461 81.2351 172.597 82.2842 172.838 83.2715C172.87 83.4135 172.907 83.7693 172.917 84.0888C172.929 84.5006 172.966 84.8133 173.047 85.2263C173.108 85.5394 173.224 86.1309 173.302 86.5438C173.567 87.9459 173.825 88.8591 174.065 89.2145C174.17 89.3759 174.173 89.397 174.166 89.7979C174.127 91.9192 173.657 94.0012 172.895 95.422C172.776 95.6437 172.672 95.8298 172.665 95.8369C172.657 95.8439 172.422 95.8753 172.144 95.9098C171.038 96.0403 170.442 96.2535 170.287 96.5774C170.255 96.6409 170.169 96.703 170.042 96.7577C169.933 96.8023 169.782 96.8953 169.703 96.9653L169.563 97.0938L168.927 97.1472C167.737 97.2442 167.047 97.3497 166.845 97.4562L166.729 97.5217L166.713 98.4865L166.696 99.4547L166.096 99.7285C165.766 99.8793 165.495 100.013 165.494 100.024C165.492 100.151 165.778 100.752 165.992 101.054L166.128 101.244L166.113 102.139L166.097 103.032L165.938 103.168C165.711 103.367 165.588 103.57 165.558 103.8L165.531 103.995L179.303 104.227C192.56 104.451 193.071 104.456 193.072 104.396C193.073 104.36 193.047 104.3 193.017 104.26C192.972 104.206 192.967 104.025 192.976 103.276L192.991 102.365L193.148 102.158C193.306 101.955 193.635 101.364 193.676 101.22C193.692 101.153 193.65 101.123 193.307 100.983C193.097 100.897 192.822 100.78 192.704 100.721L192.482 100.617L192.498 99.6774L192.514 98.7374L192.319 98.6452C192.087 98.528 190.809 98.1126 190.258 97.9685C189.929 97.8844 189.841 97.8476 189.769 97.7613C189.72 97.7036 189.598 97.6165 189.495 97.5689C189.179 97.4144 189.003 97.1418 188.693 96.3239C188.355 95.4415 187.947 94.0507 188.017 94.0132C188.203 93.913 188.186 92.9018 187.967 91.0672L187.91 90.5867L188.052 90.3797C188.268 90.068 188.298 89.8983 188.26 89.2198C188.238 88.9001 188.216 88.3887 188.21 88.0798C188.192 87.5508 188.196 87.5155 188.27 87.4422C188.313 87.4004 188.372 87.3301 188.396 87.288C188.451 87.1895 188.46 86.672 188.411 86.4225C188.389 86.3155 188.377 85.8933 188.377 85.4778L188.382 84.726L188.529 84.6677C188.61 84.6376 188.691 84.5926 188.711 84.5719C188.731 84.5474 188.714 84.1709 188.669 83.627C188.577 82.4936 188.574 82.4119 188.676 82.332C188.719 82.2972 188.742 82.2586 188.735 82.2443C188.697 82.1834 188.589 80.8863 188.601 80.6098C188.608 80.4431 188.586 80.1411 188.555 79.9348C188.52 79.7283 188.333 78.2313 188.142 76.61C187.707 72.9691 187.66 72.5744 187.671 72.5746C187.756 72.576 188.168 72.7817 188.484 72.9786C188.959 73.2741 189.04 73.3073 189.305 73.3118C189.816 73.3205 190.243 73.1219 190.603 72.7057C190.741 72.5448 190.85 72.4508 190.896 72.4516C191.011 72.4536 191.241 72.2977 191.382 72.1227C191.544 71.9196 191.746 71.5327 191.875 71.1729C192.077 70.6086 192.314 69.541 192.321 69.1649C192.323 69.0549 192.367 68.9244 192.462 68.7486C192.625 68.4391 192.705 68.0288 192.682 67.6132C192.67 67.3931 192.683 67.301 192.743 67.1601C192.783 67.0649 192.848 66.8354 192.882 66.6586C192.962 66.2412 193.063 64.5964 193.016 64.4395C192.972 64.2791 192.841 64.0852 192.648 63.8868L192.482 63.7172L192.921 62.9901C193.162 62.5932 193.36 62.2594 193.36 62.2488C193.361 62.2382 193.323 62.202 193.281 62.1694L193.197 62.1077L193.433 61.81L193.673 61.516L193.575 61.4079C193.341 61.1413 192.124 59.847 192.007 59.7349C191.908 59.6446 191.767 59.5819 191.484 59.4919C191.216 59.4058 191.094 59.3789 191.082 59.4071C191.074 59.4318 191.037 59.5447 191 59.6612C190.903 59.9789 190.915 59.9649 190.808 59.9241C190.712 59.8905 190.704 59.9046 190.351 60.5231C190.106 60.9519 189.976 61.1449 189.945 61.1302C189.918 61.1155 189.816 61.0357 189.71 60.9523C189.607 60.869 189.356 60.6909 189.159 60.5598L188.793 60.3195L188.732 60.07C188.614 59.5712 188.261 58.8201 187.667 57.7952C187.506 57.5193 187.331 57.1899 187.275 57.0648C187.127 56.7251 186.943 56.463 186.663 56.2099C186.527 56.0869 186.379 55.9177 186.335 55.8318C186.234 55.6384 186.071 55.5292 185.791 55.4748C185.672 55.4515 185.542 55.4209 185.503 55.4132C185.412 55.3868 185.326 55.2115 185.329 55.0625C185.33 54.9561 185.308 54.9202 185.182 54.8329C185.099 54.7747 184.908 54.6899 184.751 54.6447C184.598 54.5995 184.449 54.5509 184.418 54.5362C184.388 54.5215 184.205 54.2061 184.011 53.8374L183.657 53.1678L183.731 53.0874C183.88 52.9338 183.982 52.7865 183.984 52.7191C183.984 52.6801 183.936 52.5551 183.873 52.4405C183.798 52.3008 183.762 52.176 183.764 52.0696C183.765 51.9809 183.745 51.7925 183.717 51.6465C183.675 51.4223 183.676 51.3584 183.725 51.1925C183.806 50.9241 183.799 50.885 183.653 50.6732C183.555 50.5331 183.522 50.451 183.524 50.341C183.525 50.2594 183.493 50.0885 183.453 49.9637C183.413 49.8423 183.38 49.7354 183.38 49.7282C183.38 49.7212 183.442 49.7293 183.522 49.7448L183.66 49.772L183.636 49.4026C183.624 49.2001 183.617 48.9445 183.622 48.831C183.628 48.7211 183.608 48.515 183.576 48.3725C183.548 48.2301 183.531 48.1092 183.538 48.1022C183.542 48.0952 184.394 47.9889 185.423 47.8679C186.452 47.7433 187.288 47.6368 187.281 47.626C187.269 47.6151 183.896 47.434 183.285 47.4131C183.185 47.4114 183.147 47.3752 183.019 47.1885C182.937 47.0665 182.866 46.9553 182.858 46.941C182.854 46.9303 183.491 46.5862 184.275 46.1771C185.838 45.3625 185.966 45.2902 185.665 45.388C185.56 45.4253 184.757 45.6601 183.879 45.915L182.287 46.3742L181.972 46.1489C181.801 46.0254 181.603 45.8943 181.534 45.8648C181.465 45.8317 181.408 45.7988 181.409 45.7846C181.409 45.7739 181.661 45.1892 181.969 44.4847C182.277 43.7802 182.525 43.1989 182.521 43.1917C182.514 43.1881 182.141 43.6501 181.685 44.2208C181.233 44.7916 180.813 45.3168 180.754 45.3868L180.648 45.5163L180.464 45.4635C180.361 45.4333 180.112 45.3865 179.912 45.3584L179.551 45.3097L178.578 43.7603C178.042 42.9067 177.6 42.2145 177.596 42.2215C177.588 42.2285 177.83 42.9174 178.135 43.76C178.437 44.5989 178.686 45.288 178.686 45.2951C178.686 45.3022 178.628 45.3154 178.563 45.3285C178.331 45.3672 178.053 45.4512 177.824 45.5502L177.603 45.6494L175.971 44.8731C174.258 44.0564 173.788 43.8392 173.788 43.8605C173.788 43.8675 174.495 44.355 175.358 44.9409C176.217 45.5267 176.947 46.0251 176.977 46.0505C177.023 46.0902 177.015 46.1185 176.928 46.2483C176.877 46.3326 176.805 46.4663 176.781 46.5474C176.752 46.6322 176.713 46.6989 176.697 46.6986C176.678 46.6983 175.977 46.7433 175.138 46.7965C174.299 46.8498 173.598 46.8841 173.579 46.8731C173.56 46.8621 173.546 46.7803 173.548 46.6916C173.552 46.4398 173.451 45.8171 173.353 45.4854C173.306 45.3214 173.081 44.7073 172.857 44.1215C172.075 42.0999 171.654 40.8828 171.386 39.867C171.263 39.3894 171.239 39.2364 171.22 38.7464C171.207 38.4339 171.174 38.0963 171.145 38C171.006 37.5257 170.745 37.0529 170.357 36.5709C170.229 36.4161 170.101 36.2542 170.067 36.2111C170.018 36.1464 170.016 36.0683 170.05 35.6573L170.092 35.1789L170.225 35.0676C170.397 34.925 170.423 34.7374 170.291 34.5613C170.257 34.5111 170.216 34.4358 170.202 34.3965C170.18 34.3252 170.195 34.3184 170.419 34.3009C171.096 34.2449 171.65 34.0555 171.803 33.831C171.953 33.6171 171.9 33.3217 171.667 33.0445C171.572 32.9329 171.55 32.8722 171.553 32.7339C171.556 32.5139 171.608 32.4048 171.76 32.2761L171.885 32.1753L171.781 32.1735C171.701 32.1722 171.659 32.1431 171.61 32.0642C171.554 31.9674 171.531 31.9564 171.423 31.9723C171.273 31.9946 171.051 31.9093 170.995 31.8089C170.958 31.7444 170.943 31.7406 170.827 31.7813C170.761 31.8085 170.553 31.837 170.368 31.8445L170.029 31.8636L170.036 31.4698L170.042 31.0761L170.175 30.9719C170.381 30.8121 170.551 30.5524 170.593 30.3331C170.644 30.0749 170.711 29.9625 171.044 29.5885C171.448 29.1375 171.495 29.0709 171.537 28.88C171.558 28.7881 171.594 28.6645 171.618 28.6117C171.642 28.5553 171.663 28.474 171.664 28.4279C171.665 28.3357 171.558 28.089 171.516 28.0883C171.504 28.0881 171.461 28.1442 171.425 28.211ZM175.269 47.2246C175.83 47.2624 176.376 47.3071 176.479 47.3195L176.671 47.3405L176.729 47.5792C176.761 47.711 176.782 47.825 176.774 47.8319C176.767 47.8388 176.261 47.9368 175.652 48.0471L174.541 48.252L174.427 48.1223C174.235 47.8955 174.026 47.7217 173.919 47.6985C173.804 47.6753 173.677 47.4674 173.631 47.2324L173.606 47.0972L173.929 47.1274C174.105 47.141 174.709 47.1867 175.269 47.2246ZM176.906 48.7141C176.911 48.8278 176.9 49.0299 176.879 49.1679C176.861 49.3095 176.857 49.565 176.876 49.7711C176.902 50.066 176.924 50.1374 176.992 50.1882C177.102 50.2752 177.26 50.2743 177.388 50.1842C177.482 50.1184 177.49 50.1185 177.489 50.1788C177.486 50.3207 176.641 51.662 176.556 51.6641C176.467 51.6626 176.058 51.3399 175.755 51.0296C175.373 50.6434 175.235 50.3963 175.27 50.1733C175.291 50.0424 175.277 49.9818 175.18 49.8063C175.112 49.6845 175.05 49.5167 175.04 49.403C175.027 49.2928 174.957 49.0716 174.883 48.9106C174.813 48.7498 174.754 48.6139 174.757 48.614C174.773 48.6072 176.54 48.5164 176.717 48.5122L176.894 48.5117L176.906 48.7141Z"
       fill="#148526"
       id="path3" />
  </g>
  <path
     d="M262.776 76.05V114H235.221V19.95H263.106L288.021 57.9C291.761 63.51 294.621 68.24 296.601 72.09H297.096V56.25V19.95H324.486V114H296.436L270.861 74.4L263.436 63.18H262.941L262.776 76.05ZM389.193 83.97V114H359.493V84.3L327.813 19.95H358.008L370.548 50.475C371.868 53.555 373.078 56.8 374.178 60.21H374.508C375.718 56.47 376.928 53.115 378.138 50.145L390.513 19.95H420.543L389.193 83.97ZM494.44 110.865C490.37 112.625 485.64 113.89 480.25 114.66C474.86 115.43 469.855 115.815 465.235 115.815C450.275 115.815 438.56 111.91 430.09 104.1C421.62 96.29 417.385 84.3 417.385 68.13C417.385 51.63 421.84 39.31 430.75 31.17C439.66 22.92 452.2 18.795 468.37 18.795C476.07 18.795 484.1 19.84 492.46 21.93C492.46 24.13 492.24 27.43 491.8 31.83C491.36 36.12 490.92 39.145 490.48 40.905H480.085C472.495 40.905 466.5 41.07 462.1 41.4C457.81 41.62 455.225 42.115 454.345 42.885C452.695 44.425 451.43 47.56 450.55 52.29C449.67 56.91 449.23 61.365 449.23 65.655C449.23 73.135 450.165 78.91 452.035 82.98C453.905 86.94 456.27 89.58 459.13 90.9C461.88 92.22 466.445 92.88 472.825 92.88C477.885 92.88 484.485 92.44 492.625 91.56L494.44 110.865Z"
     fill="black"
     id="path4" />
  <path
     d="M526.89 20.295C531.48 20.295 535.362 20.72 538.535 21.57C541.709 22.42 544.23 24.0633 546.1 26.5C548.027 28.88 548.99 32.3083 548.99 36.785C548.99 38.7683 548.679 40.8083 548.055 42.905C547.489 44.945 546.752 46.73 545.845 48.26C544.995 49.79 544.23 50.7817 543.55 51.235C542.757 51.8017 541 52.255 538.28 52.595C535.56 52.8783 532.359 53.02 528.675 53.02C527.372 53.02 525.36 52.9633 522.64 52.85V69H507.34V20.55C513.29 20.38 519.807 20.295 526.89 20.295ZM533.265 42.14C533.832 41.4033 534.115 39.93 534.115 37.72C534.115 34.83 533.492 32.79 532.245 31.6C531.055 30.41 528.959 29.815 525.955 29.815C524.935 29.815 523.83 29.9 522.64 30.07V42.99C523.207 43.0467 524.312 43.075 525.955 43.075C530.319 43.075 532.755 42.7633 533.265 42.14ZM581.377 58.375H567.267L564.717 69H549.077L564.717 20.55H584.692L599.652 69H583.927L581.377 58.375ZM574.237 31.005L569.222 48.94H579.337L574.577 31.005H574.237ZM647.993 69H631.928L629.038 56.76C628.925 56.3067 628.727 55.5417 628.443 54.465C628.217 53.3317 627.933 52.51 627.593 52C627.253 51.4333 626.772 51.065 626.148 50.895C624.562 50.9517 622.238 50.98 619.178 50.98V69H603.878V20.975C610.735 20.465 617.138 20.21 623.088 20.21C628.472 20.21 632.835 20.6633 636.178 21.57C639.522 22.42 642.015 23.9217 643.658 26.075C645.358 28.1717 646.208 31.0617 646.208 34.745C646.208 38.2017 645.415 40.9217 643.828 42.905C642.242 44.8317 639.692 45.9933 636.178 46.39V46.9C638.162 47.07 639.805 47.7217 641.108 48.855C642.468 49.9317 643.375 51.32 643.828 53.02L647.993 69ZM619.178 41.375C619.688 41.4317 620.68 41.46 622.153 41.46C626.517 41.46 629.067 41.0917 629.803 40.355C630.483 39.675 630.823 38.0883 630.823 35.595C630.823 33.2717 630.2 31.685 628.953 30.835C627.763 29.985 625.78 29.56 623.003 29.56C622.38 29.56 621.105 29.6167 619.178 29.73V41.375ZM698.405 69H681.66L672.225 50.895C672.055 50.6117 671.602 49.8183 670.865 48.515C670.185 47.2117 669.42 45.965 668.57 44.775V69H653.27V20.55H668.57V42.565C669.533 41.4883 670.355 40.3267 671.035 39.08C671.772 37.7767 672.197 37.0117 672.31 36.785L681.405 20.55H697.555L687.865 36.785C687.695 37.0117 687.327 37.6067 686.76 38.57C686.193 39.5333 685.57 40.44 684.89 41.29C684.267 42.0833 683.587 42.82 682.85 43.5C683.87 44.4633 684.692 45.4267 685.315 46.39C685.995 47.2967 686.76 48.515 687.61 50.045L698.405 69Z"
     fill="black"
     id="path5" />
  <path
     d="M506.359 79.95H532.944V88.01H518.059V95.355H530.344V102.44H518.059V117H506.359V79.95ZM536.959 79.95H548.659V117H536.959V79.95ZM566.094 102.05V117H555.239V79.95H566.224L576.039 94.9C577.512 97.11 578.639 98.9733 579.419 100.49H579.614V94.25V79.95H590.404V117H579.354L569.279 101.4L566.354 96.98H566.159L566.094 102.05ZM609.816 79.95C614.886 79.95 619.024 80.4267 622.231 81.38C625.481 82.3333 627.994 84.1317 629.771 86.775C631.591 89.4183 632.501 93.21 632.501 98.15C632.501 103.437 631.548 107.467 629.641 110.24C627.734 112.97 625.178 114.79 621.971 115.7C618.764 116.567 614.713 117 609.816 117H596.816V79.95H609.816ZM618.526 108.16C619.046 107.64 619.414 106.297 619.631 104.13C619.848 101.963 619.956 99.97 619.956 98.15C619.956 95.8533 619.783 94.0333 619.436 92.69C619.133 91.3033 618.569 90.1983 617.746 89.375C616.446 87.945 614.214 87.23 611.051 87.23C610.488 87.23 609.643 87.2733 608.516 87.36V108.94C609.253 109.027 610.401 109.07 611.961 109.07C613.564 109.07 614.973 109.005 616.186 108.875C617.443 108.702 618.223 108.463 618.526 108.16ZM637.37 79.95H664.345V87.75H649.07V94.51H661.94V101.53H649.07V109.07H664.28V117H637.37V79.95ZM703.041 117H690.756L688.546 107.64C688.459 107.293 688.308 106.708 688.091 105.885C687.918 105.018 687.701 104.39 687.441 104C687.181 103.567 686.813 103.285 686.336 103.155C685.123 103.198 683.346 103.22 681.006 103.22V117H669.306V80.275C674.549 79.885 679.446 79.69 683.996 79.69C688.113 79.69 691.449 80.0367 694.006 80.73C696.563 81.38 698.469 82.5283 699.726 84.175C701.026 85.7783 701.676 87.9883 701.676 90.805C701.676 93.4483 701.069 95.5283 699.856 97.045C698.643 98.5183 696.693 99.4067 694.006 99.71V100.1C695.523 100.23 696.779 100.728 697.776 101.595C698.816 102.418 699.509 103.48 699.856 104.78L703.041 117ZM681.006 95.875C681.396 95.9183 682.154 95.94 683.281 95.94C686.618 95.94 688.568 95.6583 689.131 95.095C689.651 94.575 689.911 93.3617 689.911 91.455C689.911 89.6783 689.434 88.465 688.481 87.815C687.571 87.165 686.054 86.84 683.931 86.84C683.454 86.84 682.479 86.8833 681.006 86.97V95.875Z"
     fill="black"
     id="path6" />
  <defs
     id="defs7">
    <filter
       id="filter0_i_12_54"
       x="165.494"
       y="28.0883"
       width="28.1843"
       height="80.3404"
       filterUnits="userSpaceOnUse"
       color-interpolation-filters="sRGB">
      <feFlood
         flood-opacity="0"
         result="BackgroundImageFix"
         id="feFlood6" />
      <feBlend
         mode="normal"
         in="SourceGraphic"
         in2="BackgroundImageFix"
         result="shape"
         id="feBlend6" />
      <feColorMatrix
         in="SourceAlpha"
         type="matrix"
         values="0 0 0 0 0 0 0 0 0 0 0 0 0 0 0 0 0 0 127 0"
         result="hardAlpha"
         id="feColorMatrix6" />
      <feOffset
         dy="4"
         id="feOffset6" />
      <feGaussianBlur
         stdDeviation="2"
         id="feGaussianBlur6" />
      <feComposite
         in2="hardAlpha"
         operator="arithmetic"
         k2="-1"
         k3="1"
         id="feComposite6" />
      <feColorMatrix
         type="matrix"
         values="0 0 0 0 0 0 0 0 0 0 0 0 0 0 0 0 0 0 0.25 0"
         id="feColorMatrix7" />
      <feBlend
         mode="normal"
         in2="shape"
         result="effect1_innerShadow_12_54"
         id="feBlend7" />
    </filter>
  </defs>
</svg>
