<svg xmlns="http://www.w3.org/2000/svg" viewBox="0 0 64 64"><g id="Layer_1" data-name="Layer 1"><rect class="cls-1" x="20.13" y="10.63" width="8.26" height="5.91"></rect><path class="cls-1" d="M37.71,36.14a1.41,1.41,0,0,1-1.41-1.41V18.39H48.78L54,40.68l0,1.44V52a1.38,1.38,0,0,1-1.38,1.38H40.5A1.38,1.38,0,0,1,39.12,52V36.14H37.81"></path><path class="cls-1" d="M26.93,36.17a1.41,1.41,0,0,0,1.41-1.41V18.42H15.88L10.61,40.7l0,1.45V52A1.38,1.38,0,0,0,12,53.38H24.14A1.38,1.38,0,0,0,25.53,52V36.17h1.3"></path><rect class="cls-1" x="30.18" y="18.42" width="4.28" height="15.17"></rect><rect class="cls-1" x="36.3" y="10.63" width="8.27" height="5.91"></rect></g></svg>