<svg xmlns="http://www.w3.org/2000/svg" viewBox="0 0 64 64"><g id="icon-climbing" data-name="icon-climbing"><path class="cls-2" d="M12.84,28.33a5.45,5.45,0,0,0-.47,1.52,6.08,6.08,0,0,0-.06.83l.2,12.6L8.15,52.65a2.87,2.87,0,0,0-.31.94,2.83,2.83,0,0,0,5.28,1.79L17.9,45.13a3,3,0,0,0,.23-.76c0-.12,0-.26,0-.39l0-7.79,7.36,3.21L26.66,47a2.83,2.83,0,0,0,5.56-.19,3.22,3.22,0,0,0,0-.78l-1.45-9.19a2.86,2.86,0,0,0-1.59-2L22.62,31.9l4.19-7.29,2.08,2.64a2.16,2.16,0,0,0,.8.56l7.91,2.31a2.23,2.23,0,0,0,1.31-4.25l-.11,0-6.88-2L26.75,17.6a5.23,5.23,0,0,0-3-1.6,5.15,5.15,0,0,0-5.14,2.39Z"></path><path class="cls-2" d="M35.54,46.39,35,50.17,21.43,53.48l.13,2.34h33.2a2.12,2.12,0,0,0,2.13-2.13l0-44.75L52.3,7.88,49.69,19.64l-4.37,1.84L41.44,32.33l3.68,8.3-1,3.19Z"></path><circle class="cls-2" cx="26.3" cy="11.21" r="4.24"></circle><path class="cls-2" d="M17.87,16.11a1.21,1.21,0,0,0-.45-1.65l-2.05-1.2a1.22,1.22,0,0,0-1.66.45L7.38,24.63a1.21,1.21,0,0,0,.45,1.65l2.06,1.19A1.21,1.21,0,0,0,11.54,27Z"></path></g></svg>