<svg xmlns="http://www.w3.org/2000/svg" viewBox="0 0 64 64"><g id="Layer_1" data-name="Layer 1"><polygon class="cls-1" points="8.72 10.54 27.28 10.54 27.28 12.33 25.48 12.33 25.48 14.32 8.72 15.77 8.72 10.54"></polygon><path class="cls-1" d="M35.07,15.9a4.28,4.28,0,1,0-4.29-4.28A4.27,4.27,0,0,0,35.07,15.9Z"></path><path class="cls-1" d="M38.31,15.66a3.15,3.15,0,0,1,4.43,0L52,24.91a2,2,0,0,1,.57,1.38V54a3.47,3.47,0,0,1-6.93,0V31.14L37,22.5,33.55,26a2.13,2.13,0,0,1-3.21.08l-5.95-6a2.15,2.15,0,0,1,.2-3,2.13,2.13,0,0,1,3,.27l4.52,4.54Z"></path><path class="cls-1" d="M20.31,17a.91.91,0,0,0-.89-.72.9.9,0,0,0-.89.75l-1.44,8.26v32H29.31V52.73h-7.5l-.05-27.47Z"></path></g></svg>