<svg xmlns="http://www.w3.org/2000/svg" viewBox="0 0 64 64"><g id="icon-forage" data-name="icon-forage"><path class="cls-2" d="M24.38,14.71a4.19,4.19,0,1,1,4.2-4.2A4.19,4.19,0,0,1,24.38,14.71Z"></path><path class="cls-2" d="M43.4,23H36.87L31,17.18a4.25,4.25,0,0,0-.49-.44,5.29,5.29,0,0,0-3.3-1.16H19.48a5.46,5.46,0,0,0-5.42,5.5V33.88a1.66,1.66,0,1,0,3.28,0V21.35h1.55v34a2.35,2.35,0,1,0,4.7,0V35.63h1.57V55.32a2.35,2.35,0,1,0,4.7,0V20.61l5.2,5.2a1.57,1.57,0,0,0,1.14.46h7.2a1.61,1.61,0,1,0,0-3.23Z"></path><path class="cls-2" d="M19,28.34,8.64,38.67a.72.72,0,0,0,1,1L12,37.35v2.49L9.29,42.56a.43.43,0,0,0,0,.61.44.44,0,0,0,.62,0L12,41.07v6.32a.39.39,0,0,0,.77,0v-3.2l1.64,1.64a.29.29,0,1,0,.4-.4l-1.65-1.66V36.2L20,29.35Z"></path><path class="cls-2" d="M55.45,20.69a.47.47,0,0,0,0-.65.45.45,0,0,0-.65,0l-2.7,2.7V20a.35.35,0,0,0-.34-.34.34.34,0,0,0-.34.34v2.78l-6.32,6.32H39.73s5.58-5.58,5.91-5.92a1.39,1.39,0,0,0,.35-.87v-3l4.6-3.64h3.18a.32.32,0,0,0,.33-.32.35.35,0,0,0-.33-.34H50.7l2.94-2.41a.41.41,0,0,0,0-.6A.44.44,0,0,0,53,12l-4.59,3.67V10.49a.39.39,0,0,0-.4-.4.4.4,0,0,0-.42.4v5.8l-2.23,1.88V14.82a.57.57,0,0,0-.55-.57.58.58,0,0,0-.57.57v6.82l-11,11,1.46,1.44L38,30.82H51.53a.66.66,0,0,0,.66-.66.67.67,0,0,0-.66-.67l-4.92,0L49.1,27h4.53a.51.51,0,0,0,.51-.5.52.52,0,0,0-.51-.53H50.11Z"></path></g></svg>