<svg xmlns="http://www.w3.org/2000/svg" viewBox="0 0 64 64"><g id="icon-scenic-drive" data-name="icon-scenic-drive"><path class="cls-2" d="M19.32,43.57v3.71a3.68,3.68,0,1,1-7.37,0V43.57H8.21V31.5h0A5.7,5.7,0,0,1,12.4,26l4.31-10.27a4.18,4.18,0,0,1,3.84-2.57h22.1a4.17,4.17,0,0,1,3.85,2.57L50.81,26A5.71,5.71,0,0,1,55,31.49h0V43.57H51.25l0,3.71a3.69,3.69,0,1,1-7.38,0V43.57Zm-3.46-6.63a3.73,3.73,0,1,0-3.74-3.74A3.75,3.75,0,0,0,15.86,36.93Zm35-3.74a3.74,3.74,0,1,0-3.74,3.74A3.72,3.72,0,0,0,50.86,33.2Zm-3.74-7.43L43.41,16.9a1.15,1.15,0,0,0-1.09-.76H20.89a1.17,1.17,0,0,0-1.09.76l-3.69,8.87Z"></path></g></svg>