<svg xmlns="http://www.w3.org/2000/svg" viewBox="0 0 64 64"><g id="icon-rafting" data-name="icon-rafting"><path class="cls-2" d="M28.47,14.15l-.55,1.17A2.17,2.17,0,0,1,26,16.54H24.69a4.06,4.06,0,0,0,7.38-2.32V14H28.66A.2.2,0,0,0,28.47,14.15Z"></path><path class="cls-2" d="M26,15.51a1.12,1.12,0,0,0,1-.64l.54-1.17A1.24,1.24,0,0,1,28.66,13h4.19A5,5,0,0,0,23,14.22a4.74,4.74,0,0,0,.17,1.3Z"></path><path class="cls-2" d="M39.75,37.32c3.73-.13,13.48-1,16.16-3.6-1.21-3.72-6-4-10.33-2.07a13.92,13.92,0,0,1-2.89.81L41.79,29a2.11,2.11,0,0,0-1-4l-.65-2.53a2.11,2.11,0,0,0-1.73-3.75s-9.24.08-12.14.86-3.87,5.63-3.87,5.63l-2.54,8.23H7.8v3.86Zm-8.3-14.14,7.17-.3.57,2.2c-1.94.1-5.38.27-8.46.45Zm-2,6.57,10.82-.49.9,3.45a104,104,0,0,1-12.84.74Z"></path><path class="cls-2" d="M49.66,42.2s6.55-.08,6.55-6.49a7.21,7.21,0,0,0,0-.73c-4.09,3-15,3.44-16.39,3.49H7.8v5A5.73,5.73,0,0,0,10.07,43a8.73,8.73,0,0,1,7.36,0,5.64,5.64,0,0,0,2.31.5A5.55,5.55,0,0,0,22,43a8.91,8.91,0,0,1,3.7-.82,8.72,8.72,0,0,1,3.68.81,5.56,5.56,0,0,0,2.31.5A5.63,5.63,0,0,0,34,43a8.86,8.86,0,0,1,3.69-.82,8.69,8.69,0,0,1,3.68.81,5.64,5.64,0,0,0,2.31.5H44l1,3.66a7,7,0,0,1-4.19-.51,7.13,7.13,0,0,0-6.07,0,7.19,7.19,0,0,1-5.89,0,7.13,7.13,0,0,0-6.07,0,7.16,7.16,0,0,1-5.88,0,7.1,7.1,0,0,0-6.06,0,7.21,7.21,0,0,1-3,.63V51.7a7.21,7.21,0,0,0,3-.63,7.1,7.1,0,0,1,6.06,0,7.17,7.17,0,0,0,5.88,0,7.13,7.13,0,0,1,6.07,0,7.19,7.19,0,0,0,5.89,0,7.13,7.13,0,0,1,6.07,0,7.19,7.19,0,0,0,5.89,0,7.13,7.13,0,0,1,6.07,0,7.17,7.17,0,0,0,3,.63V47.28a7.17,7.17,0,0,1-3-.63,7.13,7.13,0,0,0-6.07,0l-.21.08-.92-3.52L46,43A8.87,8.87,0,0,1,49.66,42.2Z"></path></g></svg>