<?xml version="1.0" encoding="iso-8859-1"?>
<!-- Uploaded to: SVG Repo, www.svgrepo.com, Generator: SVG Repo Mixer Tools -->
<svg fill="#000000" height="800px" width="800px" version="1.1" id="Layer_1" xmlns="http://www.w3.org/2000/svg" xmlns:xlink="http://www.w3.org/1999/xlink" 
	 viewBox="0 0 511.998 511.998" xml:space="preserve">
<g>
	<g>
		<path d="M489.534,278.493c-5-5-13.099-5-18.099,0c-5,5.001-5,13.099,0,18.099c19.951,19.951,19.951,52.446,0,72.397
			c-9.668,9.685-22.519,15.01-36.198,15.01H332.802v-25.6h25.6c8.055,0,15.642-3.797,20.48-10.24l76.8-102.4
			c5.82-7.757,6.758-18.133,2.415-26.812c-4.335-8.67-13.201-14.148-22.895-14.148h-25.6c-7.774,0-15.13,3.533-19.994,9.609
			l-53.751,67.191h-85.53c-22.724-87.74-57.148-179.2-224.725-179.2c-8.397,0-16.256,4.113-21.043,11.017
			c-4.779,6.903-5.88,15.71-2.927,23.569l76.8,204.8c3.746,9.992,13.295,16.614,23.97,16.614h51.2v25.6H12.836
			c-7.074,0-12.8,5.726-12.8,12.8c0,7.074,5.726,12.8,12.8,12.8h422.4c20.497,0,39.799-8.004,54.298-22.502
			C519.486,357.144,519.486,308.445,489.534,278.493z M102.402,332.799l-76.8-204.8c153.6,0,179.2,76.8,204.8,179.2
			c25.6,0,117.76,0,117.76,0l61.44-76.8h25.6l-76.8,102.4H102.402z M307.202,383.999h-128v-25.6h128V383.999z"/>
	</g>
</g>
</svg>