<svg xmlns="http://www.w3.org/2000/svg" viewBox="0 0 64 64"><g id="icon-swimming" data-name="icon-swimming"><path class="cls-2" d="M56.55,49.46a7.29,7.29,0,0,1-3-.66,7.41,7.41,0,0,0-6.21,0,7.21,7.21,0,0,1-6,0,7.61,7.61,0,0,0-3.1-.68,7.52,7.52,0,0,0-3.1.68,7.24,7.24,0,0,1-6,0,7.38,7.38,0,0,0-6.2,0,7.24,7.24,0,0,1-6,0,7.38,7.38,0,0,0-6.2,0,7.39,7.39,0,0,1-3,.66V44.94a7.58,7.58,0,0,0,3-.65,7.27,7.27,0,0,1,6.2,0,7.36,7.36,0,0,0,6,0,7.27,7.27,0,0,1,6.2,0,7.36,7.36,0,0,0,6,0,7.34,7.34,0,0,1,3.1-.69,7.43,7.43,0,0,1,3.1.69,7.33,7.33,0,0,0,6,0,7.29,7.29,0,0,1,6.21,0,7.48,7.48,0,0,0,3,.65Z"></path><path class="cls-2" d="M49.47,36.69a5.83,5.83,0,1,0-5.82-5.83A5.69,5.69,0,0,0,49.47,36.69Z"></path><path class="cls-2" d="M15.58,40a7.24,7.24,0,0,1,1.28.45,7.24,7.24,0,0,0,6,0,7.26,7.26,0,0,1,6.2,0,7.24,7.24,0,0,0,6,0,7.52,7.52,0,0,1,3.1-.69,7.62,7.62,0,0,1,3.1.69,7.29,7.29,0,0,0,3,.66,7.58,7.58,0,0,0,2.24-.35L36.86,23.2l11.29-2.06A3.36,3.36,0,0,0,51,17.85a3.32,3.32,0,0,0-3.32-3.31h-.38L29.88,17.73A3.14,3.14,0,0,0,28,22l.15.35,4.55,8.22Z"></path></g></svg>