<svg xmlns="http://www.w3.org/2000/svg" viewBox="0 0 64 64"><g id="icon-shopping" data-name="icon-shopping"><path class="cls-2" d="M33.12,54.53V35.42H43.48V54.53ZM20.52,35.42H30.81V54.53H20.52ZM30.81,21.16V33.11H20.52V21.16ZM43.48,33.11H33.12V21.16H43.48ZM45.21,17.7H38.34l5.53-2.23A1.16,1.16,0,0,0,43,13.33l-6.22,2.51,5.09-5a1.17,1.17,0,0,0,.34-.82,1.13,1.13,0,0,0-.34-.81,1.15,1.15,0,0,0-1.63,0l-7.16,7.11,0-10.1A1.15,1.15,0,0,0,32,5h0a1.15,1.15,0,0,0-1.15,1.15s0,6.68,0,10.1L24.35,9.78a1.15,1.15,0,0,0-1.64,1.63l4.47,4.51-6.43-2.57a1.16,1.16,0,0,0-.86,2.15l5.53,2.2H18.79a1.73,1.73,0,0,0-1.73,1.73V56.26A1.73,1.73,0,0,0,18.79,58H45.21a1.73,1.73,0,0,0,1.73-1.73V19.43A1.73,1.73,0,0,0,45.21,17.7Z"></path></g></svg>