<svg xmlns="http://www.w3.org/2000/svg" viewBox="0 0 64 64"><g id="icon-canoeing" data-name="icon-canoeing"><circle class="cls-2" cx="24.27" cy="15.17" r="4.55"></circle><path class="cls-2" d="M7.46,44.63a7.36,7.36,0,0,0,3-.66,7.33,7.33,0,0,1,6.22,0,7.36,7.36,0,0,0,6.05,0A7.35,7.35,0,0,1,29,44a7.33,7.33,0,0,0,6,0,7.35,7.35,0,0,1,6.23,0,7.36,7.36,0,0,0,6.05,0,7.39,7.39,0,0,1,5.81-.19A8.29,8.29,0,0,0,47,29.88l-.93.1a5.72,5.72,0,0,1-5.16,4.31H22l-1.58-.93,3.82-6.41,4.18,2.42a2.53,2.53,0,0,0,3.81-.65l4.19-6.83c1.82-3-2-5.35-3.85-2.37L29.6,24.3l-7-3.86c-4.83-2.69-6.88,1.77-6.88,1.77l-5.48,9.38c-.93,1.95-.1,2.79-.1,2.79H7.46Z"></path><path class="cls-2" d="M56.55,53.69a7.34,7.34,0,0,1-3-.65,7.46,7.46,0,0,0-3.12-.69,7.38,7.38,0,0,0-3.11.69,7.35,7.35,0,0,1-6.05,0A7.35,7.35,0,0,0,35,53a7.32,7.32,0,0,1-6,0,7.35,7.35,0,0,0-6.23,0,7.35,7.35,0,0,1-6.05,0,7.33,7.33,0,0,0-6.22,0,7.39,7.39,0,0,1-3,.65V49.16a7.38,7.38,0,0,0,3-.66,7.33,7.33,0,0,1,6.22,0,7.29,7.29,0,0,0,6.05,0,7.35,7.35,0,0,1,6.23,0,7.26,7.26,0,0,0,6,0,7.35,7.35,0,0,1,6.23,0,7.29,7.29,0,0,0,6.05,0,7.39,7.39,0,0,1,3.11-.69,7.47,7.47,0,0,1,3.12.69,7.33,7.33,0,0,0,3,.66Z"></path></g></svg>