<svg xmlns="http://www.w3.org/2000/svg" viewBox="0 0 64 64"><g id="icon-playground" data-name="icon-playground"><path class="cls-2" d="M14.63,35.77a5.09,5.09,0,1,0-5.08-5.1A5.09,5.09,0,0,0,14.63,35.77Z"></path><path class="cls-2" d="M43.16,44.52a.53.53,0,0,1,.73.11l.94,1.3a.53.53,0,0,1-.11.73l-6.91,5a.53.53,0,0,1-.73-.11l-.94-1.3a.53.53,0,0,1,.11-.73Z"></path><polygon class="cls-2" points="35.35 38.05 32.61 33.24 31.17 34.3 33.91 39.13 35.35 38.05"></polygon><polygon class="cls-2" points="28.96 26.82 18.3 8.11 16.26 8.12 27.5 27.89 28.96 26.82"></polygon><path class="cls-2" d="M39,36.73a3.53,3.53,0,0,1,2.08-.78H51a3.48,3.48,0,1,1,0,7H42.71L32.16,50.36c-3.72,2.68-6-.26-6-.26l-8.28-8.29a4.84,4.84,0,0,1,.58-6.23l11.46-8.16a2.69,2.69,0,1,1,3.46,4.12L26.07,36.9l5.27,5.21Z"></path></g></svg>