<svg xmlns="http://www.w3.org/2000/svg" viewBox="0 0 64 64"><g id="icon-horseback" data-name="icon-horseback"><path class="cls-2" d="M27,12.89a3.63,3.63,0,1,0-3.63-3.63A3.63,3.63,0,0,0,27,12.89Z"></path><path class="cls-2" d="M54,23.35l-3.85-.74L47.9,27.06a4.8,4.8,0,0,0,1.13.12A5.12,5.12,0,0,0,54,23.35ZM6.7,30.86A5.35,5.35,0,0,1,12,25.51H23.3V17.43a3.64,3.64,0,0,1,7.28,0v1.25l5.36,1.38a1.75,1.75,0,1,1-.78,3.41l-4.59-1.08v3.13H36L50.75,10.23l-.44,4L57.59,19a2.53,2.53,0,0,1,.95,3.44,2.49,2.49,0,0,1-2.63,1.24l-.59-.11A6.49,6.49,0,0,1,49,28.53a6.63,6.63,0,0,1-1.74-.24L41.78,39.55V55A2.41,2.41,0,0,1,37,55V39.2H24.8l-2.17,3.73,4.55,10.85A2.41,2.41,0,1,1,23,56.15L17.68,43.63v-4L15.3,43.38V55a2.41,2.41,0,0,1-4.81,0V41.58l2-3.11V27.93l-2,3v8.77H6.7Z"></path></g></svg>