<svg xmlns="http://www.w3.org/2000/svg" viewBox="0 0 64 64"><g id="icon-watersports" data-name="icon-watersports"><path class="cls-2" d="M36.32,48.71a5.66,5.66,0,0,1,1-.08,6.67,6.67,0,0,1,2.82.63,6.68,6.68,0,0,0,5.47,0,6.6,6.6,0,0,1,5.63,0,6.83,6.83,0,0,0,2.73.59v4.1a6.66,6.66,0,0,1-2.73-.6,6.7,6.7,0,0,0-5.63,0,6.57,6.57,0,0,1-5.47,0,6.83,6.83,0,0,0-2.82-.62,6.91,6.91,0,0,0-2.82.62,6.54,6.54,0,0,1-5.46,0,6.73,6.73,0,0,0-5.64,0,6.53,6.53,0,0,1-5.46,0,6.9,6.9,0,0,0-2.82-.62,6.83,6.83,0,0,0-2.82.62,6.62,6.62,0,0,1-2.73.6v-4.1a6.79,6.79,0,0,0,2.73-.59,6.67,6.67,0,0,1,2.82-.63,6.74,6.74,0,0,1,2.82.63,6.64,6.64,0,0,0,5.46,0,6.66,6.66,0,0,1,1.53-.5l25.87-4.61a3.41,3.41,0,0,0,2.38-1.79c.08-.19.35-.24.59-.23a.79.79,0,0,1,.73.81c0,.66-.51,2.52-3.34,3.09Z"></path><circle class="cls-2" cx="13.87" cy="12.45" r="3.74"></circle><path class="cls-2" d="M24.75,46.44A2.39,2.39,0,0,0,27,48.07h0a2.38,2.38,0,0,0,2.39-2.39l0-.39L26.48,33.07a3.17,3.17,0,0,0-1.75-1.83h0l-4.2-2.52-1.91-8.25,11.79,0a1.74,1.74,0,0,0,0-3.48h-17c-1.7,0-2.49,1.22-2.29,2.28l2.41,10.93a3.3,3.3,0,0,0,1.77,2.34l.05,0,7,4.12Z"></path><rect class="cls-2" x="33.16" y="19.16" width="20.83" height="1.3"></rect></g></svg>