<svg xmlns="http://www.w3.org/2000/svg" viewBox="0 0 64 64"><g id="icon-hiking" data-name="icon-hiking"><path class="cls-2" d="M31,14.71a4,4,0,1,0-4-4A4,4,0,0,0,31,14.71Z"></path><path class="cls-2" d="M24.34,15.36A1.14,1.14,0,0,0,23.5,14l-3.3-.8a1.13,1.13,0,0,0-1.37.83L16.05,25.52a1.13,1.13,0,0,0,.83,1.37l3.32.8a1.12,1.12,0,0,0,1.36-.83Z"></path><path class="cls-2" d="M39.58,56.24a.5.5,0,0,1,0,.06.91.91,0,0,0,1.82.12L48,20.32v-.07a.9.9,0,0,0-.9-.9,1,1,0,0,0-.9.8Z"></path><path class="cls-2" d="M17.45,53.88a3.07,3.07,0,0,0,0,.56,2.79,2.79,0,0,0,5.46.8L27.65,35.4l4.57,19.72a2.78,2.78,0,0,0,5.48-.68,3.44,3.44,0,0,0-.06-.61l-6.27-26.2.53-2.31.41,1.82a1.83,1.83,0,0,0,1.45,1.3l6.46,1.64a2.16,2.16,0,0,0,.39,0,1.91,1.91,0,0,0,.45-3.76l-5.59-1.41-1.53-6.23a4.12,4.12,0,0,0-4.05-3.4c-3.23-.08-4,3.32-4,3.32Z"></path></g></svg>