<svg xmlns="http://www.w3.org/2000/svg" viewBox="0 0 64 64"><g id="icon-fly-fishing" data-name="icon-fly-fishing"><path class="cls-2" d="M57.46,57c-12.31.18-25.18-2.17-35.05-10.1h0a.33.33,0,0,1-.09-.23.34.34,0,0,1,.34-.33h9.7a.85.85,0,0,0,.86-.86.83.83,0,0,0-.53-.78l-8.78-4.2a.55.55,0,0,1-.28-.49.56.56,0,0,1,.16-.4h0s10.7-9.46,33.66-9.25ZM36.86,42a2.08,2.08,0,1,0-2.07-2.09A2.09,2.09,0,0,0,36.86,42Z"></path><path class="cls-2" d="M11.56,34.37a3,3,0,1,1-3.89-4.59,3,3,0,0,1,1-.58v.16L8.66,30.8l4.09-4.33L8.59,27.73a4,4,0,0,0-1.8,1,4.38,4.38,0,1,0,5.65,6.68L51,3.13H48.85Z"></path><path class="cls-2" d="M25.73,24.85c-7.2,2.58-15.09-1.07-15.09-1.07s3.79-7.82,11-10.39,15.09,1.07,15.09,1.07S32.94,22.28,25.73,24.85Z"></path><polygon class="cls-2" points="32.83 18.52 26.33 23.5 23.61 25.31 23.21 26.01 21.14 26.93 10.64 41.47 22.01 28.14 14.33 41.71 24.11 28.15 18.01 41.96 32.83 18.52"></polygon><circle class="cls-2" cx="36.73" cy="14.36" r="2.74"></circle></g></svg>