<svg xmlns="http://www.w3.org/2000/svg" viewBox="0 0 64 64"><g id="icon-stars" data-name="icon-stars"><polygon class="cls-2" points="55.22 22.52 48.68 7.43 42.72 10.01 43.44 11.69 25.13 19.62 25.97 21.55 9.6 28.64 10.78 31.35 7.66 32.7 8.71 35.14 11.83 33.79 13.01 36.51 29.38 29.42 30.21 31.35 48.52 23.43 49.25 25.1 55.22 22.52"></polygon><path class="cls-2" d="M33.84,37.62h1.84V34.84h-3a2.63,2.63,0,0,0-5.16,0h-3v2.78h1.84l-11.53,20h3L28.81,38.45V57.59h2.56V38.45L42.42,57.59h3Z"></path><polygon class="cls-2" points="11.43 10.16 13.22 4.9 15.02 10.16 20.28 11.96 15.02 13.75 13.22 19.01 11.43 13.75 6.17 11.96 11.43 10.16"></polygon><path class="cls-2" d="M53.48,46.5a5.94,5.94,0,0,0,2.81-.31,6.26,6.26,0,0,1-1.38-11.57A6,6,0,0,0,53.48,46.5Z"></path></g></svg>