<svg xmlns="http://www.w3.org/2000/svg" viewBox="0 0 64 64"><g id="icon-fishing" data-name="icon-fishing"><path class="cls-2" d="M36.82,39.94a2.06,2.06,0,1,0-2.06-2.06A2,2,0,0,0,36.82,39.94ZM57.2,54.77c-12.19.18-24.93-2.15-34.68-10h0a.29.29,0,0,1-.09-.22.33.33,0,0,1,.33-.33h9.61a.85.85,0,0,0,.85-.85.82.82,0,0,0-.54-.78L24,38.47a.58.58,0,0,1-.28-.49.59.59,0,0,1,.16-.4h0s10.59-9.36,33.31-9.15Z"></path><path class="cls-2" d="M52.56,8.11C45,8.2,37.66,11.41,29.4,18.19l-1-.27A2.38,2.38,0,0,0,26,20.29l.15.72L19.5,27.27l-5.68,5.35a2.69,2.69,0,0,1-3.62-4l.75-.42c.07.48.27,2,.27,2l4.63-5.9L10.74,26a4.31,4.31,0,0,0-1.92,1.17,4.68,4.68,0,0,0,6.34,6.9l.05-.06,5.38-5.12,6.86-6.49,1,.24a2.38,2.38,0,0,0,2.37-2.38l-.11-.6c8-6.58,15-9.69,22-9.78a19,19,0,0,1,4.48.58l.39.08V8.71l-.25-.05A19.79,19.79,0,0,0,52.56,8.11Z"></path></g></svg>