<svg xmlns="http://www.w3.org/2000/svg" viewBox="0 0 64 64"><g id="icon-boating" data-name="icon-boating"><path class="cls-2" d="M58.38,44a7.44,7.44,0,0,1-3.06-.67,7.36,7.36,0,0,0-6.27,0,7.32,7.32,0,0,1-6.1,0,7.35,7.35,0,0,0-6.27,0,7.48,7.48,0,0,1-3.06.67,7.38,7.38,0,0,1-3-.67,7.35,7.35,0,0,0-6.27,0,7.48,7.48,0,0,1-3.06.67,7.35,7.35,0,0,1-3-.67,7.38,7.38,0,0,0-6.28,0,7.38,7.38,0,0,1-3,.67V39.38a7.38,7.38,0,0,0,3-.67,7.5,7.5,0,0,1,6.28,0,7.35,7.35,0,0,0,3,.67,7.48,7.48,0,0,0,3.06-.67,7.47,7.47,0,0,1,6.27,0,7.38,7.38,0,0,0,3,.67,7.48,7.48,0,0,0,3.06-.67,7.47,7.47,0,0,1,6.27,0,7.32,7.32,0,0,0,6.1,0,7.47,7.47,0,0,1,6.27,0,7.44,7.44,0,0,0,3.06.67Z"></path><path class="cls-2" d="M45.93,24.86l9,.7L54.25,21l-6.61-.47c-1.79-.09-1.53,1.7-1.53,1.7Z"></path><circle class="cls-2" cx="29.24" cy="20.83" r="2.98"></circle><path class="cls-2" d="M10.82,35.3a7.77,7.77,0,0,0,1.1-.42,7.38,7.38,0,0,1,6.28,0,7.35,7.35,0,0,0,3,.67,7.48,7.48,0,0,0,3.06-.67,7.35,7.35,0,0,1,6.27,0,7.38,7.38,0,0,0,3,.67,7.48,7.48,0,0,0,3.06-.67,7.35,7.35,0,0,1,6.27,0,7.32,7.32,0,0,0,6.1,0,7.36,7.36,0,0,1,6.27,0,7.38,7.38,0,0,0,3,.67l-1-8.15-37.4-3.13,5.64-5.69-2.48-.22-5.64,5.71L5.23,23c-.07,4.18,4.58,11.12,5.59,12.26Z"></path></g></svg>