<svg xmlns="http://www.w3.org/2000/svg" viewBox="0 0 64 64"><g id="icon-cross-country" data-name="icon-cross-country"><circle class="cls-2" cx="44.19" cy="11.92" r="3.88"></circle><path class="cls-2" d="M19.59,49.22l-12.91-13v2.26l12,12.07c1.38,1.49,3.75-.23,3.75-.23l-1.13-1.22s-1.12.73-1.7.11Z"></path><rect class="cls-2" x="6.78" y="24.79" width="13.22" height="1.58"></rect><polygon class="cls-2" points="55.73 21.02 57.23 21.65 42.23 51.85 40.57 51.85 55.73 21.02"></polygon><path class="cls-2" d="M30.83,18.69l-6,7a1.92,1.92,0,0,1-1.51.71A2,2,0,0,1,22,23l6.51-7.5A2,2,0,0,1,30,14.75h9.42a2.54,2.54,0,0,1,1.77.72l6,6,5-5A2,2,0,0,1,55,19.33l-6,6c-1.82,1.82-3.29.28-3.29.28L42.07,22l-5.76,6.66,5.28,5.28A3,3,0,0,1,42.06,37l-3,13.18a2.51,2.51,0,0,1-5-.5,2.28,2.28,0,0,1,.08-.63L36.65,38.2l-6-5.83L25.5,38.13a3.73,3.73,0,0,1-3,1L12,39.09a2.51,2.51,0,0,1-2.49-2,2.47,2.47,0,0,1,1.88-3,2.52,2.52,0,0,1,.63-.06l9,0L34.3,18.7Z"></path><path class="cls-2" d="M55.94,51.77a2.36,2.36,0,0,1-2.38,2.34H14.93v1.6H53.56a3.94,3.94,0,0,0,4-3.92Z"></path></g></svg>