<svg xmlns="http://www.w3.org/2000/svg" viewBox="0 0 64 64"><g id="icon-geocaching" data-name="icon-geocaching"><path class="cls-2" d="M33.59,7.36v8.13a18.57,18.57,0,0,1,4.57.8L37.31,19a15.69,15.69,0,0,0-3.72-.65V49.37l23,8.12v-42Zm16,24.58a8.17,8.17,0,0,1-.13,1.5l-2.75-.52a5.55,5.55,0,0,0,.08-1,12,12,0,0,0-.39-2.85l2.72-.68A14.79,14.79,0,0,1,49.64,31.95ZM48.41,26.1l-2.6,1a15.28,15.28,0,0,0-2-3.57L46,21.88A18,18,0,0,1,48.41,26.1Zm-8-8.89a15.62,15.62,0,0,1,4,2.84l-2,2a12.86,12.86,0,0,0-3.28-2.33Zm8.35,29.65L47.14,43.2l-1.92,2.41-3.68-1.29,3.22-3.89-3-5.64,4,1.41,1.4,3.16,1.64-2.1,3.74,1.31-3,3.51,3.24,6.15Z"></path><path class="cls-2" d="M27.57,19.36l-1.42-2.41a10.74,10.74,0,0,1,4.26-1.37V7.36l-23,8.12v42l23-8.12v-31A7.86,7.86,0,0,0,27.57,19.36Zm-18,19,0-2.8a9.78,9.78,0,0,0,3.7-1L14.5,37A12.43,12.43,0,0,1,9.59,38.32Zm7-2.66-1.73-2.2a9.71,9.71,0,0,0,2.5-3l2.45,1.35A12.47,12.47,0,0,1,16.63,35.66Zm4.22-6.07-2.64-.94A43.34,43.34,0,0,1,20,24.36l2.52,1.22A40.62,40.62,0,0,0,20.86,29.58Zm2.64-5.87-2.4-1.44a17,17,0,0,1,3-3.81L26,20.52A14.28,14.28,0,0,0,23.5,23.71Z"></path></g></svg>