<svg xmlns="http://www.w3.org/2000/svg" viewBox="0 0 64 64"><g id="icon-skiing" data-name="icon-skiing"><path class="cls-2" d="M49.56,27.82a4.05,4.05,0,1,0-4.05-4.06A4.06,4.06,0,0,0,49.56,27.82Z"></path><path class="cls-2" d="M47.56,57a4.12,4.12,0,0,0,5.65-1.44l-1.42-.85a2.46,2.46,0,0,1-3.38.85L5.71,30.53,4.87,32Z"></path><path class="cls-2" d="M32.1,12.31a5.37,5.37,0,0,0-7.47,1.47,5.26,5.26,0,0,0-.72,4.45l2.84,9.29-8.56,2.73a3.3,3.3,0,0,0-2,2.67c-.22,1.81,1.13,3,2.94,3.22A2.7,2.7,0,0,0,20.16,36l11.69-3.87a3,3,0,0,0,1.89-1.9,3.65,3.65,0,0,0,.13-1.32l-1.78-6.36,7,4.18L40,32.8a2.66,2.66,0,0,0,1.38,2.29l9.18,5.36a2.09,2.09,0,0,0,2-3.68l-7.26-4.24-.84-10.86a4.43,4.43,0,0,0-1.86-3.19Z"></path></g></svg>