<svg xmlns="http://www.w3.org/2000/svg" viewBox="0 0 64 64"><g id="icon-winter-sports" data-name="icon-winter-sports"><path class="cls-2" d="M29.86,55.1V48.43l-3.72,2.09-1.9-1.09V47.1L29.77,44V39.58l-4,2.58V37.51l-3.83,2.2V46l-2.09,1.29-1.77-1.17V41.92L12.25,45.2l-2.48-1V41.49l6.1-3.33-3.82-1.91V33.81l2.16-1.18,5.48,3.22,3.8-2.19-.1-.07-3.88-2.23L23.29,29l-3.79-2.19L14,30,12,29V26.59l3.71-2.08L9.77,21.3V18.64L12,17.47l5.83,3.36V16.55l1.76-1.18,2.15,1.24V23l3.91,2.23V20.72l4.1,2.2V18.55L24.24,15.4V13.08l1.9-1.1,3.72,2.09V7.42L32,6l2.15,1.39v6.65L38,11.93l1.94,1.28v2.09l-5.72,3.24v4.38l3.91-2.38v4.77l4-2.19V16.26l1.94-.91,2,.91v4.38l6-3.24,2.09,1.28v2.48L48.38,24.5,52,26.55v2.37l-1.9,1-5.62-3.32-3.88,2.47,3.76,2.34-3.87,2.23,4,2.09,5.62-3.14,1.8,1.28v2.26l-3.53,2L54,41.49v2.62L51.65,45.2l-5.51-3.14v4.16l-2,1.1-1.94-1.1V39.91l-4.08-2.33V42l-3.91-2.38V44l5.52,3.14v2.48l-1.9,1-3.71-2.09V55.1L32,56.48ZM28.34,31.4l2,2.95h3.72l1.71-2.95L34,28.26H30.24Z"></path></g></svg>