<svg xmlns="http://www.w3.org/2000/svg" viewBox="0 0 64 64"><g id="icon-wildlife" data-name="icon-wildlife"><path class="cls-2" d="M44.16,12.45h4.74a1.14,1.14,0,0,1,0,2.29H44.21a1.14,1.14,0,0,0-1.06,1.63,5.41,5.41,0,0,0,.68,1.09h2.7a1.55,1.55,0,0,1,.61.16L53.48,21a1.85,1.85,0,0,1-1,3.44H48.37L42.82,38.05l-3.56,3.56v13a2.39,2.39,0,0,1-4.79,0v-14H24.86l-2.16,3.29L28,53.17a2.4,2.4,0,0,1-4.18,2.35l-5.45-9.35V42l-2.71,3.64v8.81a2.39,2.39,0,0,1-4.79,0V45.13l2.24-3.55V37.35l-1.74,2.71a.27.27,0,0,1-.51-.1V30.55a3.57,3.57,0,0,1,3.5-3.39H37.89l3.74-5.75-3.1-3.09a.47.47,0,0,1-.16-.35.48.48,0,0,1,.47-.49h2.26a8.87,8.87,0,0,1,8-12.74,1.15,1.15,0,0,1,1.15,1.15A1.17,1.17,0,0,1,49.1,7.08a6.55,6.55,0,0,0-6.5,5.78A3.12,3.12,0,0,1,44.16,12.45Z"></path></g></svg>