<svg xmlns="http://www.w3.org/2000/svg" viewBox="0 0 64 64"><g id="icon-kayaking" data-name="icon-kayaking"><path class="cls-2" d="M49.25,40.64a7,7,0,0,0-3,.66,7.05,7.05,0,0,1-5.77,0,7,7,0,0,0-3-.66,7.09,7.09,0,0,0-3,.66,7,7,0,0,1-5.75,0,7,7,0,0,0-5.93,0,7,7,0,0,1-5.76,0,6.94,6.94,0,0,0-5.92,0,7.25,7.25,0,0,1-2.88.62v4.31a7.25,7.25,0,0,0,2.88-.62,6.94,6.94,0,0,1,5.92,0,7.29,7.29,0,0,0,2.42.57L16,49.75a2.94,2.94,0,0,0-3.64.41l-4.1,4.1a2.93,2.93,0,0,0,4.14,4.14l4.1-4.1A2.92,2.92,0,0,0,17,50.87l4.93-4.93a8.82,8.82,0,0,0,1-.33,7,7,0,0,1,5.93,0,7,7,0,0,0,5.75,0,7.09,7.09,0,0,1,3-.66,7,7,0,0,1,3,.66,7.05,7.05,0,0,0,5.77,0,7,7,0,0,1,5.93,0,7.2,7.2,0,0,0,2.88.62V41.92a7.2,7.2,0,0,1-2.88-.62A7,7,0,0,0,49.25,40.64Z"></path><path class="cls-2" d="M51.24,19.54l4.1-4.1a2.93,2.93,0,0,0-4.14-4.14l-4.1,4.1a2.91,2.91,0,0,0-.4,3.63L41.6,24.14,31.46,20.39A4.07,4.07,0,0,0,30.6,20a4.19,4.19,0,0,0-5.21,2.8L22.28,33.26a1.5,1.5,0,0,0-.06.33H8.35v5.6a5.6,5.6,0,0,0,2.22-.48,8.52,8.52,0,0,1,7.2,0,5.52,5.52,0,0,0,2.26.49,5.42,5.42,0,0,0,2.23-.48,8.71,8.71,0,0,1,3.62-.8,8.51,8.51,0,0,1,3.59.79,5.44,5.44,0,0,0,2.26.49,5.5,5.5,0,0,0,2.23-.48,8.66,8.66,0,0,1,3.6-.8,8.48,8.48,0,0,1,3.59.79,5.52,5.52,0,0,0,2.26.49,5.46,5.46,0,0,0,2.23-.48,8.67,8.67,0,0,1,3.62-.8,3.17,3.17,0,0,0,1.9-.49,22,22,0,0,0,3.34-1.82c1.07-.66,2-2.09-.37-2-.65,0-19.85,0-19.85,0l5.88-5.88.79.3A1.92,1.92,0,0,0,43,24.87L47.81,20A2.92,2.92,0,0,0,51.24,19.54Zm-19.09,14H30.9l2.51-8.36,5.18,1.92Z"></path><path class="cls-2" d="M32.11,14.9,31.58,16a2.12,2.12,0,0,1-1.9,1.2H28.43A4,4,0,0,0,35.63,15v-.21H32.3A.2.2,0,0,0,32.11,14.9Z"></path><path class="cls-2" d="M29.68,16.24a1.1,1.1,0,0,0,1-.63l.52-1.14a1.21,1.21,0,0,1,1.1-.72h4.09A4.87,4.87,0,0,0,26.81,15,4.6,4.6,0,0,0,27,16.24Z"></path></g></svg>