<svg xmlns="http://www.w3.org/2000/svg" viewBox="0 0 64 64"><g id="icon-caving" data-name="icon-horseback"><path class="cls-2" d="M40.48,15.83a4.05,4.05,0,0,1-7.38,2.33h1.28a2.16,2.16,0,0,0,1.94-1.22l.55-1.18a.23.23,0,0,1,.2-.13h3.41Z"></path><path class="cls-2" d="M41.26,14.58a5,5,0,0,0-9.81,1.24,5.11,5.11,0,0,0,.17,1.3h2.77a1.14,1.14,0,0,0,1-.63l.54-1.18a1.24,1.24,0,0,1,1.14-.73Z"></path><path class="cls-2" d="M26.9,18.2a1.15,1.15,0,0,0,.17-1.63l-2.19-2.69a1.15,1.15,0,0,0-1.63-.17l-9.35,7.6A1.17,1.17,0,0,0,13.73,23l2.19,2.69a1.18,1.18,0,0,0,1.64.17Z"></path><path class="cls-2" d="M17.66,29a5.14,5.14,0,0,0-1.33,1.53,5.3,5.3,0,0,0-.63,1.83L13,43.8,5.69,50.88a2.5,2.5,0,0,0-.51.66A2.82,2.82,0,0,0,9.52,55l8.18-7.9a3.27,3.27,0,0,0,.32-.47A2.84,2.84,0,0,0,18.3,46L20,38.71l5.47,5.45v9.19a2.82,2.82,0,0,0,5.27,1.4A2.91,2.91,0,0,0,31,53.23V43a2.82,2.82,0,0,0-.74-2l-5.89-5.82,6.78-5.56L32.77,34a2.11,2.11,0,0,0,.59.75l6.48,4.91a2.22,2.22,0,0,0,2.67-3.53L42.42,36,36.74,31.7,34.11,24a5.11,5.11,0,0,0-7.58-2.28Z"></path><path class="cls-2" d="M42.8,14.63a1,1,0,0,1-.3-.68.94.94,0,0,1,.93-.94h14c1.42,0,2.3,4,1.34,7.18-.9,2.93-3.56,6.71-4.82,5.43Z"></path></g></svg>