<?xml version="1.0" encoding="utf-8"?>

<!DOCTYPE svg PUBLIC "-//W3C//DTD SVG 1.1//EN" "http://www.w3.org/Graphics/SVG/1.1/DTD/svg11.dtd">
<!-- Uploaded to: SVG Repo, www.svgrepo.com, Generator: SVG Repo Mixer Tools -->
<svg height="800px" width="800px" version="1.1" id="_x32_" xmlns="http://www.w3.org/2000/svg" xmlns:xlink="http://www.w3.org/1999/xlink" 
	 viewBox="0 0 512 512"  xml:space="preserve">
<style type="text/css">
	.st0{fill:#000000;}
</style>
<g>
	<path class="st0" d="M140.994,292.662c-0.228-0.073-9.597-2.922-22.883-5.798c-13.304-2.857-30.442-5.788-46.806-5.817
		c-8.2,0.019-16.244,0.722-23.823,2.914c-7.506,2.182-14.975,6.017-20.27,13.03l-1.188,1.58l-0.621,1.872
		c-1.571,4.712-2.31,9.678-2.31,14.7c0.036,12.665,4.502,25.558,12.226,38.579c11.651,19.522,30.928,39.62,57.417,59.152
		c26.499,19.504,60.256,38.35,100.981,54.64C267.314,496.88,354.224,511.936,413.475,512c18.664-0.027,34.571-1.46,47.236-4.867
		c6.337-1.744,11.943-3.944,16.865-7.368c2.456-1.717,4.748-3.78,6.666-6.365c1.917-2.566,3.406-5.707,4.072-9.076l0.594-2.968
		l-0.868-2.913c-3.25-10.555-10.034-20.637-19.23-31.21c-13.824-15.752-33.42-32.224-56.431-47.454
		c-23.001-15.204-49.39-29.092-76.728-39.118l-8.365,22.828c33.685,12.327,66.703,31.484,91.996,51.089
		c12.646,9.779,23.376,19.686,31.246,28.681c7.898,8.93,12.802,17.157,14.226,22.17l11.642-3.488l-11.916-2.384l2.118,0.42
		l-1.972-0.895l-0.146,0.475l2.118,0.42l-1.972-0.895l0.831,0.375l-0.749-0.538l-0.082,0.164l0.831,0.375l-0.749-0.538
		c0.019,0.036-0.95,1.104-3.36,2.246c-3.57,1.753-9.935,3.57-18.144,4.721c-8.227,1.178-18.317,1.808-29.731,1.799
		c-55.28,0.073-140.756-14.674-210.737-42.743c-52.011-20.792-91.585-45.802-117.664-69.68
		c-13.039-11.925-22.681-23.567-28.863-33.977c-6.227-10.409-8.848-19.486-8.812-26.142c0-2.666,0.384-4.958,1.069-7.013
		l-11.532-3.844l9.724,7.296c0.931-1.297,3.205-3.004,7.606-4.282c4.319-1.27,10.354-1.954,17.039-1.936
		c13.414-0.018,29.356,2.584,41.674,5.26c6.173,1.333,11.46,2.676,15.176,3.671c1.862,0.502,3.323,0.914,4.31,1.196l1.114,0.329
		l0.329,0.092L140.994,292.662z"/>
	<circle class="st0" cx="301.72" cy="37.401" r="37.401"/>
	<path class="st0" d="M465.988,205.825l-23.924-55.344c-4.072-8.61-11.103-15.477-19.814-19.34l-44.487-19.76
		c-21.221-9.423-44.56-13.102-67.662-10.674l-33.803,3.561c-13.094,1.379-25.932,4.702-38.04,9.871l-44.835,19.093l-52.559-12.456
		c-9.113-1.853-18.006,4.037-19.85,13.15c-1.862,9.113,4.072,17.047,13.148,19.85l48.979,16.428c9.26,2.821,19.12,2.93,28.434,0.292
		l52.102-13.477l9.35,44.414l-62.95,27.941c-13.496,4.986-24.015,15.788-28.654,29.412l-30.607,90.106
		c-3.378,11.113,2.885,22.874,14.007,26.261c11.122,3.378,21.586-2.319,26.261-14.007l36.232-87.659l61.763-26.061
		c2.045-0.858,4.401-0.365,5.917,1.242c1.516,1.606,1.881,3.98,0.914,5.971l-18.336,37.548l-12.272,88.17
		c-1.644,11.505,6.338,22.17,17.842,23.824c11.505,1.644,20.911-4.465,23.814-17.852l16.198-84.791l34.004-46.314
		c13.332-18.134,18.336-41.063,13.806-63.105l-9.241-44.86l43.628,17.924l29.968,54.559c3.854,8.482,13.824,12.226,22.299,8.373
		C466.098,224.26,469.841,214.289,465.988,205.825z"/>
</g>
</svg>