<svg xmlns="http://www.w3.org/2000/svg" viewBox="0 0 64 64"><g id="icon-cycling" data-name="icon-cycling"><path class="cls-2" d="M16.75,52.73a8.6,8.6,0,1,0-8.59-8.6A8.6,8.6,0,0,0,16.75,52.73ZM6.2,44.13A10.55,10.55,0,1,1,16.75,54.68,10.55,10.55,0,0,1,6.2,44.13Z"></path><path class="cls-2" d="M47.81,52.84a8.6,8.6,0,1,0-8.6-8.6A8.6,8.6,0,0,0,47.81,52.84Zm-10.56-8.6A10.55,10.55,0,1,1,47.81,54.78,10.56,10.56,0,0,1,37.25,44.24Z"></path><ellipse class="cls-2" cx="37.28" cy="14.52" rx="3.97" ry="3.97"></ellipse><path class="cls-2" d="M37.45,28.11a1.92,1.92,0,0,1-1.65-1l-2.58-4L27.9,28.35l4.93,2.6a2.68,2.68,0,0,1,1.72,2.75V44.86a2.28,2.28,0,1,1-4.57,0V35.93l-8.55-4.75a3.32,3.32,0,0,1-1.71-2.9,3.27,3.27,0,0,1,.86-2.23L29,17.65a3,3,0,0,1,2.5-1,3.36,3.36,0,0,1,2.68,1.53L38.5,25h6.62a1.57,1.57,0,1,1,0,3.1Z"></path></g></svg>