<svg xmlns="http://www.w3.org/2000/svg" viewBox="0 0 64 64"><g id="icon-atv" data-name="icon-atv"><path class="cls-2" d="M47,22.72V16.2h-.61a3.26,3.26,0,0,0,0,6.52Z"></path><path class="cls-2" d="M42.06,21.24l-2.85-5.69a3.71,3.71,0,0,0-3.29-2H29.31a1.11,1.11,0,0,0,0,2.23h6.61a1.59,1.59,0,0,1,1.36.87l1.82,3.63Z"></path><path class="cls-2" d="M55.19,27.33a2.07,2.07,0,0,1,1.49,2H51.87A11.49,11.49,0,0,0,40.39,40.8H24.71a11.5,11.5,0,0,0-7.89-10.92L8.18,27l1.43-2.19A2.85,2.85,0,0,1,12,23.59a3,3,0,0,1,.62.06l19.24,6a2.63,2.63,0,0,0,.74.11,2.48,2.48,0,0,0,2.08-1.12L39,22.29Z"></path><path class="cls-2" d="M42.3,42.8a7.83,7.83,0,1,1,7.83,7.83A7.82,7.82,0,0,1,42.3,42.8Zm7.83,2.93a2.93,2.93,0,1,0-2.91-2.93A2.93,2.93,0,0,0,50.13,45.72Z"></path><path class="cls-2" d="M5.44,42a8.6,8.6,0,1,1,8.61,8.61A8.61,8.61,0,0,1,5.44,42Zm8.63,3.22A3.22,3.22,0,1,0,10.85,42,3.21,3.21,0,0,0,14.07,45.18Z"></path></g></svg>